{
  "header": {
    "PPQ": 480,
    "bpm": 100,
    "timeSignature": [
      3,
      4
    ],
    "name": "Menuett                                                         "
  },
  "tempo": [
    {
      "absoluteTime": 0,
      "seconds": 0,
      "bpm": 100
    },
    {
      "absoluteTime": 24010,
      "seconds": 30.0125,
      "bpm": 98.00014373354415
    },
    {
      "absoluteTime": 24040,
      "seconds": 30.05,
      "bpm": 96
    },
    {
      "absoluteTime": 24090,
      "seconds": 30.1125,
      "bpm": 95.00014250021376
    },
    {
      "absoluteTime": 24140,
      "seconds": 30.175,
      "bpm": 93.00004185001883
    },
    {
      "absoluteTime": 24200,
      "seconds": 30.25,
      "bpm": 92.00012880018032
    },
    {
      "absoluteTime": 24280,
      "seconds": 30.35,
      "bpm": 90.00009000009
    },
    {
      "absoluteTime": 24380,
      "seconds": 30.475,
      "bpm": 88.00002346667293
    },
    {
      "absoluteTime": 24520,
      "seconds": 30.650000000000002,
      "bpm": 87.00002175000543
    },
    {
      "absoluteTime": 24750,
      "seconds": 30.937500000000004,
      "bpm": 100
    },
    {
      "absoluteTime": 46350,
      "seconds": 57.9375,
      "bpm": 99.000099000099
    },
    {
      "absoluteTime": 46570,
      "seconds": 58.2125,
      "bpm": 98.00014373354415
    },
    {
      "absoluteTime": 46600,
      "seconds": 58.25,
      "bpm": 96
    },
    {
      "absoluteTime": 46640,
      "seconds": 58.3,
      "bpm": 95.00014250021376
    },
    {
      "absoluteTime": 46700,
      "seconds": 58.375,
      "bpm": 93.00004185001883
    },
    {
      "absoluteTime": 46760,
      "seconds": 58.45,
      "bpm": 92.00012880018032
    },
    {
      "absoluteTime": 46830,
      "seconds": 58.5375,
      "bpm": 90.00009000009
    },
    {
      "absoluteTime": 46890,
      "seconds": 58.612500000000004,
      "bpm": 88.00002346667293
    },
    {
      "absoluteTime": 46980,
      "seconds": 58.725,
      "bpm": 87.00002175000543
    },
    {
      "absoluteTime": 47060,
      "seconds": 58.825,
      "bpm": 85.00004250002125
    },
    {
      "absoluteTime": 47180,
      "seconds": 58.975,
      "bpm": 83.0000650167176
    },
    {
      "absoluteTime": 47310,
      "seconds": 59.1375,
      "bpm": 82.00003553334874
    },
    {
      "absoluteTime": 47480,
      "seconds": 59.35,
      "bpm": 81.000081000081
    },
    {
      "absoluteTime": 47730,
      "seconds": 59.6625,
      "bpm": 79.00006978339498
    },
    {
      "absoluteTime": 48140,
      "seconds": 60.175000000000004,
      "bpm": 100
    },
    {
      "absoluteTime": 69020,
      "seconds": 86.275,
      "bpm": 99.000099000099
    },
    {
      "absoluteTime": 69130,
      "seconds": 86.41250000000001,
      "bpm": 98.00014373354415
    },
    {
      "absoluteTime": 69160,
      "seconds": 86.45,
      "bpm": 96
    },
    {
      "absoluteTime": 69190,
      "seconds": 86.4875,
      "bpm": 95.00014250021376
    },
    {
      "absoluteTime": 69240,
      "seconds": 86.55,
      "bpm": 93.00004185001883
    },
    {
      "absoluteTime": 69290,
      "seconds": 86.6125,
      "bpm": 92.00012880018032
    },
    {
      "absoluteTime": 69350,
      "seconds": 86.6875,
      "bpm": 90.00009000009
    },
    {
      "absoluteTime": 69410,
      "seconds": 86.7625,
      "bpm": 88.00002346667293
    },
    {
      "absoluteTime": 69480,
      "seconds": 86.85000000000001,
      "bpm": 87.00002175000543
    },
    {
      "absoluteTime": 69550,
      "seconds": 86.93750000000001,
      "bpm": 85.00004250002125
    },
    {
      "absoluteTime": 69650,
      "seconds": 87.06250000000001,
      "bpm": 84.000084000084
    },
    {
      "absoluteTime": 69760,
      "seconds": 87.20000000000002,
      "bpm": 82.00003553334874
    },
    {
      "absoluteTime": 69910,
      "seconds": 87.38750000000002,
      "bpm": 80
    },
    {
      "absoluteTime": 70120,
      "seconds": 87.65000000000002,
      "bpm": 79.00006978339498
    },
    {
      "absoluteTime": 70470,
      "seconds": 88.08750000000002,
      "bpm": 78.000078000078
    }
  ],
  "timeSignature": [
    {
      "absoluteTime": 0,
      "seconds": 0,
      "numerator": 3,
      "denominator": 2,
      "click": 24,
      "notesQ": 8
    }
  ],
  "startTime": 0,
  "duration": 89.39999999999986,
  "tracks": [
    {
      "startTime": 0,
      "duration": 0,
      "length": 0,
      "notes": [],
      "controlChanges": {},
      "id": 0,
      "name": "Menuett                                                         "
    },
    {
      "startTime": 0,
      "duration": 0,
      "length": 0,
      "notes": [],
      "controlChanges": {},
      "id": 1,
      "name": "Sysex                               "
    },
    {
      "startTime": 2.9999999999999996,
      "duration": 88.80000000000007,
      "length": 221,
      "notes": [
        {
          "name": "A4",
          "midi": 69,
          "time": 2.9999999999999996,
          "velocity": 0.7874015748031497,
          "duration": 0.4500000000000024
        },
        {
          "name": "A#4",
          "midi": 70,
          "time": 3.450000000000002,
          "velocity": 0.7480314960629921,
          "duration": 0.13750000000000018
        },
        {
          "name": "C5",
          "midi": 72,
          "time": 3.6000000000000023,
          "velocity": 0.7874015748031497,
          "duration": 0.4500000000000002
        },
        {
          "name": "B4",
          "midi": 71,
          "time": 4.0500000000000025,
          "velocity": 0.7480314960629921,
          "duration": 0.13750000000000018
        },
        {
          "name": "C5",
          "midi": 72,
          "time": 4.200000000000003,
          "velocity": 0.7874015748031497,
          "duration": 0.4500000000000002
        },
        {
          "name": "B4",
          "midi": 71,
          "time": 4.650000000000003,
          "velocity": 0.7480314960629921,
          "duration": 0.13750000000000018
        },
        {
          "name": "C5",
          "midi": 72,
          "time": 4.800000000000003,
          "velocity": 0.7874015748031497,
          "duration": 0.4500000000000002
        },
        {
          "name": "B4",
          "midi": 71,
          "time": 5.2500000000000036,
          "velocity": 0.7480314960629921,
          "duration": 0.13750000000000018
        },
        {
          "name": "C5",
          "midi": 72,
          "time": 5.400000000000004,
          "velocity": 0.8267716535433071,
          "duration": 1.0625
        },
        {
          "name": "D5",
          "midi": 74,
          "time": 6.600000000000004,
          "velocity": 0.7874015748031497,
          "duration": 0.4500000000000002
        },
        {
          "name": "A4",
          "midi": 69,
          "time": 7.050000000000004,
          "velocity": 0.7480314960629921,
          "duration": 0.13750000000000018
        },
        {
          "name": "A#4",
          "midi": 70,
          "time": 7.200000000000005,
          "velocity": 0.7874015748031497,
          "duration": 1.0625
        },
        {
          "name": "C5",
          "midi": 72,
          "time": 8.400000000000004,
          "velocity": 0.7480314960629921,
          "duration": 0.4499999999999993
        },
        {
          "name": "G4",
          "midi": 67,
          "time": 8.850000000000003,
          "velocity": 0.7086614173228346,
          "duration": 0.1374999999999993
        },
        {
          "name": "A4",
          "midi": 69,
          "time": 9.000000000000002,
          "velocity": 0.5905511811023622,
          "duration": 1.0625
        },
        {
          "name": "F4",
          "midi": 65,
          "time": 10.200000000000001,
          "velocity": 0.7874015748031497,
          "duration": 0.4499999999999993
        },
        {
          "name": "G4",
          "midi": 67,
          "time": 10.65,
          "velocity": 0.7480314960629921,
          "duration": 0.1374999999999993
        },
        {
          "name": "A4",
          "midi": 69,
          "time": 10.799999999999999,
          "velocity": 0.7874015748031497,
          "duration": 0.4499999999999993
        },
        {
          "name": "G#4",
          "midi": 68,
          "time": 11.249999999999998,
          "velocity": 0.7480314960629921,
          "duration": 0.1374999999999993
        },
        {
          "name": "A4",
          "midi": 69,
          "time": 11.399999999999997,
          "velocity": 0.7874015748031497,
          "duration": 0.4499999999999993
        },
        {
          "name": "G#4",
          "midi": 68,
          "time": 11.849999999999996,
          "velocity": 0.7480314960629921,
          "duration": 0.1374999999999993
        },
        {
          "name": "A4",
          "midi": 69,
          "time": 11.999999999999995,
          "velocity": 0.7874015748031497,
          "duration": 0.4499999999999993
        },
        {
          "name": "G#4",
          "midi": 68,
          "time": 12.449999999999994,
          "velocity": 0.7480314960629921,
          "duration": 0.1374999999999993
        },
        {
          "name": "A4",
          "midi": 69,
          "time": 12.599999999999993,
          "velocity": 0.8267716535433071,
          "duration": 1.0625
        },
        {
          "name": "G4",
          "midi": 67,
          "time": 13.799999999999992,
          "velocity": 0.7874015748031497,
          "duration": 0.3000000000000007
        },
        {
          "name": "F4",
          "midi": 65,
          "time": 14.099999999999993,
          "velocity": 0.7480314960629921,
          "duration": 0.28749999999999964
        },
        {
          "name": "F4",
          "midi": 65,
          "time": 14.399999999999991,
          "velocity": 0.7874015748031497,
          "duration": 0.3000000000000007
        },
        {
          "name": "E4",
          "midi": 64,
          "time": 14.699999999999992,
          "velocity": 0.7480314960629921,
          "duration": 0.28749999999999964
        },
        {
          "name": "E4",
          "midi": 64,
          "time": 14.999999999999991,
          "velocity": 0.7874015748031497,
          "duration": 0.3000000000000007
        },
        {
          "name": "G4",
          "midi": 67,
          "time": 15.299999999999992,
          "velocity": 0.7480314960629921,
          "duration": 0.28749999999999964
        },
        {
          "name": "F4",
          "midi": 65,
          "time": 15.59999999999999,
          "velocity": 0.7086614173228346,
          "duration": 0.3000000000000007
        },
        {
          "name": "D4",
          "midi": 62,
          "time": 15.899999999999991,
          "velocity": 0.6692913385826772,
          "duration": 0.2875000000000014
        },
        {
          "name": "C4",
          "midi": 60,
          "time": 16.199999999999992,
          "velocity": 0.5511811023622047,
          "duration": 0.6000000000000014
        },
        {
          "name": "C5",
          "midi": 72,
          "time": 17.399999999999995,
          "velocity": 0.7874015748031497,
          "duration": 0.3000000000000007
        },
        {
          "name": "F5",
          "midi": 77,
          "time": 17.699999999999996,
          "velocity": 0.7480314960629921,
          "duration": 0.3000000000000007
        },
        {
          "name": "F5",
          "midi": 77,
          "time": 17.999999999999996,
          "velocity": 0.7874015748031497,
          "duration": 0.6000000000000014
        },
        {
          "name": "E5",
          "midi": 76,
          "time": 18.599999999999998,
          "velocity": 0.7480314960629921,
          "duration": 0.6000000000000014
        },
        {
          "name": "F5",
          "midi": 77,
          "time": 19.2,
          "velocity": 0.7480314960629921,
          "duration": 0.6000000000000014
        },
        {
          "name": "G5",
          "midi": 79,
          "time": 19.8,
          "velocity": 0.8267716535433071,
          "duration": 1.0625
        },
        {
          "name": "F5",
          "midi": 77,
          "time": 21,
          "velocity": 0.7874015748031497,
          "duration": 0.14999999999999858
        },
        {
          "name": "E5",
          "midi": 76,
          "time": 21.15,
          "velocity": 0.7480314960629921,
          "duration": 0.14999999999999858
        },
        {
          "name": "D5",
          "midi": 74,
          "time": 21.299999999999997,
          "velocity": 0.7480314960629921,
          "duration": 0.14999999999999858
        },
        {
          "name": "C5",
          "midi": 72,
          "time": 21.449999999999996,
          "velocity": 0.7086614173228346,
          "duration": 0.14999999999999858
        },
        {
          "name": "A#4",
          "midi": 70,
          "time": 21.599999999999994,
          "velocity": 0.7874015748031497,
          "duration": 0.6000000000000014
        },
        {
          "name": "A4",
          "midi": 69,
          "time": 22.199999999999996,
          "velocity": 0.7480314960629921,
          "duration": 0.3000000000000007
        },
        {
          "name": "D5",
          "midi": 74,
          "time": 22.799999999999997,
          "velocity": 0.7874015748031497,
          "duration": 0.4499999999999993
        },
        {
          "name": "A#4",
          "midi": 70,
          "time": 23.249999999999996,
          "velocity": 0.7480314960629921,
          "duration": 0.1374999999999993
        },
        {
          "name": "A4",
          "midi": 69,
          "time": 23.399999999999995,
          "velocity": 0.7874015748031497,
          "duration": 0.6000000000000014
        },
        {
          "name": "G4",
          "midi": 67,
          "time": 23.999999999999996,
          "velocity": 0.7086614173228346,
          "duration": 0.3000000000000007
        },
        {
          "name": "F4",
          "midi": 65,
          "time": 24.599999999999998,
          "velocity": 0.7874015748031497,
          "duration": 0.4499999999999993
        },
        {
          "name": "G4",
          "midi": 67,
          "time": 25.049999999999997,
          "velocity": 0.7480314960629921,
          "duration": 0.14999999999999858
        },
        {
          "name": "A4",
          "midi": 69,
          "time": 25.199999999999996,
          "velocity": 0.7874015748031497,
          "duration": 0.4499999999999993
        },
        {
          "name": "G#4",
          "midi": 68,
          "time": 25.649999999999995,
          "velocity": 0.7480314960629921,
          "duration": 0.1374999999999993
        },
        {
          "name": "A4",
          "midi": 69,
          "time": 25.799999999999994,
          "velocity": 0.7874015748031497,
          "duration": 0.4499999999999993
        },
        {
          "name": "G#4",
          "midi": 68,
          "time": 26.249999999999993,
          "velocity": 0.7480314960629921,
          "duration": 0.1374999999999993
        },
        {
          "name": "A4",
          "midi": 69,
          "time": 26.39999999999999,
          "velocity": 0.7874015748031497,
          "duration": 0.4499999999999993
        },
        {
          "name": "G#4",
          "midi": 68,
          "time": 26.84999999999999,
          "velocity": 0.7480314960629921,
          "duration": 0.1374999999999993
        },
        {
          "name": "A4",
          "midi": 69,
          "time": 26.99999999999999,
          "velocity": 0.8267716535433071,
          "duration": 1.0625
        },
        {
          "name": "A#4",
          "midi": 70,
          "time": 28.19999999999999,
          "velocity": 0.7874015748031497,
          "duration": 0.4499999999999993
        },
        {
          "name": "F#4",
          "midi": 66,
          "time": 28.649999999999988,
          "velocity": 0.7480314960629921,
          "duration": 0.1374999999999993
        },
        {
          "name": "G4",
          "midi": 67,
          "time": 28.799999999999986,
          "velocity": 0.7480314960629921,
          "duration": 1.0625
        },
        {
          "name": "A4",
          "midi": 69,
          "time": 29.999999999999986,
          "velocity": 0.7086614173228346,
          "duration": 0.4499999999999993
        },
        {
          "name": "E4",
          "midi": 64,
          "time": 30.449999999999985,
          "velocity": 0.6692913385826772,
          "duration": 0.1374999999999993
        },
        {
          "name": "F4",
          "midi": 65,
          "time": 30.599999999999984,
          "velocity": 0.5511811023622047,
          "duration": 0.6000000000000014
        },
        {
          "name": "C5",
          "midi": 72,
          "time": 31.499999999999986,
          "velocity": 0.7874015748031497,
          "duration": 0.3000000000000007
        },
        {
          "name": "B4",
          "midi": 71,
          "time": 31.799999999999986,
          "velocity": 0.7480314960629921,
          "duration": 0.3000000000000007
        },
        {
          "name": "C5",
          "midi": 72,
          "time": 32.09999999999999,
          "velocity": 0.7086614173228346,
          "duration": 0.29999999999999716
        },
        {
          "name": "A4",
          "midi": 69,
          "time": 32.399999999999984,
          "velocity": 0.7874015748031497,
          "duration": 0.29999999999999716
        },
        {
          "name": "C5",
          "midi": 72,
          "time": 32.69999999999998,
          "velocity": 0.7480314960629921,
          "duration": 0.1875
        },
        {
          "name": "F4",
          "midi": 65,
          "time": 32.99999999999998,
          "velocity": 0.7874015748031497,
          "duration": 0.29999999999999716
        },
        {
          "name": "A4",
          "midi": 69,
          "time": 33.299999999999976,
          "velocity": 0.7480314960629921,
          "duration": 0.1875
        },
        {
          "name": "C4",
          "midi": 60,
          "time": 33.59999999999997,
          "velocity": 0.7480314960629921,
          "duration": 0.1875
        },
        {
          "name": "A4",
          "midi": 69,
          "time": 33.89999999999997,
          "velocity": 0.7086614173228346,
          "duration": 0.1875
        },
        {
          "name": "G4",
          "midi": 67,
          "time": 34.19999999999997,
          "velocity": 0.7874015748031497,
          "duration": 0.29999999999999716
        },
        {
          "name": "A#4",
          "midi": 70,
          "time": 34.499999999999964,
          "velocity": 0.7480314960629921,
          "duration": 0.1875
        },
        {
          "name": "E4",
          "midi": 64,
          "time": 34.79999999999996,
          "velocity": 0.7874015748031497,
          "duration": 0.29999999999999716
        },
        {
          "name": "G4",
          "midi": 67,
          "time": 35.09999999999996,
          "velocity": 0.7480314960629921,
          "duration": 0.1875
        },
        {
          "name": "C4",
          "midi": 60,
          "time": 35.399999999999956,
          "velocity": 0.7480314960629921,
          "duration": 0.1875
        },
        {
          "name": "E4",
          "midi": 64,
          "time": 35.69999999999995,
          "velocity": 0.7086614173228346,
          "duration": 0.1875
        },
        {
          "name": "F4",
          "midi": 65,
          "time": 35.99999999999995,
          "velocity": 0.7874015748031497,
          "duration": 0.2875000000000014
        },
        {
          "name": "E4",
          "midi": 64,
          "time": 36.299999999999955,
          "velocity": 0.7480314960629921,
          "duration": 0.2875000000000014
        },
        {
          "name": "F4",
          "midi": 65,
          "time": 36.59999999999996,
          "velocity": 0.7874015748031497,
          "duration": 0.2875000000000014
        },
        {
          "name": "G4",
          "midi": 67,
          "time": 36.89999999999996,
          "velocity": 0.7480314960629921,
          "duration": 0.2875000000000014
        },
        {
          "name": "A4",
          "midi": 69,
          "time": 37.19999999999997,
          "velocity": 0.7480314960629921,
          "duration": 0.2875000000000014
        },
        {
          "name": "A#4",
          "midi": 70,
          "time": 37.49999999999997,
          "velocity": 0.7086614173228346,
          "duration": 0.2875000000000014
        },
        {
          "name": "C5",
          "midi": 72,
          "time": 37.799999999999976,
          "velocity": 0.7874015748031497,
          "duration": 0.2875000000000014
        },
        {
          "name": "B4",
          "midi": 71,
          "time": 38.09999999999998,
          "velocity": 0.7480314960629921,
          "duration": 0.2875000000000014
        },
        {
          "name": "C5",
          "midi": 72,
          "time": 38.399999999999984,
          "velocity": 0.7874015748031497,
          "duration": 0.2875000000000014
        },
        {
          "name": "D5",
          "midi": 74,
          "time": 38.69999999999999,
          "velocity": 0.7480314960629921,
          "duration": 0.2875000000000014
        },
        {
          "name": "C5",
          "midi": 72,
          "time": 38.99999999999999,
          "velocity": 0.7480314960629921,
          "duration": 0.2875000000000014
        },
        {
          "name": "A#4",
          "midi": 70,
          "time": 39.3,
          "velocity": 0.7086614173228346,
          "duration": 0.2749999999999986
        },
        {
          "name": "A4",
          "midi": 69,
          "time": 39.599999999999994,
          "velocity": 0.7874015748031497,
          "duration": 0.2875000000000014
        },
        {
          "name": "G#4",
          "midi": 68,
          "time": 39.9,
          "velocity": 0.7480314960629921,
          "duration": 0.2875000000000014
        },
        {
          "name": "A4",
          "midi": 69,
          "time": 40.2,
          "velocity": 0.7874015748031497,
          "duration": 0.2875000000000014
        },
        {
          "name": "A#4",
          "midi": 70,
          "time": 40.50000000000001,
          "velocity": 0.7480314960629921,
          "duration": 0.2875000000000014
        },
        {
          "name": "A4",
          "midi": 69,
          "time": 40.80000000000001,
          "velocity": 0.7480314960629921,
          "duration": 0.2875000000000014
        },
        {
          "name": "G4",
          "midi": 67,
          "time": 41.100000000000016,
          "velocity": 0.7086614173228346,
          "duration": 0.2875000000000014
        },
        {
          "name": "F4",
          "midi": 65,
          "time": 41.40000000000002,
          "velocity": 0.7874015748031497,
          "duration": 0.2875000000000014
        },
        {
          "name": "A4",
          "midi": 69,
          "time": 41.700000000000024,
          "velocity": 0.7480314960629921,
          "duration": 0.2875000000000014
        },
        {
          "name": "G4",
          "midi": 67,
          "time": 42.00000000000003,
          "velocity": 0.7874015748031497,
          "duration": 0.2875000000000014
        },
        {
          "name": "F4",
          "midi": 65,
          "time": 42.30000000000003,
          "velocity": 0.7480314960629921,
          "duration": 0.2875000000000014
        },
        {
          "name": "E4",
          "midi": 64,
          "time": 42.60000000000004,
          "velocity": 0.7480314960629921,
          "duration": 0.2875000000000014
        },
        {
          "name": "G4",
          "midi": 67,
          "time": 42.90000000000004,
          "velocity": 0.7086614173228346,
          "duration": 0.2749999999999986
        },
        {
          "name": "D4",
          "midi": 62,
          "time": 43.20000000000004,
          "velocity": 0.7874015748031497,
          "duration": 0.2875000000000014
        },
        {
          "name": "E4",
          "midi": 64,
          "time": 43.50000000000004,
          "velocity": 0.7480314960629921,
          "duration": 0.2875000000000014
        },
        {
          "name": "F4",
          "midi": 65,
          "time": 43.80000000000005,
          "velocity": 0.7874015748031497,
          "duration": 0.2875000000000014
        },
        {
          "name": "D4",
          "midi": 62,
          "time": 44.10000000000005,
          "velocity": 0.7480314960629921,
          "duration": 0.2875000000000014
        },
        {
          "name": "B3",
          "midi": 59,
          "time": 44.400000000000055,
          "velocity": 0.7086614173228346,
          "duration": 0.2875000000000014
        },
        {
          "name": "G3",
          "midi": 55,
          "time": 44.70000000000006,
          "velocity": 0.6692913385826772,
          "duration": 0.2875000000000014
        },
        {
          "name": "C4",
          "midi": 60,
          "time": 45.000000000000064,
          "velocity": 0.6299212598425197,
          "duration": 0.6000000000000014
        },
        {
          "name": "C5",
          "midi": 72,
          "time": 45.90000000000006,
          "velocity": 0.7874015748031497,
          "duration": 0.29999999999999716
        },
        {
          "name": "B4",
          "midi": 71,
          "time": 46.20000000000006,
          "velocity": 0.7480314960629921,
          "duration": 0.29999999999999716
        },
        {
          "name": "C5",
          "midi": 72,
          "time": 46.50000000000006,
          "velocity": 0.7086614173228346,
          "duration": 0.29999999999999716
        },
        {
          "name": "D5",
          "midi": 74,
          "time": 46.800000000000054,
          "velocity": 0.7874015748031497,
          "duration": 0.29999999999999716
        },
        {
          "name": "A#4",
          "midi": 70,
          "time": 47.10000000000005,
          "velocity": 0.7480314960629921,
          "duration": 0.29999999999999716
        },
        {
          "name": "G4",
          "midi": 67,
          "time": 47.40000000000005,
          "velocity": 0.7874015748031497,
          "duration": 0.1875
        },
        {
          "name": "A4",
          "midi": 69,
          "time": 47.700000000000045,
          "velocity": 0.7480314960629921,
          "duration": 0.1875
        },
        {
          "name": "G4",
          "midi": 67,
          "time": 48.00000000000004,
          "velocity": 0.7480314960629921,
          "duration": 0.1875
        },
        {
          "name": "A4",
          "midi": 69,
          "time": 48.30000000000004,
          "velocity": 0.7086614173228346,
          "duration": 0.1875
        },
        {
          "name": "A#4",
          "midi": 70,
          "time": 48.60000000000004,
          "velocity": 0.7874015748031497,
          "duration": 0.29999999999999716
        },
        {
          "name": "G4",
          "midi": 67,
          "time": 48.900000000000034,
          "velocity": 0.7480314960629921,
          "duration": 0.29999999999999716
        },
        {
          "name": "E4",
          "midi": 64,
          "time": 49.20000000000003,
          "velocity": 0.7874015748031497,
          "duration": 0.1875
        },
        {
          "name": "C5",
          "midi": 72,
          "time": 49.50000000000003,
          "velocity": 0.7480314960629921,
          "duration": 0.1875
        },
        {
          "name": "B4",
          "midi": 71,
          "time": 49.800000000000026,
          "velocity": 0.7480314960629921,
          "duration": 0.1875
        },
        {
          "name": "C5",
          "midi": 72,
          "time": 50.10000000000002,
          "velocity": 0.7086614173228346,
          "duration": 0.1875
        },
        {
          "name": "D5",
          "midi": 74,
          "time": 50.40000000000002,
          "velocity": 0.7874015748031497,
          "duration": 0.29999999999999716
        },
        {
          "name": "A#4",
          "midi": 70,
          "time": 50.70000000000002,
          "velocity": 0.7480314960629921,
          "duration": 0.29999999999999716
        },
        {
          "name": "G4",
          "midi": 67,
          "time": 51.000000000000014,
          "velocity": 0.7874015748031497,
          "duration": 0.1875
        },
        {
          "name": "A4",
          "midi": 69,
          "time": 51.30000000000001,
          "velocity": 0.7480314960629921,
          "duration": 0.1875
        },
        {
          "name": "G4",
          "midi": 67,
          "time": 51.60000000000001,
          "velocity": 0.7480314960629921,
          "duration": 0.1875
        },
        {
          "name": "A4",
          "midi": 69,
          "time": 51.900000000000006,
          "velocity": 0.7086614173228346,
          "duration": 0.1875
        },
        {
          "name": "A#4",
          "midi": 70,
          "time": 52.2,
          "velocity": 0.7874015748031497,
          "duration": 0.29999999999999716
        },
        {
          "name": "G4",
          "midi": 67,
          "time": 52.5,
          "velocity": 0.7480314960629921,
          "duration": 0.29999999999999716
        },
        {
          "name": "E4",
          "midi": 64,
          "time": 52.8,
          "velocity": 0.7874015748031497,
          "duration": 0.1875
        },
        {
          "name": "C5",
          "midi": 72,
          "time": 53.099999999999994,
          "velocity": 0.7480314960629921,
          "duration": 0.1875
        },
        {
          "name": "B4",
          "midi": 71,
          "time": 53.39999999999999,
          "velocity": 0.7480314960629921,
          "duration": 0.1875
        },
        {
          "name": "C5",
          "midi": 72,
          "time": 53.69999999999999,
          "velocity": 0.7086614173228346,
          "duration": 0.1875
        },
        {
          "name": "A4",
          "midi": 69,
          "time": 53.999999999999986,
          "velocity": 0.7874015748031497,
          "duration": 0.29999999999999716
        },
        {
          "name": "C5",
          "midi": 72,
          "time": 54.29999999999998,
          "velocity": 0.7480314960629921,
          "duration": 0.1875
        },
        {
          "name": "F4",
          "midi": 65,
          "time": 54.59999999999998,
          "velocity": 0.7874015748031497,
          "duration": 0.29999999999999716
        },
        {
          "name": "A4",
          "midi": 69,
          "time": 54.89999999999998,
          "velocity": 0.7480314960629921,
          "duration": 0.1875
        },
        {
          "name": "C4",
          "midi": 60,
          "time": 55.199999999999974,
          "velocity": 0.7480314960629921,
          "duration": 0.1875
        },
        {
          "name": "C5",
          "midi": 72,
          "time": 55.49999999999997,
          "velocity": 0.7086614173228346,
          "duration": 0.1875
        },
        {
          "name": "D5",
          "midi": 74,
          "time": 55.79999999999997,
          "velocity": 0.7874015748031497,
          "duration": 0.29999999999999716
        },
        {
          "name": "F5",
          "midi": 77,
          "time": 56.099999999999966,
          "velocity": 0.7480314960629921,
          "duration": 0.1875
        },
        {
          "name": "A#4",
          "midi": 70,
          "time": 56.39999999999996,
          "velocity": 0.7874015748031497,
          "duration": 0.29999999999999716
        },
        {
          "name": "D5",
          "midi": 74,
          "time": 56.69999999999996,
          "velocity": 0.7480314960629921,
          "duration": 0.1875
        },
        {
          "name": "G4",
          "midi": 67,
          "time": 56.99999999999996,
          "velocity": 0.7480314960629921,
          "duration": 0.1875
        },
        {
          "name": "A#4",
          "midi": 70,
          "time": 57.299999999999955,
          "velocity": 0.7086614173228346,
          "duration": 0.1875
        },
        {
          "name": "E4",
          "midi": 64,
          "time": 57.59999999999995,
          "velocity": 0.7874015748031497,
          "duration": 0.29999999999999716
        },
        {
          "name": "G4",
          "midi": 67,
          "time": 57.89999999999995,
          "velocity": 0.7480314960629921,
          "duration": 0.1875
        },
        {
          "name": "C4",
          "midi": 60,
          "time": 58.199999999999946,
          "velocity": 0.7874015748031497,
          "duration": 0.2875000000000014
        },
        {
          "name": "D4",
          "midi": 62,
          "time": 58.49999999999995,
          "velocity": 0.7480314960629921,
          "duration": 0.2875000000000014
        },
        {
          "name": "D#4",
          "midi": 63,
          "time": 58.799999999999955,
          "velocity": 0.7480314960629921,
          "duration": 0.2875000000000014
        },
        {
          "name": "E4",
          "midi": 64,
          "time": 59.09999999999996,
          "velocity": 0.7086614173228346,
          "duration": 0.2875000000000014
        },
        {
          "name": "G4",
          "midi": 67,
          "time": 59.39999999999996,
          "velocity": 0.7086614173228346,
          "duration": 0.6000000000000014
        },
        {
          "name": "F4",
          "midi": 65,
          "time": 59.999999999999964,
          "velocity": 0.5905511811023622,
          "duration": 0.29999999999999716
        },
        {
          "name": "A4",
          "midi": 69,
          "time": 60.59999999999996,
          "velocity": 0.7874015748031497,
          "duration": 0.45000000000000284
        },
        {
          "name": "A#4",
          "midi": 70,
          "time": 61.04999999999996,
          "velocity": 0.7480314960629921,
          "duration": 0.13750000000000284
        },
        {
          "name": "C5",
          "midi": 72,
          "time": 61.19999999999997,
          "velocity": 0.7874015748031497,
          "duration": 0.45000000000000284
        },
        {
          "name": "B4",
          "midi": 71,
          "time": 61.64999999999997,
          "velocity": 0.7480314960629921,
          "duration": 0.13750000000000284
        },
        {
          "name": "C5",
          "midi": 72,
          "time": 61.799999999999976,
          "velocity": 0.7874015748031497,
          "duration": 0.45000000000000284
        },
        {
          "name": "B4",
          "midi": 71,
          "time": 62.24999999999998,
          "velocity": 0.7480314960629921,
          "duration": 0.13750000000000284
        },
        {
          "name": "C5",
          "midi": 72,
          "time": 62.399999999999984,
          "velocity": 0.7874015748031497,
          "duration": 0.45000000000000284
        },
        {
          "name": "B4",
          "midi": 71,
          "time": 62.84999999999999,
          "velocity": 0.7480314960629921,
          "duration": 0.13750000000000284
        },
        {
          "name": "C5",
          "midi": 72,
          "time": 62.99999999999999,
          "velocity": 0.8267716535433071,
          "duration": 1.062500000000007
        },
        {
          "name": "D5",
          "midi": 74,
          "time": 64.2,
          "velocity": 0.7874015748031497,
          "duration": 0.45000000000000284
        },
        {
          "name": "A4",
          "midi": 69,
          "time": 64.65,
          "velocity": 0.7480314960629921,
          "duration": 0.13750000000000284
        },
        {
          "name": "A#4",
          "midi": 70,
          "time": 64.80000000000001,
          "velocity": 0.7874015748031497,
          "duration": 1.0625
        },
        {
          "name": "C5",
          "midi": 72,
          "time": 66.00000000000001,
          "velocity": 0.7480314960629921,
          "duration": 0.45000000000000284
        },
        {
          "name": "G4",
          "midi": 67,
          "time": 66.45000000000002,
          "velocity": 0.7086614173228346,
          "duration": 0.13750000000000284
        },
        {
          "name": "A4",
          "midi": 69,
          "time": 66.60000000000002,
          "velocity": 0.5905511811023622,
          "duration": 1.0625
        },
        {
          "name": "F4",
          "midi": 65,
          "time": 67.80000000000003,
          "velocity": 0.7874015748031497,
          "duration": 0.45000000000000284
        },
        {
          "name": "G4",
          "midi": 67,
          "time": 68.25000000000003,
          "velocity": 0.7480314960629921,
          "duration": 0.13750000000000284
        },
        {
          "name": "A4",
          "midi": 69,
          "time": 68.40000000000003,
          "velocity": 0.7874015748031497,
          "duration": 0.45000000000000284
        },
        {
          "name": "G#4",
          "midi": 68,
          "time": 68.85000000000004,
          "velocity": 0.7480314960629921,
          "duration": 0.13750000000000284
        },
        {
          "name": "A4",
          "midi": 69,
          "time": 69.00000000000004,
          "velocity": 0.7874015748031497,
          "duration": 0.45000000000000284
        },
        {
          "name": "G#4",
          "midi": 68,
          "time": 69.45000000000005,
          "velocity": 0.7480314960629921,
          "duration": 0.13750000000000284
        },
        {
          "name": "A4",
          "midi": 69,
          "time": 69.60000000000005,
          "velocity": 0.7874015748031497,
          "duration": 0.45000000000000284
        },
        {
          "name": "G#4",
          "midi": 68,
          "time": 70.05000000000005,
          "velocity": 0.7480314960629921,
          "duration": 0.13750000000000284
        },
        {
          "name": "A4",
          "midi": 69,
          "time": 70.20000000000006,
          "velocity": 0.8267716535433071,
          "duration": 1.0625
        },
        {
          "name": "G4",
          "midi": 67,
          "time": 71.40000000000006,
          "velocity": 0.7874015748031497,
          "duration": 0.29999999999999716
        },
        {
          "name": "F4",
          "midi": 65,
          "time": 71.70000000000006,
          "velocity": 0.7480314960629921,
          "duration": 0.2874999999999943
        },
        {
          "name": "F4",
          "midi": 65,
          "time": 72.00000000000006,
          "velocity": 0.7874015748031497,
          "duration": 0.29999999999999716
        },
        {
          "name": "E4",
          "midi": 64,
          "time": 72.30000000000005,
          "velocity": 0.7480314960629921,
          "duration": 0.2874999999999943
        },
        {
          "name": "E4",
          "midi": 64,
          "time": 72.60000000000005,
          "velocity": 0.7874015748031497,
          "duration": 0.29999999999999716
        },
        {
          "name": "G4",
          "midi": 67,
          "time": 72.90000000000005,
          "velocity": 0.7480314960629921,
          "duration": 0.2874999999999943
        },
        {
          "name": "F4",
          "midi": 65,
          "time": 73.20000000000005,
          "velocity": 0.7086614173228346,
          "duration": 0.29999999999999716
        },
        {
          "name": "D4",
          "midi": 62,
          "time": 73.50000000000004,
          "velocity": 0.6692913385826772,
          "duration": 0.2874999999999943
        },
        {
          "name": "C4",
          "midi": 60,
          "time": 73.80000000000004,
          "velocity": 0.5511811023622047,
          "duration": 0.5999999999999943
        },
        {
          "name": "C5",
          "midi": 72,
          "time": 75.00000000000003,
          "velocity": 0.7874015748031497,
          "duration": 0.29999999999999716
        },
        {
          "name": "F5",
          "midi": 77,
          "time": 75.30000000000003,
          "velocity": 0.7480314960629921,
          "duration": 0.29999999999999716
        },
        {
          "name": "F5",
          "midi": 77,
          "time": 75.60000000000002,
          "velocity": 0.7874015748031497,
          "duration": 0.5999999999999943
        },
        {
          "name": "E5",
          "midi": 76,
          "time": 76.20000000000002,
          "velocity": 0.7480314960629921,
          "duration": 0.5999999999999943
        },
        {
          "name": "F5",
          "midi": 77,
          "time": 76.80000000000001,
          "velocity": 0.7480314960629921,
          "duration": 0.5999999999999943
        },
        {
          "name": "G5",
          "midi": 79,
          "time": 77.4,
          "velocity": 0.8267716535433071,
          "duration": 1.0625
        },
        {
          "name": "F5",
          "midi": 77,
          "time": 78.60000000000001,
          "velocity": 0.7874015748031497,
          "duration": 0.15000000000000568
        },
        {
          "name": "E5",
          "midi": 76,
          "time": 78.75000000000001,
          "velocity": 0.7480314960629921,
          "duration": 0.15000000000000568
        },
        {
          "name": "D5",
          "midi": 74,
          "time": 78.90000000000002,
          "velocity": 0.7480314960629921,
          "duration": 0.15000000000000568
        },
        {
          "name": "C5",
          "midi": 72,
          "time": 79.05000000000003,
          "velocity": 0.7086614173228346,
          "duration": 0.15000000000000568
        },
        {
          "name": "A#4",
          "midi": 70,
          "time": 79.20000000000003,
          "velocity": 0.7874015748031497,
          "duration": 0.5999999999999943
        },
        {
          "name": "A4",
          "midi": 69,
          "time": 79.80000000000003,
          "velocity": 0.7480314960629921,
          "duration": 0.29999999999999716
        },
        {
          "name": "D5",
          "midi": 74,
          "time": 80.40000000000002,
          "velocity": 0.7874015748031497,
          "duration": 0.45000000000000284
        },
        {
          "name": "A#4",
          "midi": 70,
          "time": 80.85000000000002,
          "velocity": 0.7480314960629921,
          "duration": 0.13750000000000284
        },
        {
          "name": "A4",
          "midi": 69,
          "time": 81.00000000000003,
          "velocity": 0.7480314960629921,
          "duration": 0.5999999999999943
        },
        {
          "name": "G4",
          "midi": 67,
          "time": 81.60000000000002,
          "velocity": 0.7086614173228346,
          "duration": 0.29999999999999716
        },
        {
          "name": "F4",
          "midi": 65,
          "time": 82.20000000000002,
          "velocity": 0.7874015748031497,
          "duration": 0.45000000000000284
        },
        {
          "name": "G4",
          "midi": 67,
          "time": 82.65000000000002,
          "velocity": 0.7480314960629921,
          "duration": 0.15000000000000568
        },
        {
          "name": "A4",
          "midi": 69,
          "time": 82.80000000000003,
          "velocity": 0.7874015748031497,
          "duration": 0.45000000000000284
        },
        {
          "name": "G#4",
          "midi": 68,
          "time": 83.25000000000003,
          "velocity": 0.7480314960629921,
          "duration": 0.13750000000000284
        },
        {
          "name": "A4",
          "midi": 69,
          "time": 83.40000000000003,
          "velocity": 0.7874015748031497,
          "duration": 0.45000000000000284
        },
        {
          "name": "G#4",
          "midi": 68,
          "time": 83.85000000000004,
          "velocity": 0.7480314960629921,
          "duration": 0.13750000000000284
        },
        {
          "name": "A4",
          "midi": 69,
          "time": 84.00000000000004,
          "velocity": 0.7874015748031497,
          "duration": 0.45000000000000284
        },
        {
          "name": "G#4",
          "midi": 68,
          "time": 84.45000000000005,
          "velocity": 0.7480314960629921,
          "duration": 0.13750000000000284
        },
        {
          "name": "A4",
          "midi": 69,
          "time": 84.60000000000005,
          "velocity": 0.8267716535433071,
          "duration": 1.0625
        },
        {
          "name": "A#4",
          "midi": 70,
          "time": 85.80000000000005,
          "velocity": 0.7874015748031497,
          "duration": 0.45000000000000284
        },
        {
          "name": "F#4",
          "midi": 66,
          "time": 86.25000000000006,
          "velocity": 0.7480314960629921,
          "duration": 0.13750000000000284
        },
        {
          "name": "G4",
          "midi": 67,
          "time": 86.40000000000006,
          "velocity": 0.7480314960629921,
          "duration": 1.0625
        },
        {
          "name": "A4",
          "midi": 69,
          "time": 87.60000000000007,
          "velocity": 0.7086614173228346,
          "duration": 0.45000000000000284
        },
        {
          "name": "E4",
          "midi": 64,
          "time": 88.05000000000007,
          "velocity": 0.6692913385826772,
          "duration": 0.13750000000000284
        },
        {
          "name": "F4",
          "midi": 65,
          "time": 88.20000000000007,
          "velocity": 0.5511811023622047,
          "duration": 0.5999999999999943
        }
      ],
      "controlChanges": {
        "6": [
          {
            "number": 6,
            "time": 1.3374999999999995,
            "value": 0.09448818897637795
          }
        ],
        "7": [
          {
            "number": 7,
            "time": 1.2374999999999998,
            "value": 0.7874015748031497
          }
        ],
        "10": [
          {
            "number": 10,
            "time": 1.2624999999999997,
            "value": 0.5039370078740157
          }
        ],
        "11": [
          {
            "number": 11,
            "time": 1.2499999999999998,
            "value": 0.8661417322834646
          },
          {
            "number": 11,
            "time": 2.9999999999999996,
            "value": 0.47244094488188976
          },
          {
            "number": 11,
            "time": 3.0124999999999997,
            "value": 0.5433070866141733
          },
          {
            "number": 11,
            "time": 3.025,
            "value": 0.5905511811023622
          },
          {
            "number": 11,
            "time": 3.0375,
            "value": 0.6299212598425197
          },
          {
            "number": 11,
            "time": 3.0500000000000003,
            "value": 0.6692913385826772
          },
          {
            "number": 11,
            "time": 3.0625000000000004,
            "value": 0.6929133858267716
          },
          {
            "number": 11,
            "time": 3.0750000000000006,
            "value": 0.7165354330708661
          },
          {
            "number": 11,
            "time": 3.087500000000001,
            "value": 0.7401574803149606
          },
          {
            "number": 11,
            "time": 3.100000000000001,
            "value": 0.7637795275590551
          },
          {
            "number": 11,
            "time": 3.112500000000001,
            "value": 0.7795275590551181
          },
          {
            "number": 11,
            "time": 3.1250000000000013,
            "value": 0.7952755905511811
          },
          {
            "number": 11,
            "time": 3.1375000000000015,
            "value": 0.8031496062992126
          },
          {
            "number": 11,
            "time": 3.1500000000000017,
            "value": 0.8110236220472441
          },
          {
            "number": 11,
            "time": 3.162500000000002,
            "value": 0.8188976377952756
          },
          {
            "number": 11,
            "time": 3.175000000000002,
            "value": 0.8267716535433071
          },
          {
            "number": 11,
            "time": 3.187500000000002,
            "value": 0.8346456692913385
          },
          {
            "number": 11,
            "time": 3.2000000000000024,
            "value": 0.84251968503937
          },
          {
            "number": 11,
            "time": 3.2250000000000023,
            "value": 0.8503937007874016
          },
          {
            "number": 11,
            "time": 3.250000000000002,
            "value": 0.8582677165354331
          },
          {
            "number": 11,
            "time": 3.300000000000002,
            "value": 0.8661417322834646
          }
        ],
        "32": [
          {
            "number": 32,
            "time": 1.2125,
            "value": 0
          }
        ],
        "91": [
          {
            "number": 91,
            "time": 1.2749999999999997,
            "value": 0.7874015748031497
          }
        ],
        "93": [
          {
            "number": 93,
            "time": 1.2874999999999996,
            "value": 0
          }
        ],
        "94": [
          {
            "number": 94,
            "time": 1.2999999999999996,
            "value": 0
          }
        ],
        "100": [
          {
            "number": 100,
            "time": 1.3249999999999995,
            "value": 0
          }
        ],
        "101": [
          {
            "number": 101,
            "time": 1.3124999999999996,
            "value": 0
          }
        ]
      },
      "id": 2,
      "name": "Melody                              ",
      "instrumentNumber": 40,
      "instrument": "violin",
      "instrumentFamily": "strings",
      "channelNumber": 1,
      "isPercussion": false
    },
    {
      "startTime": 2.9999999999999996,
      "duration": 88.80000000000008,
      "length": 118,
      "notes": [
        {
          "name": "F4",
          "midi": 65,
          "time": 2.9999999999999996,
          "velocity": 0.7874015748031497,
          "duration": 0.4500000000000024
        },
        {
          "name": "G4",
          "midi": 67,
          "time": 3.450000000000002,
          "velocity": 0.7480314960629921,
          "duration": 0.13750000000000018
        },
        {
          "name": "A4",
          "midi": 69,
          "time": 3.6000000000000023,
          "velocity": 0.7874015748031497,
          "duration": 0.4500000000000002
        },
        {
          "name": "G#4",
          "midi": 68,
          "time": 4.0500000000000025,
          "velocity": 0.7480314960629921,
          "duration": 0.13750000000000018
        },
        {
          "name": "A4",
          "midi": 69,
          "time": 4.200000000000003,
          "velocity": 0.7874015748031497,
          "duration": 0.4500000000000002
        },
        {
          "name": "G#4",
          "midi": 68,
          "time": 4.650000000000003,
          "velocity": 0.7480314960629921,
          "duration": 0.13750000000000018
        },
        {
          "name": "A4",
          "midi": 69,
          "time": 4.800000000000003,
          "velocity": 0.7874015748031497,
          "duration": 0.4500000000000002
        },
        {
          "name": "G#4",
          "midi": 68,
          "time": 5.2500000000000036,
          "velocity": 0.7480314960629921,
          "duration": 0.13750000000000018
        },
        {
          "name": "A4",
          "midi": 69,
          "time": 5.400000000000004,
          "velocity": 0.7086614173228346,
          "duration": 1.0625
        },
        {
          "name": "A#4",
          "midi": 70,
          "time": 6.600000000000004,
          "velocity": 0.7874015748031497,
          "duration": 0.4500000000000002
        },
        {
          "name": "F#4",
          "midi": 66,
          "time": 7.050000000000004,
          "velocity": 0.7480314960629921,
          "duration": 0.13750000000000018
        },
        {
          "name": "G4",
          "midi": 67,
          "time": 7.200000000000005,
          "velocity": 0.7086614173228346,
          "duration": 1.0625
        },
        {
          "name": "A4",
          "midi": 69,
          "time": 8.400000000000004,
          "velocity": 0.7480314960629921,
          "duration": 0.4499999999999993
        },
        {
          "name": "E4",
          "midi": 64,
          "time": 8.850000000000003,
          "velocity": 0.7086614173228346,
          "duration": 0.1374999999999993
        },
        {
          "name": "F4",
          "midi": 65,
          "time": 9.000000000000002,
          "velocity": 0.6299212598425197,
          "duration": 1.0625
        },
        {
          "name": "A3",
          "midi": 57,
          "time": 10.200000000000001,
          "velocity": 0.7874015748031497,
          "duration": 0.4499999999999993
        },
        {
          "name": "C4",
          "midi": 60,
          "time": 10.65,
          "velocity": 0.7480314960629921,
          "duration": 0.1374999999999993
        },
        {
          "name": "F4",
          "midi": 65,
          "time": 10.799999999999999,
          "velocity": 0.7874015748031497,
          "duration": 0.4499999999999993
        },
        {
          "name": "E4",
          "midi": 64,
          "time": 11.249999999999998,
          "velocity": 0.7480314960629921,
          "duration": 0.1374999999999993
        },
        {
          "name": "F4",
          "midi": 65,
          "time": 11.399999999999997,
          "velocity": 0.7874015748031497,
          "duration": 0.4499999999999993
        },
        {
          "name": "E4",
          "midi": 64,
          "time": 11.849999999999996,
          "velocity": 0.7480314960629921,
          "duration": 0.1374999999999993
        },
        {
          "name": "F4",
          "midi": 65,
          "time": 11.999999999999995,
          "velocity": 0.7874015748031497,
          "duration": 0.4499999999999993
        },
        {
          "name": "E4",
          "midi": 64,
          "time": 12.449999999999994,
          "velocity": 0.7480314960629921,
          "duration": 0.1374999999999993
        },
        {
          "name": "F4",
          "midi": 65,
          "time": 12.599999999999993,
          "velocity": 0.7086614173228346,
          "duration": 1.0625
        },
        {
          "name": "E4",
          "midi": 64,
          "time": 13.799999999999992,
          "velocity": 0.7874015748031497,
          "duration": 0.3000000000000007
        },
        {
          "name": "D4",
          "midi": 62,
          "time": 14.099999999999993,
          "velocity": 0.7480314960629921,
          "duration": 0.3000000000000007
        },
        {
          "name": "D4",
          "midi": 62,
          "time": 14.399999999999993,
          "velocity": 0.7874015748031497,
          "duration": 0.3000000000000007
        },
        {
          "name": "C4",
          "midi": 60,
          "time": 14.699999999999994,
          "velocity": 0.7480314960629921,
          "duration": 0.3000000000000007
        },
        {
          "name": "C4",
          "midi": 60,
          "time": 14.999999999999995,
          "velocity": 0.7874015748031497,
          "duration": 0.3000000000000007
        },
        {
          "name": "E4",
          "midi": 64,
          "time": 15.299999999999995,
          "velocity": 0.7480314960629921,
          "duration": 0.3000000000000007
        },
        {
          "name": "D4",
          "midi": 62,
          "time": 15.599999999999996,
          "velocity": 0.7480314960629921,
          "duration": 0.3000000000000007
        },
        {
          "name": "B3",
          "midi": 59,
          "time": 15.899999999999997,
          "velocity": 0.7086614173228346,
          "duration": 0.29999999999999893
        },
        {
          "name": "C4",
          "midi": 60,
          "time": 16.199999999999996,
          "velocity": 0.6299212598425197,
          "duration": 0.6000000000000014
        },
        {
          "name": "C5",
          "midi": 72,
          "time": 17.999999999999996,
          "velocity": 0.7874015748031497,
          "duration": 0.6000000000000014
        },
        {
          "name": "A#4",
          "midi": 70,
          "time": 18.599999999999998,
          "velocity": 0.7480314960629921,
          "duration": 0.6000000000000014
        },
        {
          "name": "A4",
          "midi": 69,
          "time": 19.2,
          "velocity": 0.7086614173228346,
          "duration": 0.6000000000000014
        },
        {
          "name": "G4",
          "midi": 67,
          "time": 19.8,
          "velocity": 0.7874015748031497,
          "duration": 1.0625
        },
        {
          "name": "C4",
          "midi": 60,
          "time": 21,
          "velocity": 0.7086614173228346,
          "duration": 0.6000000000000014
        },
        {
          "name": "G4",
          "midi": 67,
          "time": 21.6,
          "velocity": 0.7874015748031497,
          "duration": 0.6000000000000014
        },
        {
          "name": "F4",
          "midi": 65,
          "time": 22.200000000000003,
          "velocity": 0.7480314960629921,
          "duration": 0.6000000000000014
        },
        {
          "name": "A#4",
          "midi": 70,
          "time": 22.800000000000004,
          "velocity": 0.7480314960629921,
          "duration": 0.4499999999999993
        },
        {
          "name": "G4",
          "midi": 67,
          "time": 23.250000000000004,
          "velocity": 0.7086614173228346,
          "duration": 0.1374999999999993
        },
        {
          "name": "F4",
          "midi": 65,
          "time": 23.400000000000002,
          "velocity": 0.7874015748031497,
          "duration": 0.6000000000000014
        },
        {
          "name": "E4",
          "midi": 64,
          "time": 24.000000000000004,
          "velocity": 0.7086614173228346,
          "duration": 0.3000000000000007
        },
        {
          "name": "A3",
          "midi": 57,
          "time": 24.600000000000005,
          "velocity": 0.7874015748031497,
          "duration": 0.4499999999999993
        },
        {
          "name": "A#3",
          "midi": 58,
          "time": 25.050000000000004,
          "velocity": 0.7480314960629921,
          "duration": 0.1374999999999993
        },
        {
          "name": "C4",
          "midi": 60,
          "time": 25.200000000000003,
          "velocity": 0.7874015748031497,
          "duration": 0.4499999999999993
        },
        {
          "name": "B3",
          "midi": 59,
          "time": 25.650000000000002,
          "velocity": 0.7480314960629921,
          "duration": 0.1374999999999993
        },
        {
          "name": "C4",
          "midi": 60,
          "time": 25.8,
          "velocity": 0.7874015748031497,
          "duration": 0.4499999999999993
        },
        {
          "name": "B3",
          "midi": 59,
          "time": 26.25,
          "velocity": 0.7480314960629921,
          "duration": 0.1374999999999993
        },
        {
          "name": "C4",
          "midi": 60,
          "time": 26.4,
          "velocity": 0.7874015748031497,
          "duration": 0.4499999999999993
        },
        {
          "name": "B3",
          "midi": 59,
          "time": 26.849999999999998,
          "velocity": 0.7480314960629921,
          "duration": 0.1374999999999993
        },
        {
          "name": "C4",
          "midi": 60,
          "time": 26.999999999999996,
          "velocity": 0.7086614173228346,
          "duration": 1.0625
        },
        {
          "name": "D4",
          "midi": 62,
          "time": 28.199999999999996,
          "velocity": 0.7874015748031497,
          "duration": 0.4499999999999993
        },
        {
          "name": "C4",
          "midi": 60,
          "time": 28.649999999999995,
          "velocity": 0.7480314960629921,
          "duration": 0.1374999999999993
        },
        {
          "name": "A#3",
          "midi": 58,
          "time": 28.799999999999994,
          "velocity": 0.7086614173228346,
          "duration": 1.0625
        },
        {
          "name": "C4",
          "midi": 60,
          "time": 29.999999999999993,
          "velocity": 0.7480314960629921,
          "duration": 0.4499999999999993
        },
        {
          "name": "A#3",
          "midi": 58,
          "time": 30.449999999999992,
          "velocity": 0.6692913385826772,
          "duration": 0.1374999999999993
        },
        {
          "name": "A3",
          "midi": 57,
          "time": 30.59999999999999,
          "velocity": 0.5511811023622047,
          "duration": 0.6000000000000014
        },
        {
          "name": "F4",
          "midi": 65,
          "time": 60.599999999999994,
          "velocity": 0.7874015748031497,
          "duration": 0.45000000000000284
        },
        {
          "name": "G4",
          "midi": 67,
          "time": 61.05,
          "velocity": 0.7480314960629921,
          "duration": 0.13750000000000284
        },
        {
          "name": "A4",
          "midi": 69,
          "time": 61.2,
          "velocity": 0.7874015748031497,
          "duration": 0.45000000000000284
        },
        {
          "name": "G#4",
          "midi": 68,
          "time": 61.650000000000006,
          "velocity": 0.7480314960629921,
          "duration": 0.13750000000000284
        },
        {
          "name": "A4",
          "midi": 69,
          "time": 61.80000000000001,
          "velocity": 0.7874015748031497,
          "duration": 0.45000000000000284
        },
        {
          "name": "G#4",
          "midi": 68,
          "time": 62.250000000000014,
          "velocity": 0.7480314960629921,
          "duration": 0.13750000000000284
        },
        {
          "name": "A4",
          "midi": 69,
          "time": 62.40000000000002,
          "velocity": 0.7874015748031497,
          "duration": 0.45000000000000284
        },
        {
          "name": "G#4",
          "midi": 68,
          "time": 62.85000000000002,
          "velocity": 0.7480314960629921,
          "duration": 0.13750000000000284
        },
        {
          "name": "A4",
          "midi": 69,
          "time": 63.00000000000003,
          "velocity": 0.7086614173228346,
          "duration": 1.0625
        },
        {
          "name": "A#4",
          "midi": 70,
          "time": 64.20000000000003,
          "velocity": 0.7874015748031497,
          "duration": 0.45000000000000284
        },
        {
          "name": "F#4",
          "midi": 66,
          "time": 64.65000000000003,
          "velocity": 0.7480314960629921,
          "duration": 0.13750000000000284
        },
        {
          "name": "G4",
          "midi": 67,
          "time": 64.80000000000004,
          "velocity": 0.7086614173228346,
          "duration": 1.0625
        },
        {
          "name": "A4",
          "midi": 69,
          "time": 66.00000000000004,
          "velocity": 0.7480314960629921,
          "duration": 0.45000000000000284
        },
        {
          "name": "E4",
          "midi": 64,
          "time": 66.45000000000005,
          "velocity": 0.6692913385826772,
          "duration": 0.13750000000000284
        },
        {
          "name": "F4",
          "midi": 65,
          "time": 66.60000000000005,
          "velocity": 0.6299212598425197,
          "duration": 1.0625
        },
        {
          "name": "A3",
          "midi": 57,
          "time": 67.80000000000005,
          "velocity": 0.7874015748031497,
          "duration": 0.45000000000000284
        },
        {
          "name": "C4",
          "midi": 60,
          "time": 68.25000000000006,
          "velocity": 0.7480314960629921,
          "duration": 0.13750000000000284
        },
        {
          "name": "F4",
          "midi": 65,
          "time": 68.40000000000006,
          "velocity": 0.7874015748031497,
          "duration": 0.45000000000000284
        },
        {
          "name": "E4",
          "midi": 64,
          "time": 68.85000000000007,
          "velocity": 0.7480314960629921,
          "duration": 0.13750000000000284
        },
        {
          "name": "F4",
          "midi": 65,
          "time": 69.00000000000007,
          "velocity": 0.7874015748031497,
          "duration": 0.45000000000000284
        },
        {
          "name": "E4",
          "midi": 64,
          "time": 69.45000000000007,
          "velocity": 0.7480314960629921,
          "duration": 0.13750000000000284
        },
        {
          "name": "F4",
          "midi": 65,
          "time": 69.60000000000008,
          "velocity": 0.7874015748031497,
          "duration": 0.45000000000000284
        },
        {
          "name": "E4",
          "midi": 64,
          "time": 70.05000000000008,
          "velocity": 0.7480314960629921,
          "duration": 0.13750000000000284
        },
        {
          "name": "F4",
          "midi": 65,
          "time": 70.20000000000009,
          "velocity": 0.7086614173228346,
          "duration": 1.0625
        },
        {
          "name": "E4",
          "midi": 64,
          "time": 71.40000000000009,
          "velocity": 0.7874015748031497,
          "duration": 0.29999999999999716
        },
        {
          "name": "D4",
          "midi": 62,
          "time": 71.70000000000009,
          "velocity": 0.7480314960629921,
          "duration": 0.29999999999999716
        },
        {
          "name": "D4",
          "midi": 62,
          "time": 72.00000000000009,
          "velocity": 0.7874015748031497,
          "duration": 0.29999999999999716
        },
        {
          "name": "C4",
          "midi": 60,
          "time": 72.30000000000008,
          "velocity": 0.7480314960629921,
          "duration": 0.29999999999999716
        },
        {
          "name": "C4",
          "midi": 60,
          "time": 72.60000000000008,
          "velocity": 0.7874015748031497,
          "duration": 0.29999999999999716
        },
        {
          "name": "E4",
          "midi": 64,
          "time": 72.90000000000008,
          "velocity": 0.7480314960629921,
          "duration": 0.29999999999999716
        },
        {
          "name": "D4",
          "midi": 62,
          "time": 73.20000000000007,
          "velocity": 0.7480314960629921,
          "duration": 0.29999999999999716
        },
        {
          "name": "B3",
          "midi": 59,
          "time": 73.50000000000007,
          "velocity": 0.6692913385826772,
          "duration": 0.29999999999999716
        },
        {
          "name": "C4",
          "midi": 60,
          "time": 73.80000000000007,
          "velocity": 0.6299212598425197,
          "duration": 0.5999999999999943
        },
        {
          "name": "C5",
          "midi": 72,
          "time": 75.60000000000007,
          "velocity": 0.7874015748031497,
          "duration": 0.5999999999999943
        },
        {
          "name": "A#4",
          "midi": 70,
          "time": 76.20000000000006,
          "velocity": 0.7480314960629921,
          "duration": 0.5999999999999943
        },
        {
          "name": "A4",
          "midi": 69,
          "time": 76.80000000000005,
          "velocity": 0.7086614173228346,
          "duration": 0.5999999999999943
        },
        {
          "name": "G4",
          "midi": 67,
          "time": 77.40000000000005,
          "velocity": 0.7874015748031497,
          "duration": 1.0625
        },
        {
          "name": "C4",
          "midi": 60,
          "time": 78.60000000000005,
          "velocity": 0.7086614173228346,
          "duration": 0.5999999999999943
        },
        {
          "name": "G4",
          "midi": 67,
          "time": 79.20000000000005,
          "velocity": 0.7874015748031497,
          "duration": 0.5999999999999943
        },
        {
          "name": "F4",
          "midi": 65,
          "time": 79.80000000000004,
          "velocity": 0.7480314960629921,
          "duration": 0.5999999999999943
        },
        {
          "name": "A#4",
          "midi": 70,
          "time": 80.40000000000003,
          "velocity": 0.7480314960629921,
          "duration": 0.45000000000000284
        },
        {
          "name": "G4",
          "midi": 67,
          "time": 80.85000000000004,
          "velocity": 0.7086614173228346,
          "duration": 0.13750000000000284
        },
        {
          "name": "F4",
          "midi": 65,
          "time": 81.00000000000004,
          "velocity": 0.7874015748031497,
          "duration": 0.5999999999999943
        },
        {
          "name": "E4",
          "midi": 64,
          "time": 81.60000000000004,
          "velocity": 0.7086614173228346,
          "duration": 0.29999999999999716
        },
        {
          "name": "A3",
          "midi": 57,
          "time": 82.20000000000003,
          "velocity": 0.7874015748031497,
          "duration": 0.45000000000000284
        },
        {
          "name": "A#3",
          "midi": 58,
          "time": 82.65000000000003,
          "velocity": 0.7480314960629921,
          "duration": 0.13750000000000284
        },
        {
          "name": "C4",
          "midi": 60,
          "time": 82.80000000000004,
          "velocity": 0.7874015748031497,
          "duration": 0.45000000000000284
        },
        {
          "name": "B3",
          "midi": 59,
          "time": 83.25000000000004,
          "velocity": 0.7480314960629921,
          "duration": 0.13750000000000284
        },
        {
          "name": "C4",
          "midi": 60,
          "time": 83.40000000000005,
          "velocity": 0.7874015748031497,
          "duration": 0.45000000000000284
        },
        {
          "name": "B3",
          "midi": 59,
          "time": 83.85000000000005,
          "velocity": 0.7480314960629921,
          "duration": 0.13750000000000284
        },
        {
          "name": "C4",
          "midi": 60,
          "time": 84.00000000000006,
          "velocity": 0.7874015748031497,
          "duration": 0.45000000000000284
        },
        {
          "name": "B3",
          "midi": 59,
          "time": 84.45000000000006,
          "velocity": 0.7480314960629921,
          "duration": 0.13750000000000284
        },
        {
          "name": "C4",
          "midi": 60,
          "time": 84.60000000000007,
          "velocity": 0.7086614173228346,
          "duration": 1.0625
        },
        {
          "name": "D4",
          "midi": 62,
          "time": 85.80000000000007,
          "velocity": 0.7874015748031497,
          "duration": 0.45000000000000284
        },
        {
          "name": "C4",
          "midi": 60,
          "time": 86.25000000000007,
          "velocity": 0.7480314960629921,
          "duration": 0.13750000000000284
        },
        {
          "name": "A#3",
          "midi": 58,
          "time": 86.40000000000008,
          "velocity": 0.7086614173228346,
          "duration": 1.0625
        },
        {
          "name": "C4",
          "midi": 60,
          "time": 87.60000000000008,
          "velocity": 0.7480314960629921,
          "duration": 0.45000000000000284
        },
        {
          "name": "A#3",
          "midi": 58,
          "time": 88.05000000000008,
          "velocity": 0.6692913385826772,
          "duration": 0.13750000000000284
        },
        {
          "name": "A3",
          "midi": 57,
          "time": 88.20000000000009,
          "velocity": 0.5511811023622047,
          "duration": 0.5999999999999943
        }
      ],
      "controlChanges": {
        "6": [
          {
            "number": 6,
            "time": 1.3499999999999996,
            "value": 0.09448818897637795
          }
        ],
        "7": [
          {
            "number": 7,
            "time": 1.25,
            "value": 0.6692913385826772
          }
        ],
        "10": [
          {
            "number": 10,
            "time": 1.275,
            "value": 0.5905511811023622
          }
        ],
        "11": [
          {
            "number": 11,
            "time": 1.2625,
            "value": 0.8661417322834646
          },
          {
            "number": 11,
            "time": 2.9999999999999996,
            "value": 0.47244094488188976
          },
          {
            "number": 11,
            "time": 3.0124999999999997,
            "value": 0.5433070866141733
          },
          {
            "number": 11,
            "time": 3.025,
            "value": 0.5905511811023622
          },
          {
            "number": 11,
            "time": 3.0375,
            "value": 0.6299212598425197
          },
          {
            "number": 11,
            "time": 3.0500000000000003,
            "value": 0.6692913385826772
          },
          {
            "number": 11,
            "time": 3.0625000000000004,
            "value": 0.6929133858267716
          },
          {
            "number": 11,
            "time": 3.0750000000000006,
            "value": 0.7165354330708661
          },
          {
            "number": 11,
            "time": 3.087500000000001,
            "value": 0.7401574803149606
          },
          {
            "number": 11,
            "time": 3.100000000000001,
            "value": 0.7637795275590551
          },
          {
            "number": 11,
            "time": 3.112500000000001,
            "value": 0.7795275590551181
          },
          {
            "number": 11,
            "time": 3.1250000000000013,
            "value": 0.7952755905511811
          },
          {
            "number": 11,
            "time": 3.1375000000000015,
            "value": 0.8031496062992126
          },
          {
            "number": 11,
            "time": 3.1500000000000017,
            "value": 0.8110236220472441
          },
          {
            "number": 11,
            "time": 3.162500000000002,
            "value": 0.8188976377952756
          },
          {
            "number": 11,
            "time": 3.175000000000002,
            "value": 0.8267716535433071
          },
          {
            "number": 11,
            "time": 3.187500000000002,
            "value": 0.8346456692913385
          },
          {
            "number": 11,
            "time": 3.2000000000000024,
            "value": 0.84251968503937
          },
          {
            "number": 11,
            "time": 3.2250000000000023,
            "value": 0.8503937007874016
          },
          {
            "number": 11,
            "time": 3.250000000000002,
            "value": 0.8582677165354331
          },
          {
            "number": 11,
            "time": 3.300000000000002,
            "value": 0.8661417322834646
          }
        ],
        "32": [
          {
            "number": 32,
            "time": 1.225,
            "value": 0
          }
        ],
        "91": [
          {
            "number": 91,
            "time": 1.2874999999999999,
            "value": 0.7874015748031497
          }
        ],
        "93": [
          {
            "number": 93,
            "time": 1.2999999999999998,
            "value": 0
          }
        ],
        "94": [
          {
            "number": 94,
            "time": 1.3124999999999998,
            "value": 0
          }
        ],
        "100": [
          {
            "number": 100,
            "time": 1.3374999999999997,
            "value": 0
          }
        ],
        "101": [
          {
            "number": 101,
            "time": 1.3249999999999997,
            "value": 0
          }
        ]
      },
      "id": 3,
      "name": "Viola                               ",
      "instrumentNumber": 41,
      "instrument": "viola",
      "instrumentFamily": "strings",
      "channelNumber": 2,
      "isPercussion": false
    },
    {
      "startTime": 3.599999999999999,
      "duration": 88.79999999999994,
      "length": 66,
      "notes": [
        {
          "name": "C4",
          "midi": 60,
          "time": 3.599999999999999,
          "velocity": 0.7874015748031497,
          "duration": 0.6000000000000001
        },
        {
          "name": "C4",
          "midi": 60,
          "time": 4.199999999999999,
          "velocity": 0.7480314960629921,
          "duration": 0.5999999999999996
        },
        {
          "name": "C4",
          "midi": 60,
          "time": 4.799999999999999,
          "velocity": 0.7086614173228346,
          "duration": 0.5999999999999996
        },
        {
          "name": "C4",
          "midi": 60,
          "time": 5.399999999999999,
          "velocity": 0.7874015748031497,
          "duration": 1.0625
        },
        {
          "name": "D4",
          "midi": 62,
          "time": 6.599999999999999,
          "velocity": 0.7086614173228346,
          "duration": 0.5999999999999996
        },
        {
          "name": "A#3",
          "midi": 58,
          "time": 7.199999999999998,
          "velocity": 0.7480314960629921,
          "duration": 1.0625000000000009
        },
        {
          "name": "A3",
          "midi": 57,
          "time": 9,
          "velocity": 0.7086614173228346,
          "duration": 1.0625
        },
        {
          "name": "A3",
          "midi": 57,
          "time": 10.8,
          "velocity": 0.7874015748031497,
          "duration": 0.5999999999999996
        },
        {
          "name": "A3",
          "midi": 57,
          "time": 11.4,
          "velocity": 0.7480314960629921,
          "duration": 0.5999999999999996
        },
        {
          "name": "A3",
          "midi": 57,
          "time": 12,
          "velocity": 0.7086614173228346,
          "duration": 0.5999999999999996
        },
        {
          "name": "A3",
          "midi": 57,
          "time": 12.6,
          "velocity": 0.7480314960629921,
          "duration": 1.0625
        },
        {
          "name": "G3",
          "midi": 55,
          "time": 14.4,
          "velocity": 0.7480314960629921,
          "duration": 0.5999999999999996
        },
        {
          "name": "E3",
          "midi": 52,
          "time": 16.2,
          "velocity": 0.7086614173228346,
          "duration": 0.6000000000000014
        },
        {
          "name": "F4",
          "midi": 65,
          "time": 18,
          "velocity": 0.7874015748031497,
          "duration": 0.6000000000000014
        },
        {
          "name": "C4",
          "midi": 60,
          "time": 18,
          "velocity": 0.7086614173228346,
          "duration": 0.6000000000000014
        },
        {
          "name": "E4",
          "midi": 64,
          "time": 18.6,
          "velocity": 0.7480314960629921,
          "duration": 0.6000000000000014
        },
        {
          "name": "C4",
          "midi": 60,
          "time": 18.6,
          "velocity": 0.6692913385826772,
          "duration": 0.6000000000000014
        },
        {
          "name": "F4",
          "midi": 65,
          "time": 19.200000000000003,
          "velocity": 0.7086614173228346,
          "duration": 0.6000000000000014
        },
        {
          "name": "C4",
          "midi": 60,
          "time": 19.200000000000003,
          "velocity": 0.6299212598425197,
          "duration": 0.6000000000000014
        },
        {
          "name": "C4",
          "midi": 60,
          "time": 19.800000000000004,
          "velocity": 0.7480314960629921,
          "duration": 1.0625
        },
        {
          "name": "C4",
          "midi": 60,
          "time": 21.600000000000005,
          "velocity": 0.7086614173228346,
          "duration": 1.1999999999999993
        },
        {
          "name": "D4",
          "midi": 62,
          "time": 22.800000000000004,
          "velocity": 0.6692913385826772,
          "duration": 0.6000000000000014
        },
        {
          "name": "C4",
          "midi": 60,
          "time": 23.400000000000006,
          "velocity": 0.6692913385826772,
          "duration": 1.0625
        },
        {
          "name": "A3",
          "midi": 57,
          "time": 25.200000000000006,
          "velocity": 0.7874015748031497,
          "duration": 0.6000000000000014
        },
        {
          "name": "A3",
          "midi": 57,
          "time": 25.800000000000008,
          "velocity": 0.7480314960629921,
          "duration": 0.6000000000000014
        },
        {
          "name": "A3",
          "midi": 57,
          "time": 26.40000000000001,
          "velocity": 0.7086614173228346,
          "duration": 0.6000000000000014
        },
        {
          "name": "A3",
          "midi": 57,
          "time": 27.00000000000001,
          "velocity": 0.7874015748031497,
          "duration": 1.0625
        },
        {
          "name": "F#3",
          "midi": 54,
          "time": 28.20000000000001,
          "velocity": 0.7874015748031497,
          "duration": 0.4499999999999993
        },
        {
          "name": "A3",
          "midi": 57,
          "time": 28.65000000000001,
          "velocity": 0.7480314960629921,
          "duration": 0.1374999999999993
        },
        {
          "name": "A#3",
          "midi": 58,
          "time": 28.800000000000008,
          "velocity": 0.7874015748031497,
          "duration": 1.0625
        },
        {
          "name": "E3",
          "midi": 52,
          "time": 30.000000000000007,
          "velocity": 0.7874015748031497,
          "duration": 0.4499999999999993
        },
        {
          "name": "G3",
          "midi": 55,
          "time": 30.450000000000006,
          "velocity": 0.7480314960629921,
          "duration": 0.1374999999999993
        },
        {
          "name": "F3",
          "midi": 53,
          "time": 30.600000000000005,
          "velocity": 0.6692913385826772,
          "duration": 0.6000000000000014
        },
        {
          "name": "C4",
          "midi": 60,
          "time": 61.2,
          "velocity": 0.7874015748031497,
          "duration": 0.6000000000000014
        },
        {
          "name": "C4",
          "midi": 60,
          "time": 61.800000000000004,
          "velocity": 0.7480314960629921,
          "duration": 0.6000000000000014
        },
        {
          "name": "C4",
          "midi": 60,
          "time": 62.400000000000006,
          "velocity": 0.7086614173228346,
          "duration": 0.6000000000000014
        },
        {
          "name": "C4",
          "midi": 60,
          "time": 63.00000000000001,
          "velocity": 0.7874015748031497,
          "duration": 1.062499999999993
        },
        {
          "name": "D4",
          "midi": 62,
          "time": 64.2,
          "velocity": 0.7086614173228346,
          "duration": 0.5999999999999943
        },
        {
          "name": "A#3",
          "midi": 58,
          "time": 64.8,
          "velocity": 0.7480314960629921,
          "duration": 1.0625
        },
        {
          "name": "A3",
          "midi": 57,
          "time": 66.6,
          "velocity": 0.7086614173228346,
          "duration": 1.0625
        },
        {
          "name": "A3",
          "midi": 57,
          "time": 68.39999999999999,
          "velocity": 0.7874015748031497,
          "duration": 0.5999999999999943
        },
        {
          "name": "A3",
          "midi": 57,
          "time": 68.99999999999999,
          "velocity": 0.7480314960629921,
          "duration": 0.5999999999999943
        },
        {
          "name": "A3",
          "midi": 57,
          "time": 69.59999999999998,
          "velocity": 0.7086614173228346,
          "duration": 0.5999999999999943
        },
        {
          "name": "A3",
          "midi": 57,
          "time": 70.19999999999997,
          "velocity": 0.7480314960629921,
          "duration": 1.0625
        },
        {
          "name": "G3",
          "midi": 55,
          "time": 71.99999999999997,
          "velocity": 0.7480314960629921,
          "duration": 0.5999999999999943
        },
        {
          "name": "E3",
          "midi": 52,
          "time": 73.79999999999997,
          "velocity": 0.7086614173228346,
          "duration": 0.5999999999999943
        },
        {
          "name": "F4",
          "midi": 65,
          "time": 75.59999999999997,
          "velocity": 0.7874015748031497,
          "duration": 0.5999999999999943
        },
        {
          "name": "C4",
          "midi": 60,
          "time": 75.59999999999997,
          "velocity": 0.7086614173228346,
          "duration": 0.5999999999999943
        },
        {
          "name": "E4",
          "midi": 64,
          "time": 76.19999999999996,
          "velocity": 0.7480314960629921,
          "duration": 0.5999999999999943
        },
        {
          "name": "C4",
          "midi": 60,
          "time": 76.19999999999996,
          "velocity": 0.6692913385826772,
          "duration": 0.5999999999999943
        },
        {
          "name": "F4",
          "midi": 65,
          "time": 76.79999999999995,
          "velocity": 0.7086614173228346,
          "duration": 0.5999999999999943
        },
        {
          "name": "C4",
          "midi": 60,
          "time": 76.79999999999995,
          "velocity": 0.6299212598425197,
          "duration": 0.5999999999999943
        },
        {
          "name": "C4",
          "midi": 60,
          "time": 77.39999999999995,
          "velocity": 0.7480314960629921,
          "duration": 1.0625
        },
        {
          "name": "C4",
          "midi": 60,
          "time": 79.19999999999995,
          "velocity": 0.7086614173228346,
          "duration": 1.2000000000000028
        },
        {
          "name": "D4",
          "midi": 62,
          "time": 80.39999999999995,
          "velocity": 0.6692913385826772,
          "duration": 0.5999999999999943
        },
        {
          "name": "C4",
          "midi": 60,
          "time": 80.99999999999994,
          "velocity": 0.6692913385826772,
          "duration": 1.0625
        },
        {
          "name": "A3",
          "midi": 57,
          "time": 82.79999999999994,
          "velocity": 0.7874015748031497,
          "duration": 0.5999999999999943
        },
        {
          "name": "A3",
          "midi": 57,
          "time": 83.39999999999993,
          "velocity": 0.7480314960629921,
          "duration": 0.5999999999999943
        },
        {
          "name": "A3",
          "midi": 57,
          "time": 83.99999999999993,
          "velocity": 0.7086614173228346,
          "duration": 0.5999999999999943
        },
        {
          "name": "A3",
          "midi": 57,
          "time": 84.59999999999992,
          "velocity": 0.7874015748031497,
          "duration": 1.0625
        },
        {
          "name": "F#3",
          "midi": 54,
          "time": 85.79999999999993,
          "velocity": 0.7874015748031497,
          "duration": 0.45000000000000284
        },
        {
          "name": "A3",
          "midi": 57,
          "time": 86.24999999999993,
          "velocity": 0.7480314960629921,
          "duration": 0.13750000000000284
        },
        {
          "name": "A#3",
          "midi": 58,
          "time": 86.39999999999993,
          "velocity": 0.7874015748031497,
          "duration": 1.0625
        },
        {
          "name": "E3",
          "midi": 52,
          "time": 87.59999999999994,
          "velocity": 0.7874015748031497,
          "duration": 0.45000000000000284
        },
        {
          "name": "G3",
          "midi": 55,
          "time": 88.04999999999994,
          "velocity": 0.7480314960629921,
          "duration": 0.13750000000000284
        },
        {
          "name": "F3",
          "midi": 53,
          "time": 88.19999999999995,
          "velocity": 0.6692913385826772,
          "duration": 0.5999999999999943
        }
      ],
      "controlChanges": {
        "6": [
          {
            "number": 6,
            "time": 1.3624999999999994,
            "value": 0.09448818897637795
          }
        ],
        "7": [
          {
            "number": 7,
            "time": 1.2624999999999997,
            "value": 0.5905511811023622
          }
        ],
        "10": [
          {
            "number": 10,
            "time": 1.2874999999999996,
            "value": 0.6299212598425197
          }
        ],
        "11": [
          {
            "number": 11,
            "time": 1.2749999999999997,
            "value": 0.8661417322834646
          }
        ],
        "32": [
          {
            "number": 32,
            "time": 1.2374999999999998,
            "value": 0
          }
        ],
        "91": [
          {
            "number": 91,
            "time": 1.2999999999999996,
            "value": 0.7874015748031497
          }
        ],
        "93": [
          {
            "number": 93,
            "time": 1.3124999999999996,
            "value": 0
          }
        ],
        "94": [
          {
            "number": 94,
            "time": 1.3249999999999995,
            "value": 0
          }
        ],
        "100": [
          {
            "number": 100,
            "time": 1.3499999999999994,
            "value": 0
          }
        ],
        "101": [
          {
            "number": 101,
            "time": 1.3374999999999995,
            "value": 0
          }
        ]
      },
      "id": 4,
      "name": "Cello                               ",
      "instrumentNumber": 42,
      "instrument": "cello",
      "instrumentFamily": "strings",
      "channelNumber": 3,
      "isPercussion": false
    },
    {
      "startTime": 3.5999999999999996,
      "duration": 89.39999999999986,
      "length": 129,
      "notes": [
        {
          "name": "F2",
          "midi": 41,
          "time": 3.5999999999999996,
          "velocity": 0.7874015748031497,
          "duration": 0.5999999999999996
        },
        {
          "name": "A2",
          "midi": 45,
          "time": 4.199999999999999,
          "velocity": 0.7480314960629921,
          "duration": 0.5999999999999996
        },
        {
          "name": "C3",
          "midi": 48,
          "time": 4.799999999999999,
          "velocity": 0.7480314960629921,
          "duration": 0.5999999999999996
        },
        {
          "name": "F3",
          "midi": 53,
          "time": 5.399999999999999,
          "velocity": 0.7874015748031497,
          "duration": 0.5999999999999996
        },
        {
          "name": "F2",
          "midi": 41,
          "time": 5.999999999999998,
          "velocity": 0.7480314960629921,
          "duration": 0.5999999999999996
        },
        {
          "name": "C3",
          "midi": 48,
          "time": 7.1999999999999975,
          "velocity": 0.7874015748031497,
          "duration": 0.5999999999999996
        },
        {
          "name": "C2",
          "midi": 36,
          "time": 7.799999999999997,
          "velocity": 0.7480314960629921,
          "duration": 0.5999999999999996
        },
        {
          "name": "F2",
          "midi": 41,
          "time": 8.999999999999996,
          "velocity": 0.7874015748031497,
          "duration": 0.5999999999999996
        },
        {
          "name": "F1",
          "midi": 29,
          "time": 9.599999999999996,
          "velocity": 0.7480314960629921,
          "duration": 0.5999999999999996
        },
        {
          "name": "F2",
          "midi": 41,
          "time": 10.799999999999995,
          "velocity": 0.7874015748031497,
          "duration": 0.5999999999999996
        },
        {
          "name": "A2",
          "midi": 45,
          "time": 11.399999999999995,
          "velocity": 0.7480314960629921,
          "duration": 0.5999999999999996
        },
        {
          "name": "C#3",
          "midi": 49,
          "time": 11.999999999999995,
          "velocity": 0.7480314960629921,
          "duration": 0.5999999999999996
        },
        {
          "name": "D3",
          "midi": 50,
          "time": 12.599999999999994,
          "velocity": 0.7874015748031497,
          "duration": 0.5999999999999996
        },
        {
          "name": "E3",
          "midi": 52,
          "time": 13.199999999999994,
          "velocity": 0.7480314960629921,
          "duration": 0.5999999999999996
        },
        {
          "name": "F3",
          "midi": 53,
          "time": 13.799999999999994,
          "velocity": 0.7480314960629921,
          "duration": 0.5999999999999996
        },
        {
          "name": "G2",
          "midi": 43,
          "time": 14.399999999999993,
          "velocity": 0.7874015748031497,
          "duration": 0.5999999999999996
        },
        {
          "name": "G2",
          "midi": 43,
          "time": 15.599999999999993,
          "velocity": 0.7480314960629921,
          "duration": 0.5999999999999996
        },
        {
          "name": "C2",
          "midi": 36,
          "time": 16.199999999999992,
          "velocity": 0.7480314960629921,
          "duration": 0.6000000000000014
        },
        {
          "name": "C2",
          "midi": 36,
          "time": 16.799999999999994,
          "velocity": 0.7480314960629921,
          "duration": 0.6000000000000014
        },
        {
          "name": "A3",
          "midi": 57,
          "time": 17.999999999999996,
          "velocity": 0.7874015748031497,
          "duration": 0.6000000000000014
        },
        {
          "name": "G3",
          "midi": 55,
          "time": 18.599999999999998,
          "velocity": 0.7480314960629921,
          "duration": 0.6000000000000014
        },
        {
          "name": "F3",
          "midi": 53,
          "time": 19.2,
          "velocity": 0.7480314960629921,
          "duration": 0.6000000000000014
        },
        {
          "name": "E3",
          "midi": 52,
          "time": 19.8,
          "velocity": 0.7874015748031497,
          "duration": 0.6000000000000014
        },
        {
          "name": "C3",
          "midi": 48,
          "time": 20.400000000000002,
          "velocity": 0.7480314960629921,
          "duration": 0.6000000000000014
        },
        {
          "name": "E3",
          "midi": 52,
          "time": 21.000000000000004,
          "velocity": 0.7480314960629921,
          "duration": 0.6000000000000014
        },
        {
          "name": "F3",
          "midi": 53,
          "time": 21.600000000000005,
          "velocity": 0.7874015748031497,
          "duration": 1.1999999999999993
        },
        {
          "name": "A#2",
          "midi": 46,
          "time": 22.800000000000004,
          "velocity": 0.7480314960629921,
          "duration": 0.6000000000000014
        },
        {
          "name": "C3",
          "midi": 48,
          "time": 23.400000000000006,
          "velocity": 0.7480314960629921,
          "duration": 0.6000000000000014
        },
        {
          "name": "F2",
          "midi": 41,
          "time": 25.200000000000006,
          "velocity": 0.7874015748031497,
          "duration": 0.6000000000000014
        },
        {
          "name": "F1",
          "midi": 29,
          "time": 25.200000000000006,
          "velocity": 0.7086614173228346,
          "duration": 0.6000000000000014
        },
        {
          "name": "A2",
          "midi": 45,
          "time": 25.800000000000008,
          "velocity": 0.7874015748031497,
          "duration": 0.6000000000000014
        },
        {
          "name": "A1",
          "midi": 33,
          "time": 25.800000000000008,
          "velocity": 0.7086614173228346,
          "duration": 0.6000000000000014
        },
        {
          "name": "C3",
          "midi": 48,
          "time": 26.40000000000001,
          "velocity": 0.7874015748031497,
          "duration": 0.6000000000000014
        },
        {
          "name": "C2",
          "midi": 36,
          "time": 26.40000000000001,
          "velocity": 0.7086614173228346,
          "duration": 0.6000000000000014
        },
        {
          "name": "F3",
          "midi": 53,
          "time": 27.00000000000001,
          "velocity": 0.7874015748031497,
          "duration": 0.6000000000000014
        },
        {
          "name": "F2",
          "midi": 41,
          "time": 27.00000000000001,
          "velocity": 0.7086614173228346,
          "duration": 0.6000000000000014
        },
        {
          "name": "D#3",
          "midi": 51,
          "time": 27.600000000000012,
          "velocity": 0.7874015748031497,
          "duration": 0.6000000000000014
        },
        {
          "name": "D#2",
          "midi": 39,
          "time": 27.600000000000012,
          "velocity": 0.7086614173228346,
          "duration": 0.6000000000000014
        },
        {
          "name": "D3",
          "midi": 50,
          "time": 28.200000000000014,
          "velocity": 0.7874015748031497,
          "duration": 1.1999999999999993
        },
        {
          "name": "D2",
          "midi": 38,
          "time": 28.200000000000014,
          "velocity": 0.7086614173228346,
          "duration": 1.1999999999999993
        },
        {
          "name": "C#3",
          "midi": 49,
          "time": 29.400000000000013,
          "velocity": 0.7874015748031497,
          "duration": 0.6000000000000014
        },
        {
          "name": "C#2",
          "midi": 37,
          "time": 29.400000000000013,
          "velocity": 0.7086614173228346,
          "duration": 0.6000000000000014
        },
        {
          "name": "C3",
          "midi": 48,
          "time": 30.000000000000014,
          "velocity": 0.7874015748031497,
          "duration": 0.6000000000000014
        },
        {
          "name": "C2",
          "midi": 36,
          "time": 30.000000000000014,
          "velocity": 0.7086614173228346,
          "duration": 0.6000000000000014
        },
        {
          "name": "F2",
          "midi": 41,
          "time": 30.600000000000016,
          "velocity": 0.7480314960629921,
          "duration": 0.6000000000000014
        },
        {
          "name": "F1",
          "midi": 29,
          "time": 31.200000000000017,
          "velocity": 0.7480314960629921,
          "duration": 0.6000000000000014
        },
        {
          "name": "F2",
          "midi": 41,
          "time": 32.40000000000002,
          "velocity": 0.7874015748031497,
          "duration": 0.6000000000000014
        },
        {
          "name": "C3",
          "midi": 48,
          "time": 33.00000000000002,
          "velocity": 0.7480314960629921,
          "duration": 0.6000000000000014
        },
        {
          "name": "F3",
          "midi": 53,
          "time": 33.60000000000002,
          "velocity": 0.7480314960629921,
          "duration": 0.6000000000000014
        },
        {
          "name": "A#2",
          "midi": 46,
          "time": 34.200000000000024,
          "velocity": 0.7874015748031497,
          "duration": 0.6000000000000014
        },
        {
          "name": "C3",
          "midi": 48,
          "time": 34.800000000000026,
          "velocity": 0.7480314960629921,
          "duration": 0.6000000000000014
        },
        {
          "name": "E3",
          "midi": 52,
          "time": 35.40000000000003,
          "velocity": 0.7480314960629921,
          "duration": 0.6000000000000014
        },
        {
          "name": "A2",
          "midi": 45,
          "time": 36.00000000000003,
          "velocity": 0.7874015748031497,
          "duration": 0.6000000000000014
        },
        {
          "name": "C3",
          "midi": 48,
          "time": 36.60000000000003,
          "velocity": 0.7480314960629921,
          "duration": 0.6000000000000014
        },
        {
          "name": "F3",
          "midi": 53,
          "time": 37.20000000000003,
          "velocity": 0.7480314960629921,
          "duration": 0.6000000000000014
        },
        {
          "name": "E3",
          "midi": 52,
          "time": 37.80000000000003,
          "velocity": 0.7874015748031497,
          "duration": 0.6000000000000014
        },
        {
          "name": "G3",
          "midi": 55,
          "time": 38.400000000000034,
          "velocity": 0.7480314960629921,
          "duration": 0.6000000000000014
        },
        {
          "name": "E3",
          "midi": 52,
          "time": 39.000000000000036,
          "velocity": 0.7480314960629921,
          "duration": 0.6000000000000014
        },
        {
          "name": "F3",
          "midi": 53,
          "time": 39.60000000000004,
          "velocity": 0.7874015748031497,
          "duration": 0.6000000000000014
        },
        {
          "name": "A3",
          "midi": 57,
          "time": 40.20000000000004,
          "velocity": 0.7480314960629921,
          "duration": 0.6000000000000014
        },
        {
          "name": "A2",
          "midi": 45,
          "time": 40.80000000000004,
          "velocity": 0.7480314960629921,
          "duration": 0.6000000000000014
        },
        {
          "name": "D3",
          "midi": 50,
          "time": 41.40000000000004,
          "velocity": 0.7874015748031497,
          "duration": 0.6000000000000014
        },
        {
          "name": "B2",
          "midi": 47,
          "time": 42.00000000000004,
          "velocity": 0.7480314960629921,
          "duration": 0.6000000000000014
        },
        {
          "name": "C3",
          "midi": 48,
          "time": 42.600000000000044,
          "velocity": 0.7480314960629921,
          "duration": 0.6000000000000014
        },
        {
          "name": "F2",
          "midi": 41,
          "time": 43.200000000000045,
          "velocity": 0.7874015748031497,
          "duration": 0.6000000000000014
        },
        {
          "name": "G2",
          "midi": 43,
          "time": 44.40000000000005,
          "velocity": 0.7480314960629921,
          "duration": 0.6000000000000014
        },
        {
          "name": "C3",
          "midi": 48,
          "time": 45.00000000000005,
          "velocity": 0.7480314960629921,
          "duration": 0.6000000000000014
        },
        {
          "name": "C2",
          "midi": 36,
          "time": 53.10000000000005,
          "velocity": 0.7480314960629921,
          "duration": 0.29999999999999716
        },
        {
          "name": "D2",
          "midi": 38,
          "time": 53.40000000000005,
          "velocity": 0.7874015748031497,
          "duration": 0.29999999999999716
        },
        {
          "name": "E2",
          "midi": 40,
          "time": 53.700000000000045,
          "velocity": 0.7480314960629921,
          "duration": 0.29999999999999716
        },
        {
          "name": "F2",
          "midi": 41,
          "time": 54.00000000000004,
          "velocity": 0.7874015748031497,
          "duration": 0.6000000000000014
        },
        {
          "name": "F3",
          "midi": 53,
          "time": 54.00000000000004,
          "velocity": 0.7086614173228346,
          "duration": 0.6000000000000014
        },
        {
          "name": "A3",
          "midi": 57,
          "time": 54.600000000000044,
          "velocity": 0.7874015748031497,
          "duration": 0.6000000000000014
        },
        {
          "name": "A2",
          "midi": 45,
          "time": 55.200000000000045,
          "velocity": 0.7480314960629921,
          "duration": 0.6000000000000014
        },
        {
          "name": "A#2",
          "midi": 46,
          "time": 55.80000000000005,
          "velocity": 0.7874015748031497,
          "duration": 0.6000000000000014
        },
        {
          "name": "D3",
          "midi": 50,
          "time": 56.40000000000005,
          "velocity": 0.7480314960629921,
          "duration": 0.6000000000000014
        },
        {
          "name": "G3",
          "midi": 55,
          "time": 57.00000000000005,
          "velocity": 0.7480314960629921,
          "duration": 0.6000000000000014
        },
        {
          "name": "C3",
          "midi": 48,
          "time": 57.60000000000005,
          "velocity": 0.7874015748031497,
          "duration": 0.6000000000000014
        },
        {
          "name": "E3",
          "midi": 52,
          "time": 58.20000000000005,
          "velocity": 0.7480314960629921,
          "duration": 0.6000000000000014
        },
        {
          "name": "G3",
          "midi": 55,
          "time": 58.800000000000054,
          "velocity": 0.7480314960629921,
          "duration": 0.6000000000000014
        },
        {
          "name": "A#3",
          "midi": 58,
          "time": 59.400000000000055,
          "velocity": 0.7874015748031497,
          "duration": 0.6000000000000014
        },
        {
          "name": "F3",
          "midi": 53,
          "time": 59.400000000000055,
          "velocity": 0.7086614173228346,
          "duration": 0.6000000000000014
        },
        {
          "name": "A3",
          "midi": 57,
          "time": 60.00000000000006,
          "velocity": 0.6692913385826772,
          "duration": 0.6000000000000014
        },
        {
          "name": "F2",
          "midi": 41,
          "time": 61.20000000000006,
          "velocity": 0.7874015748031497,
          "duration": 0.6000000000000014
        },
        {
          "name": "A2",
          "midi": 45,
          "time": 61.80000000000006,
          "velocity": 0.7480314960629921,
          "duration": 0.6000000000000014
        },
        {
          "name": "C3",
          "midi": 48,
          "time": 62.40000000000006,
          "velocity": 0.7480314960629921,
          "duration": 0.6000000000000014
        },
        {
          "name": "F3",
          "midi": 53,
          "time": 63.000000000000064,
          "velocity": 0.7874015748031497,
          "duration": 0.6000000000000014
        },
        {
          "name": "F2",
          "midi": 41,
          "time": 63.600000000000065,
          "velocity": 0.7480314960629921,
          "duration": 0.5999999999999943
        },
        {
          "name": "C3",
          "midi": 48,
          "time": 64.80000000000005,
          "velocity": 0.7874015748031497,
          "duration": 0.5999999999999943
        },
        {
          "name": "C2",
          "midi": 36,
          "time": 65.40000000000005,
          "velocity": 0.7480314960629921,
          "duration": 0.5999999999999943
        },
        {
          "name": "F2",
          "midi": 41,
          "time": 66.60000000000004,
          "velocity": 0.7874015748031497,
          "duration": 0.5999999999999943
        },
        {
          "name": "F1",
          "midi": 29,
          "time": 67.20000000000003,
          "velocity": 0.7480314960629921,
          "duration": 0.5999999999999943
        },
        {
          "name": "F2",
          "midi": 41,
          "time": 68.40000000000002,
          "velocity": 0.7874015748031497,
          "duration": 0.5999999999999943
        },
        {
          "name": "A2",
          "midi": 45,
          "time": 69.00000000000001,
          "velocity": 0.7480314960629921,
          "duration": 0.5999999999999943
        },
        {
          "name": "C#3",
          "midi": 49,
          "time": 69.60000000000001,
          "velocity": 0.7480314960629921,
          "duration": 0.5999999999999943
        },
        {
          "name": "D3",
          "midi": 50,
          "time": 70.2,
          "velocity": 0.7874015748031497,
          "duration": 0.5999999999999943
        },
        {
          "name": "E3",
          "midi": 52,
          "time": 70.8,
          "velocity": 0.7480314960629921,
          "duration": 0.5999999999999943
        },
        {
          "name": "F3",
          "midi": 53,
          "time": 71.39999999999999,
          "velocity": 0.7480314960629921,
          "duration": 0.5999999999999943
        },
        {
          "name": "G2",
          "midi": 43,
          "time": 71.99999999999999,
          "velocity": 0.7874015748031497,
          "duration": 0.5999999999999943
        },
        {
          "name": "G2",
          "midi": 43,
          "time": 73.19999999999997,
          "velocity": 0.7480314960629921,
          "duration": 0.5999999999999943
        },
        {
          "name": "C2",
          "midi": 36,
          "time": 73.79999999999997,
          "velocity": 0.7480314960629921,
          "duration": 0.5999999999999943
        },
        {
          "name": "C2",
          "midi": 36,
          "time": 74.39999999999996,
          "velocity": 0.7480314960629921,
          "duration": 0.5999999999999943
        },
        {
          "name": "A3",
          "midi": 57,
          "time": 75.59999999999995,
          "velocity": 0.7874015748031497,
          "duration": 0.5999999999999943
        },
        {
          "name": "G3",
          "midi": 55,
          "time": 76.19999999999995,
          "velocity": 0.7480314960629921,
          "duration": 0.5999999999999943
        },
        {
          "name": "F3",
          "midi": 53,
          "time": 76.79999999999994,
          "velocity": 0.7480314960629921,
          "duration": 0.5999999999999943
        },
        {
          "name": "E3",
          "midi": 52,
          "time": 77.39999999999993,
          "velocity": 0.7874015748031497,
          "duration": 0.5999999999999943
        },
        {
          "name": "C3",
          "midi": 48,
          "time": 77.99999999999993,
          "velocity": 0.7480314960629921,
          "duration": 0.5999999999999943
        },
        {
          "name": "E3",
          "midi": 52,
          "time": 78.59999999999992,
          "velocity": 0.7480314960629921,
          "duration": 0.5999999999999943
        },
        {
          "name": "F3",
          "midi": 53,
          "time": 79.19999999999992,
          "velocity": 0.7874015748031497,
          "duration": 1.2000000000000028
        },
        {
          "name": "A#2",
          "midi": 46,
          "time": 80.39999999999992,
          "velocity": 0.7480314960629921,
          "duration": 0.5999999999999943
        },
        {
          "name": "C3",
          "midi": 48,
          "time": 80.99999999999991,
          "velocity": 0.7480314960629921,
          "duration": 0.5999999999999943
        },
        {
          "name": "F2",
          "midi": 41,
          "time": 82.79999999999991,
          "velocity": 0.7874015748031497,
          "duration": 0.5999999999999943
        },
        {
          "name": "F1",
          "midi": 29,
          "time": 82.79999999999991,
          "velocity": 0.7086614173228346,
          "duration": 0.5999999999999943
        },
        {
          "name": "A2",
          "midi": 45,
          "time": 83.3999999999999,
          "velocity": 0.7874015748031497,
          "duration": 0.5999999999999943
        },
        {
          "name": "A1",
          "midi": 33,
          "time": 83.3999999999999,
          "velocity": 0.7086614173228346,
          "duration": 0.5999999999999943
        },
        {
          "name": "C3",
          "midi": 48,
          "time": 83.9999999999999,
          "velocity": 0.7874015748031497,
          "duration": 0.5999999999999943
        },
        {
          "name": "C2",
          "midi": 36,
          "time": 83.9999999999999,
          "velocity": 0.7086614173228346,
          "duration": 0.5999999999999943
        },
        {
          "name": "F3",
          "midi": 53,
          "time": 84.5999999999999,
          "velocity": 0.7874015748031497,
          "duration": 0.5999999999999943
        },
        {
          "name": "F2",
          "midi": 41,
          "time": 84.5999999999999,
          "velocity": 0.7086614173228346,
          "duration": 0.5999999999999943
        },
        {
          "name": "D#3",
          "midi": 51,
          "time": 85.19999999999989,
          "velocity": 0.7874015748031497,
          "duration": 0.5999999999999943
        },
        {
          "name": "D#2",
          "midi": 39,
          "time": 85.19999999999989,
          "velocity": 0.7086614173228346,
          "duration": 0.5999999999999943
        },
        {
          "name": "D3",
          "midi": 50,
          "time": 85.79999999999988,
          "velocity": 0.7874015748031497,
          "duration": 1.2000000000000028
        },
        {
          "name": "D2",
          "midi": 38,
          "time": 85.79999999999988,
          "velocity": 0.7086614173228346,
          "duration": 1.2000000000000028
        },
        {
          "name": "C#3",
          "midi": 49,
          "time": 86.99999999999989,
          "velocity": 0.7874015748031497,
          "duration": 0.5999999999999943
        },
        {
          "name": "C#2",
          "midi": 37,
          "time": 86.99999999999989,
          "velocity": 0.7086614173228346,
          "duration": 0.5999999999999943
        },
        {
          "name": "C3",
          "midi": 48,
          "time": 87.59999999999988,
          "velocity": 0.7874015748031497,
          "duration": 0.5999999999999943
        },
        {
          "name": "C2",
          "midi": 36,
          "time": 87.59999999999988,
          "velocity": 0.7086614173228346,
          "duration": 0.5999999999999943
        },
        {
          "name": "F2",
          "midi": 41,
          "time": 88.19999999999987,
          "velocity": 0.7480314960629921,
          "duration": 0.5999999999999943
        },
        {
          "name": "F1",
          "midi": 29,
          "time": 88.79999999999987,
          "velocity": 0.7480314960629921,
          "duration": 0.5999999999999943
        }
      ],
      "controlChanges": {
        "6": [
          {
            "number": 6,
            "time": 1.3749999999999996,
            "value": 0.09448818897637795
          }
        ],
        "7": [
          {
            "number": 7,
            "time": 1.275,
            "value": 0.7874015748031497
          }
        ],
        "10": [
          {
            "number": 10,
            "time": 1.2999999999999998,
            "value": 0.4330708661417323
          }
        ],
        "11": [
          {
            "number": 11,
            "time": 1.2874999999999999,
            "value": 0.8661417322834646
          }
        ],
        "32": [
          {
            "number": 32,
            "time": 1.25,
            "value": 0
          }
        ],
        "91": [
          {
            "number": 91,
            "time": 1.3124999999999998,
            "value": 0.7874015748031497
          }
        ],
        "93": [
          {
            "number": 93,
            "time": 1.3249999999999997,
            "value": 0
          }
        ],
        "94": [
          {
            "number": 94,
            "time": 1.3374999999999997,
            "value": 0
          }
        ],
        "100": [
          {
            "number": 100,
            "time": 1.3624999999999996,
            "value": 0
          }
        ],
        "101": [
          {
            "number": 101,
            "time": 1.3499999999999996,
            "value": 0
          }
        ]
      },
      "id": 5,
      "name": "Bass                                ",
      "instrumentNumber": 45,
      "instrument": "pizzicato strings",
      "instrumentFamily": "strings",
      "channelNumber": 4,
      "isPercussion": false
    },
    {
      "startTime": 33,
      "duration": 60.29999999999998,
      "length": 71,
      "notes": [
        {
          "name": "F4",
          "midi": 65,
          "time": 33,
          "velocity": 0.7874015748031497,
          "duration": 0.6000000000000014
        },
        {
          "name": "A3",
          "midi": 57,
          "time": 33,
          "velocity": 0.7086614173228346,
          "duration": 0.6000000000000014
        },
        {
          "name": "C4",
          "midi": 60,
          "time": 33.6,
          "velocity": 0.7874015748031497,
          "duration": 0.6000000000000014
        },
        {
          "name": "A3",
          "midi": 57,
          "time": 33.6,
          "velocity": 0.7086614173228346,
          "duration": 0.6000000000000014
        },
        {
          "name": "E4",
          "midi": 64,
          "time": 34.800000000000004,
          "velocity": 0.7874015748031497,
          "duration": 0.6000000000000014
        },
        {
          "name": "G3",
          "midi": 55,
          "time": 34.800000000000004,
          "velocity": 0.7086614173228346,
          "duration": 0.6000000000000014
        },
        {
          "name": "C4",
          "midi": 60,
          "time": 35.400000000000006,
          "velocity": 0.7874015748031497,
          "duration": 0.6000000000000014
        },
        {
          "name": "G3",
          "midi": 55,
          "time": 35.400000000000006,
          "velocity": 0.7086614173228346,
          "duration": 0.6000000000000014
        },
        {
          "name": "A4",
          "midi": 69,
          "time": 36.60000000000001,
          "velocity": 0.7874015748031497,
          "duration": 0.6000000000000014
        },
        {
          "name": "C4",
          "midi": 60,
          "time": 36.60000000000001,
          "velocity": 0.7086614173228346,
          "duration": 0.6000000000000014
        },
        {
          "name": "F4",
          "midi": 65,
          "time": 37.20000000000001,
          "velocity": 0.7874015748031497,
          "duration": 0.6000000000000014
        },
        {
          "name": "C4",
          "midi": 60,
          "time": 37.20000000000001,
          "velocity": 0.7086614173228346,
          "duration": 0.6000000000000014
        },
        {
          "name": "A#4",
          "midi": 70,
          "time": 38.40000000000001,
          "velocity": 0.7874015748031497,
          "duration": 0.6000000000000014
        },
        {
          "name": "C4",
          "midi": 60,
          "time": 38.40000000000001,
          "velocity": 0.7086614173228346,
          "duration": 0.6000000000000014
        },
        {
          "name": "G4",
          "midi": 67,
          "time": 39.000000000000014,
          "velocity": 0.7874015748031497,
          "duration": 0.6000000000000014
        },
        {
          "name": "C4",
          "midi": 60,
          "time": 39.000000000000014,
          "velocity": 0.7086614173228346,
          "duration": 0.6000000000000014
        },
        {
          "name": "A4",
          "midi": 69,
          "time": 39.600000000000016,
          "velocity": 0.7874015748031497,
          "duration": 0.6000000000000014
        },
        {
          "name": "C4",
          "midi": 60,
          "time": 39.600000000000016,
          "velocity": 0.7086614173228346,
          "duration": 0.6000000000000014
        },
        {
          "name": "F4",
          "midi": 65,
          "time": 40.20000000000002,
          "velocity": 0.7874015748031497,
          "duration": 0.6000000000000014
        },
        {
          "name": "C4",
          "midi": 60,
          "time": 40.20000000000002,
          "velocity": 0.7086614173228346,
          "duration": 0.6000000000000014
        },
        {
          "name": "E4",
          "midi": 64,
          "time": 40.80000000000002,
          "velocity": 0.7874015748031497,
          "duration": 0.6000000000000014
        },
        {
          "name": "C#4",
          "midi": 61,
          "time": 40.80000000000002,
          "velocity": 0.7086614173228346,
          "duration": 0.6000000000000014
        },
        {
          "name": "F4",
          "midi": 65,
          "time": 41.40000000000002,
          "velocity": 0.7874015748031497,
          "duration": 0.6000000000000014
        },
        {
          "name": "D4",
          "midi": 62,
          "time": 41.40000000000002,
          "velocity": 0.7086614173228346,
          "duration": 0.6000000000000014
        },
        {
          "name": "D4",
          "midi": 62,
          "time": 42.00000000000002,
          "velocity": 0.7874015748031497,
          "duration": 0.6000000000000014
        },
        {
          "name": "G3",
          "midi": 55,
          "time": 42.00000000000002,
          "velocity": 0.7086614173228346,
          "duration": 0.6000000000000014
        },
        {
          "name": "E4",
          "midi": 64,
          "time": 42.60000000000002,
          "velocity": 0.7874015748031497,
          "duration": 0.6000000000000014
        },
        {
          "name": "G3",
          "midi": 55,
          "time": 42.60000000000002,
          "velocity": 0.7086614173228346,
          "duration": 0.6000000000000014
        },
        {
          "name": "D4",
          "midi": 62,
          "time": 43.200000000000024,
          "velocity": 0.7874015748031497,
          "duration": 0.6000000000000014
        },
        {
          "name": "A3",
          "midi": 57,
          "time": 43.200000000000024,
          "velocity": 0.7086614173228346,
          "duration": 0.6000000000000014
        },
        {
          "name": "F4",
          "midi": 65,
          "time": 44.40000000000003,
          "velocity": 0.7874015748031497,
          "duration": 0.6000000000000014
        },
        {
          "name": "G3",
          "midi": 55,
          "time": 44.40000000000003,
          "velocity": 0.7086614173228346,
          "duration": 0.6000000000000014
        },
        {
          "name": "E4",
          "midi": 64,
          "time": 45.00000000000003,
          "velocity": 0.7480314960629921,
          "duration": 0.6000000000000014
        },
        {
          "name": "G3",
          "midi": 55,
          "time": 45.00000000000003,
          "velocity": 0.6692913385826772,
          "duration": 0.6000000000000014
        },
        {
          "name": "C4",
          "midi": 60,
          "time": 47.70000000000003,
          "velocity": 0.7480314960629921,
          "duration": 0.2749999999999986
        },
        {
          "name": "B3",
          "midi": 59,
          "time": 48.00000000000003,
          "velocity": 0.7874015748031497,
          "duration": 0.2749999999999986
        },
        {
          "name": "C4",
          "midi": 60,
          "time": 48.300000000000026,
          "velocity": 0.7480314960629921,
          "duration": 0.2749999999999986
        },
        {
          "name": "D4",
          "midi": 62,
          "time": 48.60000000000002,
          "velocity": 0.7874015748031497,
          "duration": 0.2749999999999986
        },
        {
          "name": "A#3",
          "midi": 58,
          "time": 48.90000000000002,
          "velocity": 0.7480314960629921,
          "duration": 0.2749999999999986
        },
        {
          "name": "G3",
          "midi": 55,
          "time": 49.20000000000002,
          "velocity": 0.7874015748031497,
          "duration": 0.2749999999999986
        },
        {
          "name": "A3",
          "midi": 57,
          "time": 49.500000000000014,
          "velocity": 0.7480314960629921,
          "duration": 0.2749999999999986
        },
        {
          "name": "G#3",
          "midi": 56,
          "time": 49.80000000000001,
          "velocity": 0.7480314960629921,
          "duration": 0.2749999999999986
        },
        {
          "name": "A3",
          "midi": 57,
          "time": 50.10000000000001,
          "velocity": 0.6692913385826772,
          "duration": 0.2749999999999986
        },
        {
          "name": "A#3",
          "midi": 58,
          "time": 50.400000000000006,
          "velocity": 0.7874015748031497,
          "duration": 0.2749999999999986
        },
        {
          "name": "G3",
          "midi": 55,
          "time": 50.7,
          "velocity": 0.7480314960629921,
          "duration": 0.2749999999999986
        },
        {
          "name": "E3",
          "midi": 52,
          "time": 51,
          "velocity": 0.7874015748031497,
          "duration": 0.2749999999999986
        },
        {
          "name": "F3",
          "midi": 53,
          "time": 51.3,
          "velocity": 0.7480314960629921,
          "duration": 0.2749999999999986
        },
        {
          "name": "E3",
          "midi": 52,
          "time": 51.599999999999994,
          "velocity": 0.7480314960629921,
          "duration": 0.2749999999999986
        },
        {
          "name": "F3",
          "midi": 53,
          "time": 51.89999999999999,
          "velocity": 0.6692913385826772,
          "duration": 0.2749999999999986
        },
        {
          "name": "G3",
          "midi": 55,
          "time": 52.19999999999999,
          "velocity": 0.7874015748031497,
          "duration": 0.2749999999999986
        },
        {
          "name": "E3",
          "midi": 52,
          "time": 52.499999999999986,
          "velocity": 0.7480314960629921,
          "duration": 0.2749999999999986
        },
        {
          "name": "C3",
          "midi": 48,
          "time": 52.79999999999998,
          "velocity": 0.7874015748031497,
          "duration": 0.2749999999999986
        },
        {
          "name": "C3",
          "midi": 48,
          "time": 53.09999999999998,
          "velocity": 0.7480314960629921,
          "duration": 0.2749999999999986
        },
        {
          "name": "D3",
          "midi": 50,
          "time": 53.39999999999998,
          "velocity": 0.7480314960629921,
          "duration": 0.2749999999999986
        },
        {
          "name": "E3",
          "midi": 52,
          "time": 53.699999999999974,
          "velocity": 0.6692913385826772,
          "duration": 0.2749999999999986
        },
        {
          "name": "F4",
          "midi": 65,
          "time": 54.59999999999997,
          "velocity": 0.7874015748031497,
          "duration": 0.6000000000000014
        },
        {
          "name": "C4",
          "midi": 60,
          "time": 54.59999999999997,
          "velocity": 0.7086614173228346,
          "duration": 0.6000000000000014
        },
        {
          "name": "C5",
          "midi": 72,
          "time": 55.199999999999974,
          "velocity": 0.7874015748031497,
          "duration": 0.6000000000000014
        },
        {
          "name": "F4",
          "midi": 65,
          "time": 55.199999999999974,
          "velocity": 0.7086614173228346,
          "duration": 0.6000000000000014
        },
        {
          "name": "C4",
          "midi": 60,
          "time": 55.199999999999974,
          "velocity": 0.6692913385826772,
          "duration": 0.6000000000000014
        },
        {
          "name": "A#4",
          "midi": 70,
          "time": 56.39999999999998,
          "velocity": 0.7874015748031497,
          "duration": 0.6000000000000014
        },
        {
          "name": "D4",
          "midi": 62,
          "time": 56.39999999999998,
          "velocity": 0.7086614173228346,
          "duration": 0.6000000000000014
        },
        {
          "name": "G4",
          "midi": 67,
          "time": 56.99999999999998,
          "velocity": 0.7874015748031497,
          "duration": 0.6000000000000014
        },
        {
          "name": "D4",
          "midi": 62,
          "time": 56.99999999999998,
          "velocity": 0.7086614173228346,
          "duration": 0.6000000000000014
        },
        {
          "name": "G4",
          "midi": 67,
          "time": 58.19999999999998,
          "velocity": 0.7874015748031497,
          "duration": 0.6000000000000014
        },
        {
          "name": "C4",
          "midi": 60,
          "time": 58.19999999999998,
          "velocity": 0.7086614173228346,
          "duration": 0.6000000000000014
        },
        {
          "name": "A#4",
          "midi": 70,
          "time": 58.79999999999998,
          "velocity": 0.7874015748031497,
          "duration": 0.6000000000000014
        },
        {
          "name": "C4",
          "midi": 60,
          "time": 58.79999999999998,
          "velocity": 0.7086614173228346,
          "duration": 0.6000000000000014
        },
        {
          "name": "E4",
          "midi": 64,
          "time": 59.399999999999984,
          "velocity": 0.7874015748031497,
          "duration": 0.6000000000000014
        },
        {
          "name": "C4",
          "midi": 60,
          "time": 59.399999999999984,
          "velocity": 0.7480314960629921,
          "duration": 0.6000000000000014
        },
        {
          "name": "F4",
          "midi": 65,
          "time": 59.999999999999986,
          "velocity": 0.7480314960629921,
          "duration": 0.29999999999999716
        }
      ],
      "controlChanges": {
        "6": [
          {
            "number": 6,
            "time": 1.3874999999999995,
            "value": 0.09448818897637795
          }
        ],
        "7": [
          {
            "number": 7,
            "time": 1.2874999999999999,
            "value": 0.8661417322834646
          }
        ],
        "10": [
          {
            "number": 10,
            "time": 1.3124999999999998,
            "value": 0.31496062992125984
          }
        ],
        "11": [
          {
            "number": 11,
            "time": 1.2999999999999998,
            "value": 0.8661417322834646
          }
        ],
        "32": [
          {
            "number": 32,
            "time": 1.2625,
            "value": 0
          }
        ],
        "91": [
          {
            "number": 91,
            "time": 1.3249999999999997,
            "value": 0.9448818897637795
          }
        ],
        "93": [
          {
            "number": 93,
            "time": 1.3374999999999997,
            "value": 0
          }
        ],
        "94": [
          {
            "number": 94,
            "time": 1.3499999999999996,
            "value": 0
          }
        ],
        "100": [
          {
            "number": 100,
            "time": 1.3749999999999996,
            "value": 0
          }
        ],
        "101": [
          {
            "number": 101,
            "time": 1.3624999999999996,
            "value": 0
          }
        ]
      },
      "id": 6,
      "name": "Harp                                ",
      "instrumentNumber": 46,
      "instrument": "orchestral harp",
      "instrumentFamily": "strings",
      "channelNumber": 5,
      "isPercussion": false
    },
    {
      "startTime": 0,
      "duration": 0,
      "length": 0,
      "notes": [],
      "controlChanges": {
        "6": [
          {
            "number": 6,
            "time": 1.3999999999999995,
            "value": 0.09448818897637795
          }
        ],
        "7": [
          {
            "number": 7,
            "time": 1.2999999999999998,
            "value": 0.9448818897637795
          }
        ],
        "10": [
          {
            "number": 10,
            "time": 1.3249999999999997,
            "value": 0.5039370078740157
          }
        ],
        "11": [
          {
            "number": 11,
            "time": 1.3124999999999998,
            "value": 0.8661417322834646
          }
        ],
        "32": [
          {
            "number": 32,
            "time": 1.275,
            "value": 0
          }
        ],
        "91": [
          {
            "number": 91,
            "time": 1.3374999999999997,
            "value": 0.31496062992125984
          }
        ],
        "93": [
          {
            "number": 93,
            "time": 1.3499999999999996,
            "value": 0
          }
        ],
        "94": [
          {
            "number": 94,
            "time": 1.3624999999999996,
            "value": 0
          }
        ],
        "100": [
          {
            "number": 100,
            "time": 1.3874999999999995,
            "value": 0
          }
        ],
        "101": [
          {
            "number": 101,
            "time": 1.3749999999999996,
            "value": 0
          }
        ]
      },
      "id": 7,
      "name": "                                    ",
      "instrumentNumber": 0,
      "instrument": "acoustic grand piano",
      "instrumentFamily": "piano",
      "channelNumber": 6,
      "isPercussion": false
    },
    {
      "startTime": 0,
      "duration": 0,
      "length": 0,
      "notes": [],
      "controlChanges": {
        "6": [
          {
            "number": 6,
            "time": 1.4124999999999994,
            "value": 0.09448818897637795
          }
        ],
        "7": [
          {
            "number": 7,
            "time": 1.3124999999999998,
            "value": 0.9448818897637795
          }
        ],
        "10": [
          {
            "number": 10,
            "time": 1.3374999999999997,
            "value": 0.5039370078740157
          }
        ],
        "11": [
          {
            "number": 11,
            "time": 1.3249999999999997,
            "value": 0.8661417322834646
          }
        ],
        "32": [
          {
            "number": 32,
            "time": 1.2874999999999999,
            "value": 0
          }
        ],
        "91": [
          {
            "number": 91,
            "time": 1.3499999999999996,
            "value": 0.31496062992125984
          }
        ],
        "93": [
          {
            "number": 93,
            "time": 1.3624999999999996,
            "value": 0
          }
        ],
        "94": [
          {
            "number": 94,
            "time": 1.3749999999999996,
            "value": 0
          }
        ],
        "100": [
          {
            "number": 100,
            "time": 1.3999999999999995,
            "value": 0
          }
        ],
        "101": [
          {
            "number": 101,
            "time": 1.3874999999999995,
            "value": 0
          }
        ]
      },
      "id": 8,
      "name": "                                    ",
      "instrumentNumber": 0,
      "instrument": "acoustic grand piano",
      "instrumentFamily": "piano",
      "channelNumber": 7,
      "isPercussion": false
    },
    {
      "startTime": 0,
      "duration": 0,
      "length": 0,
      "notes": [],
      "controlChanges": {
        "6": [
          {
            "number": 6,
            "time": 1.4249999999999996,
            "value": 0.09448818897637795
          }
        ],
        "7": [
          {
            "number": 7,
            "time": 1.325,
            "value": 0.9448818897637795
          }
        ],
        "10": [
          {
            "number": 10,
            "time": 1.3499999999999999,
            "value": 0.5039370078740157
          }
        ],
        "11": [
          {
            "number": 11,
            "time": 1.3375,
            "value": 0.8661417322834646
          }
        ],
        "32": [
          {
            "number": 32,
            "time": 1.3,
            "value": 0
          }
        ],
        "91": [
          {
            "number": 91,
            "time": 1.3624999999999998,
            "value": 0.31496062992125984
          }
        ],
        "93": [
          {
            "number": 93,
            "time": 1.3749999999999998,
            "value": 0
          }
        ],
        "94": [
          {
            "number": 94,
            "time": 1.3874999999999997,
            "value": 0
          }
        ],
        "100": [
          {
            "number": 100,
            "time": 1.4124999999999996,
            "value": 0
          }
        ],
        "101": [
          {
            "number": 101,
            "time": 1.3999999999999997,
            "value": 0
          }
        ]
      },
      "id": 9,
      "name": "                                    ",
      "instrumentNumber": 0,
      "instrument": "acoustic grand piano",
      "instrumentFamily": "piano",
      "channelNumber": 8,
      "isPercussion": false
    },
    {
      "startTime": 0,
      "duration": 0,
      "length": 0,
      "notes": [],
      "controlChanges": {
        "6": [
          {
            "number": 6,
            "time": 1.4374999999999993,
            "value": 0.09448818897637795
          }
        ],
        "7": [
          {
            "number": 7,
            "time": 1.3374999999999997,
            "value": 0.9448818897637795
          }
        ],
        "10": [
          {
            "number": 10,
            "time": 1.3624999999999996,
            "value": 0.5039370078740157
          }
        ],
        "11": [
          {
            "number": 11,
            "time": 1.3499999999999996,
            "value": 0.8661417322834646
          }
        ],
        "32": [
          {
            "number": 32,
            "time": 1.3124999999999998,
            "value": 0
          }
        ],
        "91": [
          {
            "number": 91,
            "time": 1.3749999999999996,
            "value": 0.31496062992125984
          }
        ],
        "93": [
          {
            "number": 93,
            "time": 1.3874999999999995,
            "value": 0
          }
        ],
        "94": [
          {
            "number": 94,
            "time": 1.3999999999999995,
            "value": 0
          }
        ],
        "100": [
          {
            "number": 100,
            "time": 1.4249999999999994,
            "value": 0
          }
        ],
        "101": [
          {
            "number": 101,
            "time": 1.4124999999999994,
            "value": 0
          }
        ]
      },
      "id": 10,
      "name": "                                    ",
      "instrumentNumber": 0,
      "instrument": "standard kit",
      "instrumentFamily": "drums",
      "channelNumber": 9,
      "isPercussion": true
    },
    {
      "startTime": 0,
      "duration": 0,
      "length": 0,
      "notes": [],
      "controlChanges": {
        "6": [
          {
            "number": 6,
            "time": 1.4499999999999995,
            "value": 0.09448818897637795
          }
        ],
        "7": [
          {
            "number": 7,
            "time": 1.3499999999999999,
            "value": 0.9448818897637795
          }
        ],
        "10": [
          {
            "number": 10,
            "time": 1.3749999999999998,
            "value": 0.5039370078740157
          }
        ],
        "11": [
          {
            "number": 11,
            "time": 1.3624999999999998,
            "value": 0.8661417322834646
          }
        ],
        "32": [
          {
            "number": 32,
            "time": 1.325,
            "value": 0
          }
        ],
        "91": [
          {
            "number": 91,
            "time": 1.3874999999999997,
            "value": 0.31496062992125984
          }
        ],
        "93": [
          {
            "number": 93,
            "time": 1.3999999999999997,
            "value": 0
          }
        ],
        "94": [
          {
            "number": 94,
            "time": 1.4124999999999996,
            "value": 0
          }
        ],
        "100": [
          {
            "number": 100,
            "time": 1.4374999999999996,
            "value": 0
          }
        ],
        "101": [
          {
            "number": 101,
            "time": 1.4249999999999996,
            "value": 0
          }
        ]
      },
      "id": 11,
      "name": "                                    ",
      "instrumentNumber": 0,
      "instrument": "standard kit",
      "instrumentFamily": "drums",
      "channelNumber": 10,
      "isPercussion": true
    },
    {
      "startTime": 0,
      "duration": 0,
      "length": 0,
      "notes": [],
      "controlChanges": {
        "6": [
          {
            "number": 6,
            "time": 1.4624999999999995,
            "value": 0.09448818897637795
          }
        ],
        "7": [
          {
            "number": 7,
            "time": 1.3624999999999998,
            "value": 0.9448818897637795
          }
        ],
        "10": [
          {
            "number": 10,
            "time": 1.3874999999999997,
            "value": 0.5039370078740157
          }
        ],
        "11": [
          {
            "number": 11,
            "time": 1.3749999999999998,
            "value": 0.8661417322834646
          }
        ],
        "32": [
          {
            "number": 32,
            "time": 1.3375,
            "value": 0
          }
        ],
        "91": [
          {
            "number": 91,
            "time": 1.3999999999999997,
            "value": 0.31496062992125984
          }
        ],
        "93": [
          {
            "number": 93,
            "time": 1.4124999999999996,
            "value": 0
          }
        ],
        "94": [
          {
            "number": 94,
            "time": 1.4249999999999996,
            "value": 0
          }
        ],
        "100": [
          {
            "number": 100,
            "time": 1.4499999999999995,
            "value": 0
          }
        ],
        "101": [
          {
            "number": 101,
            "time": 1.4374999999999996,
            "value": 0
          }
        ]
      },
      "id": 12,
      "name": "                                    ",
      "instrumentNumber": 0,
      "instrument": "acoustic grand piano",
      "instrumentFamily": "piano",
      "channelNumber": 11,
      "isPercussion": false
    },
    {
      "startTime": 0,
      "duration": 0,
      "length": 0,
      "notes": [],
      "controlChanges": {
        "6": [
          {
            "number": 6,
            "time": 1.4749999999999994,
            "value": 0.09448818897637795
          }
        ],
        "7": [
          {
            "number": 7,
            "time": 1.3749999999999998,
            "value": 0.9448818897637795
          }
        ],
        "10": [
          {
            "number": 10,
            "time": 1.3999999999999997,
            "value": 0.5039370078740157
          }
        ],
        "11": [
          {
            "number": 11,
            "time": 1.3874999999999997,
            "value": 0.8661417322834646
          }
        ],
        "32": [
          {
            "number": 32,
            "time": 1.3499999999999999,
            "value": 0
          }
        ],
        "91": [
          {
            "number": 91,
            "time": 1.4124999999999996,
            "value": 0.31496062992125984
          }
        ],
        "93": [
          {
            "number": 93,
            "time": 1.4249999999999996,
            "value": 0
          }
        ],
        "94": [
          {
            "number": 94,
            "time": 1.4374999999999996,
            "value": 0
          }
        ],
        "100": [
          {
            "number": 100,
            "time": 1.4624999999999995,
            "value": 0
          }
        ],
        "101": [
          {
            "number": 101,
            "time": 1.4499999999999995,
            "value": 0
          }
        ]
      },
      "id": 13,
      "name": "                                    ",
      "instrumentNumber": 0,
      "instrument": "acoustic grand piano",
      "instrumentFamily": "piano",
      "channelNumber": 12,
      "isPercussion": false
    },
    {
      "startTime": 0,
      "duration": 0,
      "length": 0,
      "notes": [],
      "controlChanges": {
        "6": [
          {
            "number": 6,
            "time": 1.4874999999999994,
            "value": 0.09448818897637795
          }
        ],
        "7": [
          {
            "number": 7,
            "time": 1.3874999999999997,
            "value": 0.9448818897637795
          }
        ],
        "10": [
          {
            "number": 10,
            "time": 1.4124999999999996,
            "value": 0.5039370078740157
          }
        ],
        "11": [
          {
            "number": 11,
            "time": 1.3999999999999997,
            "value": 0.8661417322834646
          }
        ],
        "32": [
          {
            "number": 32,
            "time": 1.3624999999999998,
            "value": 0
          }
        ],
        "91": [
          {
            "number": 91,
            "time": 1.4249999999999996,
            "value": 0.31496062992125984
          }
        ],
        "93": [
          {
            "number": 93,
            "time": 1.4374999999999996,
            "value": 0
          }
        ],
        "94": [
          {
            "number": 94,
            "time": 1.4499999999999995,
            "value": 0
          }
        ],
        "100": [
          {
            "number": 100,
            "time": 1.4749999999999994,
            "value": 0
          }
        ],
        "101": [
          {
            "number": 101,
            "time": 1.4624999999999995,
            "value": 0
          }
        ]
      },
      "id": 14,
      "name": "                                    ",
      "instrumentNumber": 0,
      "instrument": "acoustic grand piano",
      "instrumentFamily": "piano",
      "channelNumber": 13,
      "isPercussion": false
    },
    {
      "startTime": 0,
      "duration": 0,
      "length": 0,
      "notes": [],
      "controlChanges": {
        "6": [
          {
            "number": 6,
            "time": 1.4999999999999996,
            "value": 0.09448818897637795
          }
        ],
        "7": [
          {
            "number": 7,
            "time": 1.4,
            "value": 0.9448818897637795
          }
        ],
        "10": [
          {
            "number": 10,
            "time": 1.4249999999999998,
            "value": 0.5039370078740157
          }
        ],
        "11": [
          {
            "number": 11,
            "time": 1.4124999999999999,
            "value": 0.8661417322834646
          }
        ],
        "32": [
          {
            "number": 32,
            "time": 1.375,
            "value": 0
          }
        ],
        "91": [
          {
            "number": 91,
            "time": 1.4374999999999998,
            "value": 0.31496062992125984
          }
        ],
        "93": [
          {
            "number": 93,
            "time": 1.4499999999999997,
            "value": 0
          }
        ],
        "94": [
          {
            "number": 94,
            "time": 1.4624999999999997,
            "value": 0
          }
        ],
        "100": [
          {
            "number": 100,
            "time": 1.4874999999999996,
            "value": 0
          }
        ],
        "101": [
          {
            "number": 101,
            "time": 1.4749999999999996,
            "value": 0
          }
        ]
      },
      "id": 15,
      "name": "                                    ",
      "instrumentNumber": 0,
      "instrument": "acoustic grand piano",
      "instrumentFamily": "piano",
      "channelNumber": 14,
      "isPercussion": false
    },
    {
      "startTime": 0,
      "duration": 0,
      "length": 0,
      "notes": [],
      "controlChanges": {
        "6": [
          {
            "number": 6,
            "time": 1.5124999999999993,
            "value": 0.09448818897637795
          }
        ],
        "7": [
          {
            "number": 7,
            "time": 1.4124999999999996,
            "value": 0.9448818897637795
          }
        ],
        "10": [
          {
            "number": 10,
            "time": 1.4374999999999996,
            "value": 0.5039370078740157
          }
        ],
        "11": [
          {
            "number": 11,
            "time": 1.4249999999999996,
            "value": 0.8661417322834646
          }
        ],
        "32": [
          {
            "number": 32,
            "time": 1.3874999999999997,
            "value": 0
          }
        ],
        "91": [
          {
            "number": 91,
            "time": 1.4499999999999995,
            "value": 0.31496062992125984
          }
        ],
        "93": [
          {
            "number": 93,
            "time": 1.4624999999999995,
            "value": 0
          }
        ],
        "94": [
          {
            "number": 94,
            "time": 1.4749999999999994,
            "value": 0
          }
        ],
        "100": [
          {
            "number": 100,
            "time": 1.4999999999999993,
            "value": 0
          }
        ],
        "101": [
          {
            "number": 101,
            "time": 1.4874999999999994,
            "value": 0
          }
        ]
      },
      "id": 16,
      "name": "                                    ",
      "instrumentNumber": 0,
      "instrument": "acoustic grand piano",
      "instrumentFamily": "piano",
      "channelNumber": 15,
      "isPercussion": false
    }
  ]
}