{
  "header": {
    "keySignatures": [
      {
        "key": "C",
        "scale": "major",
        "ticks": 0
      }
    ],
    "meta": [],
    "name": "melody1",
    "ppq": 480,
    "tempos": [
      {
        "bpm": 150,
        "ticks": 0
      }
    ],
    "timeSignatures": [
      {
        "ticks": 0,
        "timeSignature": [
          4,
          4
        ],
        "measures": 0
      }
    ]
  },
  "tracks": [
    {
      "channel": 0,
      "controlChanges": {},
      "pitchBends": [],
      "instrument": {
        "family": "piano",
        "name": "acoustic grand piano",
        "number": 0
      },
      "name": "Track 1",
      "notes": [
        {
          "duration": 0.21339264375000003,
          "durationTicks": 239,
          "midi": 64,
          "name": "E4",
          "ticks": 0,
          "time": 0,
          "velocity": 0.8031496062992126
        },
        {
          "duration": 0.10714275000000001,
          "durationTicks": 120,
          "midi": 71,
          "name": "B4",
          "ticks": 359,
          "time": 0.32053539375,
          "velocity": 0.8031496062992126
        },
        {
          "duration": 0.21428550000000002,
          "durationTicks": 240,
          "midi": 71,
          "name": "B4",
          "ticks": 479,
          "time": 0.42767814375,
          "velocity": 0.8031496062992126
        },
        {
          "duration": 0.21428550000000002,
          "durationTicks": 240,
          "midi": 69,
          "name": "A4",
          "ticks": 719,
          "time": 0.64196364375,
          "velocity": 0.8031496062992126
        },
        {
          "duration": 0.21428550000000002,
          "durationTicks": 240,
          "midi": 71,
          "name": "B4",
          "ticks": 959,
          "time": 0.85624914375,
          "velocity": 0.8031496062992126
        },
        {
          "duration": 0.21428550000000013,
          "durationTicks": 240,
          "midi": 74,
          "name": "D5",
          "ticks": 1199,
          "time": 1.07053464375,
          "velocity": 0.8031496062992126
        },
        {
          "duration": 0.32232110625,
          "durationTicks": 361,
          "midi": 71,
          "name": "B4",
          "ticks": 1439,
          "time": 1.2848201437500002,
          "velocity": 0.8031496062992126
        },
        {
          "duration": 0.2142854999999999,
          "durationTicks": 240,
          "midi": 64,
          "name": "E4",
          "ticks": 1919,
          "time": 1.7133911437500002,
          "velocity": 0.8031496062992126
        },
        {
          "duration": 0.10714274999999995,
          "durationTicks": 120,
          "midi": 71,
          "name": "B4",
          "ticks": 2279,
          "time": 2.0348193937500003,
          "velocity": 0.8031496062992126
        },
        {
          "duration": 0.2142854999999999,
          "durationTicks": 240,
          "midi": 71,
          "name": "B4",
          "ticks": 2399,
          "time": 2.1419621437500003,
          "velocity": 0.8031496062992126
        },
        {
          "duration": 0.21339264374999978,
          "durationTicks": 239,
          "midi": 69,
          "name": "A4",
          "ticks": 2640,
          "time": 2.3571405000000003,
          "velocity": 0.8031496062992126
        },
        {
          "duration": 0.21428550000000035,
          "durationTicks": 240,
          "midi": 67,
          "name": "G4",
          "ticks": 2879,
          "time": 2.57053314375,
          "velocity": 0.8031496062992126
        },
        {
          "duration": 0.2142854999999999,
          "durationTicks": 240,
          "midi": 66,
          "name": "F#4",
          "ticks": 3119,
          "time": 2.7848186437500004,
          "velocity": 0.8031496062992126
        },
        {
          "duration": 0.32232110625,
          "durationTicks": 361,
          "midi": 64,
          "name": "E4",
          "ticks": 3359,
          "time": 2.9991041437500003,
          "velocity": 0.8031496062992126
        },
        {
          "duration": 0.21517835625000004,
          "durationTicks": 241,
          "midi": 64,
          "name": "E4",
          "ticks": 3839,
          "time": 3.42767514375,
          "velocity": 0.8031496062992126
        },
        {
          "duration": 0.10714274999999995,
          "durationTicks": 120,
          "midi": 71,
          "name": "B4",
          "ticks": 4200,
          "time": 3.74999625,
          "velocity": 0.8031496062992126
        },
        {
          "duration": 0.2142854999999999,
          "durationTicks": 240,
          "midi": 71,
          "name": "B4",
          "ticks": 4320,
          "time": 3.857139,
          "velocity": 0.8031496062992126
        },
        {
          "duration": 0.2142854999999999,
          "durationTicks": 240,
          "midi": 69,
          "name": "A4",
          "ticks": 4560,
          "time": 4.0714245,
          "velocity": 0.8031496062992126
        },
        {
          "duration": 0.2142855000000008,
          "durationTicks": 240,
          "midi": 71,
          "name": "B4",
          "ticks": 4800,
          "time": 4.28571,
          "velocity": 0.8031496062992126
        },
        {
          "duration": 0.2142854999999999,
          "durationTicks": 240,
          "midi": 74,
          "name": "D5",
          "ticks": 5040,
          "time": 4.499995500000001,
          "velocity": 0.8031496062992126
        },
        {
          "duration": 0.3214282499999994,
          "durationTicks": 360,
          "midi": 71,
          "name": "B4",
          "ticks": 5280,
          "time": 4.714281000000001,
          "velocity": 0.8031496062992126
        },
        {
          "duration": 0.2142854999999999,
          "durationTicks": 240,
          "midi": 64,
          "name": "E4",
          "ticks": 5759,
          "time": 5.14195914375,
          "velocity": 0.8031496062992126
        },
        {
          "duration": 0.10714274999999951,
          "durationTicks": 120,
          "midi": 71,
          "name": "B4",
          "ticks": 6119,
          "time": 5.463387393750001,
          "velocity": 0.8031496062992126
        },
        {
          "duration": 0.2142855000000008,
          "durationTicks": 240,
          "midi": 71,
          "name": "B4",
          "ticks": 6239,
          "time": 5.57053014375,
          "velocity": 0.8031496062992126
        },
        {
          "duration": 0.2142854999999999,
          "durationTicks": 240,
          "midi": 69,
          "name": "A4",
          "ticks": 6479,
          "time": 5.784815643750001,
          "velocity": 0.8031496062992126
        },
        {
          "duration": 0.2142854999999999,
          "durationTicks": 240,
          "midi": 67,
          "name": "G4",
          "ticks": 6719,
          "time": 5.999101143750001,
          "velocity": 0.8031496062992126
        },
        {
          "duration": 0.2142854999999999,
          "durationTicks": 240,
          "midi": 66,
          "name": "F#4",
          "ticks": 6959,
          "time": 6.213386643750001,
          "velocity": 0.8031496062992126
        },
        {
          "duration": 0.3214282500000003,
          "durationTicks": 360,
          "midi": 64,
          "name": "E4",
          "ticks": 7199,
          "time": 6.427672143750001,
          "velocity": 0.8031496062992126
        },
        {
          "duration": 0.2142854999999999,
          "durationTicks": 240,
          "midi": 64,
          "name": "E4",
          "ticks": 7680,
          "time": 6.857136000000001,
          "velocity": 0.8031496062992126
        },
        {
          "duration": 0.10714274999999951,
          "durationTicks": 120,
          "midi": 71,
          "name": "B4",
          "ticks": 8040,
          "time": 7.178564250000001,
          "velocity": 0.8031496062992126
        },
        {
          "duration": 0.2142854999999999,
          "durationTicks": 240,
          "midi": 71,
          "name": "B4",
          "ticks": 8160,
          "time": 7.285707,
          "velocity": 0.8031496062992126
        },
        {
          "duration": 0.2142854999999999,
          "durationTicks": 240,
          "midi": 69,
          "name": "A4",
          "ticks": 8400,
          "time": 7.4999925,
          "velocity": 0.8031496062992126
        },
        {
          "duration": 0.2142855000000008,
          "durationTicks": 240,
          "midi": 71,
          "name": "B4",
          "ticks": 8640,
          "time": 7.714278,
          "velocity": 0.8031496062992126
        },
        {
          "duration": 0.21428549999999902,
          "durationTicks": 240,
          "midi": 74,
          "name": "D5",
          "ticks": 8880,
          "time": 7.928563500000001,
          "velocity": 0.8031496062992126
        },
        {
          "duration": 0.3214282500000003,
          "durationTicks": 360,
          "midi": 71,
          "name": "B4",
          "ticks": 9120,
          "time": 8.142849,
          "velocity": 0.8031496062992126
        },
        {
          "duration": 0.2142855000000008,
          "durationTicks": 240,
          "midi": 64,
          "name": "E4",
          "ticks": 9600,
          "time": 8.57142,
          "velocity": 0.8031496062992126
        },
        {
          "duration": 0.10714275000000129,
          "durationTicks": 120,
          "midi": 71,
          "name": "B4",
          "ticks": 9960,
          "time": 8.89284825,
          "velocity": 0.8031496062992126
        },
        {
          "duration": 0.21428549999999902,
          "durationTicks": 240,
          "midi": 71,
          "name": "B4",
          "ticks": 10080,
          "time": 8.999991000000001,
          "velocity": 0.8031496062992126
        },
        {
          "duration": 0.2142855000000008,
          "durationTicks": 240,
          "midi": 69,
          "name": "A4",
          "ticks": 10320,
          "time": 9.2142765,
          "velocity": 0.8031496062992126
        },
        {
          "duration": 0.21428549999999902,
          "durationTicks": 240,
          "midi": 67,
          "name": "G4",
          "ticks": 10560,
          "time": 9.428562000000001,
          "velocity": 0.8031496062992126
        },
        {
          "duration": 0.2142855000000008,
          "durationTicks": 240,
          "midi": 66,
          "name": "F#4",
          "ticks": 10800,
          "time": 9.6428475,
          "velocity": 0.8031496062992126
        },
        {
          "duration": 0.21428549999999902,
          "durationTicks": 240,
          "midi": 64,
          "name": "E4",
          "ticks": 11040,
          "time": 9.857133000000001,
          "velocity": 0.8031496062992126
        },
        {
          "duration": 0.2142855000000008,
          "durationTicks": 240,
          "midi": 62,
          "name": "D4",
          "ticks": 11280,
          "time": 10.0714185,
          "velocity": 0.8031496062992126
        },
        {
          "duration": 0.2142855000000008,
          "durationTicks": 240,
          "midi": 64,
          "name": "E4",
          "ticks": 11520,
          "time": 10.285704,
          "velocity": 0.8031496062992126
        },
        {
          "duration": 0.10714274999999951,
          "durationTicks": 120,
          "midi": 71,
          "name": "B4",
          "ticks": 11880,
          "time": 10.607132250000001,
          "velocity": 0.8031496062992126
        },
        {
          "duration": 0.2142855000000008,
          "durationTicks": 240,
          "midi": 71,
          "name": "B4",
          "ticks": 12000,
          "time": 10.714275,
          "velocity": 0.8031496062992126
        },
        {
          "duration": 0.21428549999999902,
          "durationTicks": 240,
          "midi": 69,
          "name": "A4",
          "ticks": 12240,
          "time": 10.928560500000001,
          "velocity": 0.8031496062992126
        },
        {
          "duration": 0.2142855000000008,
          "durationTicks": 240,
          "midi": 71,
          "name": "B4",
          "ticks": 12480,
          "time": 11.142846,
          "velocity": 0.8031496062992126
        },
        {
          "duration": 0.21428549999999902,
          "durationTicks": 240,
          "midi": 74,
          "name": "D5",
          "ticks": 12720,
          "time": 11.357131500000001,
          "velocity": 0.8031496062992126
        },
        {
          "duration": 0.4285710000000016,
          "durationTicks": 480,
          "midi": 71,
          "name": "B4",
          "ticks": 12960,
          "time": 11.571417,
          "velocity": 0.8031496062992126
        },
        {
          "duration": 0.21428549999999902,
          "durationTicks": 240,
          "midi": 62,
          "name": "D4",
          "ticks": 13439,
          "time": 11.99909514375,
          "velocity": 0.8031496062992126
        },
        {
          "duration": 0.10714274999999951,
          "durationTicks": 120,
          "midi": 64,
          "name": "E4",
          "ticks": 13799,
          "time": 12.320523393750001,
          "velocity": 0.8031496062992126
        },
        {
          "duration": 0.21428549999999902,
          "durationTicks": 240,
          "midi": 67,
          "name": "G4",
          "ticks": 13919,
          "time": 12.42766614375,
          "velocity": 0.8031496062992126
        },
        {
          "duration": 0.2142855000000008,
          "durationTicks": 240,
          "midi": 66,
          "name": "F#4",
          "ticks": 14159,
          "time": 12.64195164375,
          "velocity": 0.8031496062992126
        },
        {
          "duration": 0.21428549999999902,
          "durationTicks": 240,
          "midi": 62,
          "name": "D4",
          "ticks": 14399,
          "time": 12.85623714375,
          "velocity": 0.8031496062992126
        },
        {
          "duration": 0.10714275000000129,
          "durationTicks": 120,
          "midi": 64,
          "name": "E4",
          "ticks": 14639,
          "time": 13.07052264375,
          "velocity": 0.8031496062992126
        },
        {
          "duration": 0.4285709999999998,
          "durationTicks": 480,
          "midi": 64,
          "name": "E4",
          "ticks": 14879,
          "time": 13.28480814375,
          "velocity": 0.8031496062992126
        },
        {
          "duration": 0.10714274999999951,
          "durationTicks": 120,
          "midi": 67,
          "name": "G4",
          "ticks": 15360,
          "time": 13.714272000000001,
          "velocity": 0.8031496062992126
        },
        {
          "duration": 0.10714274999999951,
          "durationTicks": 120,
          "midi": 71,
          "name": "B4",
          "ticks": 15840,
          "time": 14.142843000000001,
          "velocity": 0.8031496062992126
        },
        {
          "duration": 0.10714274999999951,
          "durationTicks": 120,
          "midi": 62,
          "name": "D4",
          "ticks": 16080,
          "time": 14.357128500000002,
          "velocity": 0.8031496062992126
        },
        {
          "duration": 0.10714275000000129,
          "durationTicks": 120,
          "midi": 64,
          "name": "E4",
          "ticks": 16320,
          "time": 14.571414,
          "velocity": 0.8031496062992126
        },
        {
          "duration": 0.10714275000000129,
          "durationTicks": 120,
          "midi": 64,
          "name": "E4",
          "ticks": 16800,
          "time": 14.999985,
          "velocity": 0.8031496062992126
        },
        {
          "duration": 0.10714274999999951,
          "durationTicks": 120,
          "midi": 67,
          "name": "G4",
          "ticks": 17040,
          "time": 15.214270500000001,
          "velocity": 0.8031496062992126
        },
        {
          "duration": 0.10714275000000129,
          "durationTicks": 120,
          "midi": 69,
          "name": "A4",
          "ticks": 17280,
          "time": 15.428556,
          "velocity": 0.8031496062992126
        },
        {
          "duration": 0.10714274999999951,
          "durationTicks": 120,
          "midi": 71,
          "name": "B4",
          "ticks": 17520,
          "time": 15.642841500000001,
          "velocity": 0.8031496062992126
        },
        {
          "duration": 0.10714275000000129,
          "durationTicks": 120,
          "midi": 69,
          "name": "A4",
          "ticks": 17640,
          "time": 15.74998425,
          "velocity": 0.8031496062992126
        },
        {
          "duration": 0.10714274999999951,
          "durationTicks": 120,
          "midi": 67,
          "name": "G4",
          "ticks": 17760,
          "time": 15.857127000000002,
          "velocity": 0.8031496062992126
        },
        {
          "duration": 0.10714275000000129,
          "durationTicks": 120,
          "midi": 62,
          "name": "D4",
          "ticks": 18000,
          "time": 16.0714125,
          "velocity": 0.8031496062992126
        },
        {
          "duration": 0.10714275000000129,
          "durationTicks": 120,
          "midi": 64,
          "name": "E4",
          "ticks": 18240,
          "time": 16.285698,
          "velocity": 0.8031496062992126
        },
        {
          "duration": 0.10714275000000129,
          "durationTicks": 120,
          "midi": 67,
          "name": "G4",
          "ticks": 19200,
          "time": 17.14284,
          "velocity": 0.8031496062992126
        },
        {
          "duration": 0.10714275000000129,
          "durationTicks": 120,
          "midi": 71,
          "name": "B4",
          "ticks": 19680,
          "time": 17.571411,
          "velocity": 0.8031496062992126
        },
        {
          "duration": 0.10714275000000129,
          "durationTicks": 120,
          "midi": 62,
          "name": "D4",
          "ticks": 19920,
          "time": 17.7856965,
          "velocity": 0.8031496062992126
        },
        {
          "duration": 0.10714274999999773,
          "durationTicks": 120,
          "midi": 64,
          "name": "E4",
          "ticks": 20160,
          "time": 17.999982000000003,
          "velocity": 0.8031496062992126
        },
        {
          "duration": 0.10714275000000129,
          "durationTicks": 120,
          "midi": 64,
          "name": "E4",
          "ticks": 20640,
          "time": 18.428553,
          "velocity": 0.8031496062992126
        },
        {
          "duration": 0.10714275000000129,
          "durationTicks": 120,
          "midi": 67,
          "name": "G4",
          "ticks": 20880,
          "time": 18.6428385,
          "velocity": 0.8031496062992126
        },
        {
          "duration": 0.10714274999999773,
          "durationTicks": 120,
          "midi": 69,
          "name": "A4",
          "ticks": 21120,
          "time": 18.857124000000002,
          "velocity": 0.8031496062992126
        },
        {
          "duration": 0.10714275000000129,
          "durationTicks": 120,
          "midi": 71,
          "name": "B4",
          "ticks": 21360,
          "time": 19.0714095,
          "velocity": 0.8031496062992126
        },
        {
          "duration": 0.10714274999999773,
          "durationTicks": 120,
          "midi": 69,
          "name": "A4",
          "ticks": 21480,
          "time": 19.178552250000003,
          "velocity": 0.8031496062992126
        },
        {
          "duration": 0.10714275000000129,
          "durationTicks": 120,
          "midi": 67,
          "name": "G4",
          "ticks": 21600,
          "time": 19.285695,
          "velocity": 0.8031496062992126
        },
        {
          "duration": 0.10714274999999773,
          "durationTicks": 120,
          "midi": 62,
          "name": "D4",
          "ticks": 21840,
          "time": 19.499980500000003,
          "velocity": 0.8031496062992126
        },
        {
          "duration": 0.10714275000000129,
          "durationTicks": 120,
          "midi": 64,
          "name": "E4",
          "ticks": 22080,
          "time": 19.714266000000002,
          "velocity": 0.8031496062992126
        },
        {
          "duration": 0.10714275000000129,
          "durationTicks": 120,
          "midi": 67,
          "name": "G4",
          "ticks": 23040,
          "time": 20.571408,
          "velocity": 0.8031496062992126
        },
        {
          "duration": 0.10714274999999773,
          "durationTicks": 120,
          "midi": 71,
          "name": "B4",
          "ticks": 23520,
          "time": 20.999979000000003,
          "velocity": 0.8031496062992126
        },
        {
          "duration": 0.10714274999999773,
          "durationTicks": 120,
          "midi": 62,
          "name": "D4",
          "ticks": 23760,
          "time": 21.214264500000002,
          "velocity": 0.8031496062992126
        },
        {
          "duration": 0.10714275000000129,
          "durationTicks": 120,
          "midi": 64,
          "name": "E4",
          "ticks": 24000,
          "time": 21.42855,
          "velocity": 0.8031496062992126
        },
        {
          "duration": 0.10714274999999773,
          "durationTicks": 120,
          "midi": 64,
          "name": "E4",
          "ticks": 24480,
          "time": 21.857121000000003,
          "velocity": 0.8031496062992126
        },
        {
          "duration": 0.10714275000000129,
          "durationTicks": 120,
          "midi": 67,
          "name": "G4",
          "ticks": 24720,
          "time": 22.071406500000002,
          "velocity": 0.8031496062992126
        },
        {
          "duration": 0.10714275000000129,
          "durationTicks": 120,
          "midi": 69,
          "name": "A4",
          "ticks": 24960,
          "time": 22.285692,
          "velocity": 0.8031496062992126
        },
        {
          "duration": 0.10714274999999773,
          "durationTicks": 120,
          "midi": 71,
          "name": "B4",
          "ticks": 25200,
          "time": 22.499977500000004,
          "velocity": 0.8031496062992126
        },
        {
          "duration": 0.10714275000000129,
          "durationTicks": 120,
          "midi": 69,
          "name": "A4",
          "ticks": 25320,
          "time": 22.60712025,
          "velocity": 0.8031496062992126
        },
        {
          "duration": 0.10714274999999773,
          "durationTicks": 120,
          "midi": 67,
          "name": "G4",
          "ticks": 25440,
          "time": 22.714263000000003,
          "velocity": 0.8031496062992126
        },
        {
          "duration": 0.10714275000000129,
          "durationTicks": 120,
          "midi": 74,
          "name": "D5",
          "ticks": 25680,
          "time": 22.9285485,
          "velocity": 0.8031496062992126
        },
        {
          "duration": 0.10714275000000129,
          "durationTicks": 120,
          "midi": 71,
          "name": "B4",
          "ticks": 25920,
          "time": 23.142834,
          "velocity": 0.8031496062992126
        },
        {
          "duration": 0.10714274999999773,
          "durationTicks": 120,
          "midi": 67,
          "name": "G4",
          "ticks": 26880,
          "time": 23.999976000000004,
          "velocity": 0.8031496062992126
        },
        {
          "duration": 0.10714275000000129,
          "durationTicks": 120,
          "midi": 71,
          "name": "B4",
          "ticks": 27360,
          "time": 24.428547000000002,
          "velocity": 0.8031496062992126
        },
        {
          "duration": 0.10714275000000129,
          "durationTicks": 120,
          "midi": 62,
          "name": "D4",
          "ticks": 27600,
          "time": 24.6428325,
          "velocity": 0.8031496062992126
        },
        {
          "duration": 0.10714274999999773,
          "durationTicks": 120,
          "midi": 64,
          "name": "E4",
          "ticks": 27840,
          "time": 24.857118000000003,
          "velocity": 0.8031496062992126
        },
        {
          "duration": 0.10714275000000129,
          "durationTicks": 120,
          "midi": 64,
          "name": "E4",
          "ticks": 28320,
          "time": 25.285689,
          "velocity": 0.8031496062992126
        },
        {
          "duration": 0.10714275000000129,
          "durationTicks": 120,
          "midi": 67,
          "name": "G4",
          "ticks": 28560,
          "time": 25.4999745,
          "velocity": 0.8031496062992126
        },
        {
          "duration": 0.10714274999999773,
          "durationTicks": 120,
          "midi": 69,
          "name": "A4",
          "ticks": 28800,
          "time": 25.714260000000003,
          "velocity": 0.8031496062992126
        },
        {
          "duration": 0.10714275000000129,
          "durationTicks": 120,
          "midi": 71,
          "name": "B4",
          "ticks": 29040,
          "time": 25.928545500000002,
          "velocity": 0.8031496062992126
        },
        {
          "duration": 0.10714274999999773,
          "durationTicks": 120,
          "midi": 69,
          "name": "A4",
          "ticks": 29160,
          "time": 26.035688250000003,
          "velocity": 0.8031496062992126
        },
        {
          "duration": 0.10714275000000129,
          "durationTicks": 120,
          "midi": 67,
          "name": "G4",
          "ticks": 29280,
          "time": 26.142831,
          "velocity": 0.8031496062992126
        },
        {
          "duration": 0.10714274999999773,
          "durationTicks": 120,
          "midi": 62,
          "name": "D4",
          "ticks": 29520,
          "time": 26.357116500000004,
          "velocity": 0.8031496062992126
        },
        {
          "duration": 0.10714275000000129,
          "durationTicks": 120,
          "midi": 64,
          "name": "E4",
          "ticks": 29760,
          "time": 26.571402000000003,
          "velocity": 0.8031496062992126
        },
        {
          "duration": 0.10714275000000129,
          "durationTicks": 120,
          "midi": 64,
          "name": "E4",
          "ticks": 30720,
          "time": 27.428544000000002,
          "velocity": 0.8031496062992126
        },
        {
          "duration": 0.10714274999999773,
          "durationTicks": 120,
          "midi": 64,
          "name": "E4",
          "ticks": 31440,
          "time": 28.071400500000003,
          "velocity": 0.8031496062992126
        },
        {
          "duration": 0.10714275000000129,
          "durationTicks": 120,
          "midi": 67,
          "name": "G4",
          "ticks": 31680,
          "time": 28.285686000000002,
          "velocity": 0.8031496062992126
        },
        {
          "duration": 0.10714275000000129,
          "durationTicks": 120,
          "midi": 71,
          "name": "B4",
          "ticks": 32400,
          "time": 28.928542500000002,
          "velocity": 0.8031496062992126
        },
        {
          "duration": 0.10714275000000129,
          "durationTicks": 120,
          "midi": 69,
          "name": "A4",
          "ticks": 32640,
          "time": 29.142828,
          "velocity": 0.8031496062992126
        },
        {
          "duration": 0.10714275000000129,
          "durationTicks": 120,
          "midi": 69,
          "name": "A4",
          "ticks": 33000,
          "time": 29.464256250000002,
          "velocity": 0.8031496062992126
        },
        {
          "duration": 0.10714275000000129,
          "durationTicks": 120,
          "midi": 66,
          "name": "F#4",
          "ticks": 33360,
          "time": 29.785684500000002,
          "velocity": 0.8031496062992126
        },
        {
          "duration": 0.10714275000000129,
          "durationTicks": 120,
          "midi": 64,
          "name": "E4",
          "ticks": 33600,
          "time": 29.99997,
          "velocity": 0.8031496062992126
        },
        {
          "duration": 0.10714275000000129,
          "durationTicks": 120,
          "midi": 64,
          "name": "E4",
          "ticks": 34560,
          "time": 30.857112,
          "velocity": 0.8031496062992126
        },
        {
          "duration": 0.10714275000000129,
          "durationTicks": 120,
          "midi": 64,
          "name": "E4",
          "ticks": 35280,
          "time": 31.4999685,
          "velocity": 0.8031496062992126
        },
        {
          "duration": 0.10714274999999773,
          "durationTicks": 120,
          "midi": 67,
          "name": "G4",
          "ticks": 35520,
          "time": 31.714254000000004,
          "velocity": 0.8031496062992126
        },
        {
          "duration": 0.10714275000000129,
          "durationTicks": 120,
          "midi": 71,
          "name": "B4",
          "ticks": 36240,
          "time": 32.357110500000005,
          "velocity": 0.8031496062992126
        },
        {
          "duration": 0.10714275000000129,
          "durationTicks": 120,
          "midi": 69,
          "name": "A4",
          "ticks": 36480,
          "time": 32.571396,
          "velocity": 0.8031496062992126
        },
        {
          "duration": 0.10714275000000129,
          "durationTicks": 120,
          "midi": 67,
          "name": "G4",
          "ticks": 36840,
          "time": 32.892824250000004,
          "velocity": 0.8031496062992126
        },
        {
          "duration": 0.10714275000000129,
          "durationTicks": 120,
          "midi": 69,
          "name": "A4",
          "ticks": 37200,
          "time": 33.2142525,
          "velocity": 0.8031496062992126
        },
        {
          "duration": 0.10714275000000129,
          "durationTicks": 120,
          "midi": 71,
          "name": "B4",
          "ticks": 37440,
          "time": 33.428538,
          "velocity": 0.8031496062992126
        },
        {
          "duration": 0.10714275000000129,
          "durationTicks": 120,
          "midi": 69,
          "name": "A4",
          "ticks": 37920,
          "time": 33.857109,
          "velocity": 0.8031496062992126
        },
        {
          "duration": 0.10714275000000129,
          "durationTicks": 120,
          "midi": 64,
          "name": "E4",
          "ticks": 38400,
          "time": 34.28568,
          "velocity": 0.8031496062992126
        },
        {
          "duration": 0.10714275000000129,
          "durationTicks": 120,
          "midi": 64,
          "name": "E4",
          "ticks": 39120,
          "time": 34.9285365,
          "velocity": 0.8031496062992126
        },
        {
          "duration": 0.10714275000000129,
          "durationTicks": 120,
          "midi": 67,
          "name": "G4",
          "ticks": 39360,
          "time": 35.142822,
          "velocity": 0.8031496062992126
        },
        {
          "duration": 0.10714275000000129,
          "durationTicks": 120,
          "midi": 71,
          "name": "B4",
          "ticks": 40080,
          "time": 35.7856785,
          "velocity": 0.8031496062992126
        },
        {
          "duration": 0.10714274999999418,
          "durationTicks": 120,
          "midi": 69,
          "name": "A4",
          "ticks": 40320,
          "time": 35.999964000000006,
          "velocity": 0.8031496062992126
        },
        {
          "duration": 0.10714275000000129,
          "durationTicks": 120,
          "midi": 69,
          "name": "A4",
          "ticks": 40680,
          "time": 36.32139225,
          "velocity": 0.8031496062992126
        },
        {
          "duration": 0.10714274999999418,
          "durationTicks": 120,
          "midi": 66,
          "name": "F#4",
          "ticks": 41040,
          "time": 36.642820500000006,
          "velocity": 0.8031496062992126
        },
        {
          "duration": 0.10714275000000129,
          "durationTicks": 120,
          "midi": 64,
          "name": "E4",
          "ticks": 41280,
          "time": 36.857106,
          "velocity": 0.8031496062992126
        },
        {
          "duration": 0.10714275000000129,
          "durationTicks": 120,
          "midi": 64,
          "name": "E4",
          "ticks": 42240,
          "time": 37.714248000000005,
          "velocity": 0.8031496062992126
        },
        {
          "duration": 0.10714274999999418,
          "durationTicks": 120,
          "midi": 64,
          "name": "E4",
          "ticks": 42960,
          "time": 38.357104500000005,
          "velocity": 0.8031496062992126
        },
        {
          "duration": 0.10714275000000129,
          "durationTicks": 120,
          "midi": 67,
          "name": "G4",
          "ticks": 43200,
          "time": 38.57139,
          "velocity": 0.8031496062992126
        },
        {
          "duration": 0.10714275000000129,
          "durationTicks": 120,
          "midi": 71,
          "name": "B4",
          "ticks": 43920,
          "time": 39.2142465,
          "velocity": 0.8031496062992126
        },
        {
          "duration": 0.10714275000000129,
          "durationTicks": 120,
          "midi": 69,
          "name": "A4",
          "ticks": 44160,
          "time": 39.428532000000004,
          "velocity": 0.8031496062992126
        },
        {
          "duration": 0.10714275000000129,
          "durationTicks": 120,
          "midi": 69,
          "name": "A4",
          "ticks": 44520,
          "time": 39.74996025,
          "velocity": 0.8031496062992126
        },
        {
          "duration": 0.10714275000000129,
          "durationTicks": 120,
          "midi": 67,
          "name": "G4",
          "ticks": 44880,
          "time": 40.071388500000005,
          "velocity": 0.8031496062992126
        },
        {
          "duration": 0.10714275000000129,
          "durationTicks": 120,
          "midi": 64,
          "name": "E4",
          "ticks": 45120,
          "time": 40.285674,
          "velocity": 0.8031496062992126
        },
        {
          "duration": 0.21428550000000257,
          "durationTicks": 240,
          "midi": 52,
          "name": "E3",
          "ticks": 46080,
          "time": 41.142816,
          "velocity": 0.8031496062992126
        },
        {
          "duration": 0.10714275000000129,
          "durationTicks": 120,
          "midi": 52,
          "name": "E3",
          "ticks": 46440,
          "time": 41.46424425,
          "velocity": 0.8031496062992126
        },
        {
          "duration": 0.10714275000000129,
          "durationTicks": 120,
          "midi": 50,
          "name": "D3",
          "ticks": 46800,
          "time": 41.785672500000004,
          "velocity": 0.8031496062992126
        },
        {
          "duration": 0.10714275000000129,
          "durationTicks": 120,
          "midi": 52,
          "name": "E3",
          "ticks": 46920,
          "time": 41.892815250000005,
          "velocity": 0.8031496062992126
        },
        {
          "duration": 0.21428549999999547,
          "durationTicks": 240,
          "midi": 55,
          "name": "G3",
          "ticks": 47040,
          "time": 41.99995800000001,
          "velocity": 0.8031496062992126
        },
        {
          "duration": 0.10714275000000129,
          "durationTicks": 120,
          "midi": 55,
          "name": "G3",
          "ticks": 47400,
          "time": 42.32138625,
          "velocity": 0.8031496062992126
        },
        {
          "duration": 0.10714275000000129,
          "durationTicks": 120,
          "midi": 55,
          "name": "G3",
          "ticks": 47760,
          "time": 42.6428145,
          "velocity": 0.8031496062992126
        },
        {
          "duration": 0.10714275000000129,
          "durationTicks": 120,
          "midi": 59,
          "name": "B3",
          "ticks": 47880,
          "time": 42.74995725,
          "velocity": 0.8031496062992126
        },
        {
          "duration": 0.21428550000000257,
          "durationTicks": 240,
          "midi": 57,
          "name": "A3",
          "ticks": 48000,
          "time": 42.8571,
          "velocity": 0.8031496062992126
        },
        {
          "duration": 0.10714274999999418,
          "durationTicks": 120,
          "midi": 57,
          "name": "A3",
          "ticks": 48360,
          "time": 43.17852825000001,
          "velocity": 0.8031496062992126
        },
        {
          "duration": 0.10714275000000129,
          "durationTicks": 120,
          "midi": 55,
          "name": "G3",
          "ticks": 48720,
          "time": 43.4999565,
          "velocity": 0.8031496062992126
        },
        {
          "duration": 0.10714275000000129,
          "durationTicks": 120,
          "midi": 54,
          "name": "F#3",
          "ticks": 48840,
          "time": 43.607099250000005,
          "velocity": 0.8031496062992126
        },
        {
          "duration": 0.42857099999999804,
          "durationTicks": 480,
          "midi": 52,
          "name": "E3",
          "ticks": 48960,
          "time": 43.714242000000006,
          "velocity": 0.8031496062992126
        },
        {
          "duration": 0.21428550000000257,
          "durationTicks": 240,
          "midi": 52,
          "name": "E3",
          "ticks": 49920,
          "time": 44.571384,
          "velocity": 0.8031496062992126
        },
        {
          "duration": 0.10714275000000129,
          "durationTicks": 120,
          "midi": 52,
          "name": "E3",
          "ticks": 50280,
          "time": 44.892812250000006,
          "velocity": 0.8031496062992126
        },
        {
          "duration": 0.10714275000000129,
          "durationTicks": 120,
          "midi": 50,
          "name": "D3",
          "ticks": 50640,
          "time": 45.2142405,
          "velocity": 0.8031496062992126
        },
        {
          "duration": 0.10714275000000129,
          "durationTicks": 120,
          "midi": 52,
          "name": "E3",
          "ticks": 50760,
          "time": 45.321383250000004,
          "velocity": 0.8031496062992126
        },
        {
          "duration": 0.21428549999999547,
          "durationTicks": 240,
          "midi": 55,
          "name": "G3",
          "ticks": 50880,
          "time": 45.428526000000005,
          "velocity": 0.8031496062992126
        },
        {
          "duration": 0.10714275000000129,
          "durationTicks": 120,
          "midi": 55,
          "name": "G3",
          "ticks": 51240,
          "time": 45.74995425,
          "velocity": 0.8031496062992126
        },
        {
          "duration": 0.10714275000000129,
          "durationTicks": 120,
          "midi": 55,
          "name": "G3",
          "ticks": 51600,
          "time": 46.071382500000006,
          "velocity": 0.8031496062992126
        },
        {
          "duration": 0.10714274999999418,
          "durationTicks": 120,
          "midi": 59,
          "name": "B3",
          "ticks": 51720,
          "time": 46.17852525000001,
          "velocity": 0.8031496062992126
        },
        {
          "duration": 0.21428550000000257,
          "durationTicks": 240,
          "midi": 57,
          "name": "A3",
          "ticks": 51840,
          "time": 46.285668,
          "velocity": 0.8031496062992126
        },
        {
          "duration": 0.10714275000000129,
          "durationTicks": 120,
          "midi": 57,
          "name": "A3",
          "ticks": 52200,
          "time": 46.607096250000005,
          "velocity": 0.8031496062992126
        },
        {
          "duration": 0.10714275000000129,
          "durationTicks": 120,
          "midi": 59,
          "name": "B3",
          "ticks": 52560,
          "time": 46.9285245,
          "velocity": 0.8031496062992126
        },
        {
          "duration": 0.10714275000000129,
          "durationTicks": 120,
          "midi": 62,
          "name": "D4",
          "ticks": 52680,
          "time": 47.03566725,
          "velocity": 0.8031496062992126
        },
        {
          "duration": 0.42857099999999804,
          "durationTicks": 480,
          "midi": 59,
          "name": "B3",
          "ticks": 52800,
          "time": 47.142810000000004,
          "velocity": 0.8031496062992126
        },
        {
          "duration": 0.21428549999999547,
          "durationTicks": 240,
          "midi": 52,
          "name": "E3",
          "ticks": 53760,
          "time": 47.99995200000001,
          "velocity": 0.8031496062992126
        },
        {
          "duration": 0.10714275000000129,
          "durationTicks": 120,
          "midi": 52,
          "name": "E3",
          "ticks": 54120,
          "time": 48.321380250000004,
          "velocity": 0.8031496062992126
        },
        {
          "duration": 0.10714275000000129,
          "durationTicks": 120,
          "midi": 50,
          "name": "D3",
          "ticks": 54480,
          "time": 48.6428085,
          "velocity": 0.8031496062992126
        },
        {
          "duration": 0.10714275000000129,
          "durationTicks": 120,
          "midi": 52,
          "name": "E3",
          "ticks": 54600,
          "time": 48.74995125,
          "velocity": 0.8031496062992126
        },
        {
          "duration": 0.21428550000000257,
          "durationTicks": 240,
          "midi": 55,
          "name": "G3",
          "ticks": 54720,
          "time": 48.857094000000004,
          "velocity": 0.8031496062992126
        },
        {
          "duration": 0.10714274999999418,
          "durationTicks": 120,
          "midi": 55,
          "name": "G3",
          "ticks": 55080,
          "time": 49.17852225000001,
          "velocity": 0.8031496062992126
        },
        {
          "duration": 0.10714275000000129,
          "durationTicks": 120,
          "midi": 55,
          "name": "G3",
          "ticks": 55440,
          "time": 49.499950500000004,
          "velocity": 0.8031496062992126
        },
        {
          "duration": 0.10714275000000129,
          "durationTicks": 120,
          "midi": 59,
          "name": "B3",
          "ticks": 55560,
          "time": 49.607093250000005,
          "velocity": 0.8031496062992126
        },
        {
          "duration": 0.21428549999999547,
          "durationTicks": 240,
          "midi": 57,
          "name": "A3",
          "ticks": 55680,
          "time": 49.71423600000001,
          "velocity": 0.8031496062992126
        },
        {
          "duration": 0.10714275000000129,
          "durationTicks": 120,
          "midi": 57,
          "name": "A3",
          "ticks": 56040,
          "time": 50.03566425,
          "velocity": 0.8031496062992126
        },
        {
          "duration": 0.10714274999999418,
          "durationTicks": 120,
          "midi": 55,
          "name": "G3",
          "ticks": 56400,
          "time": 50.35709250000001,
          "velocity": 0.8031496062992126
        },
        {
          "duration": 0.10714275000000129,
          "durationTicks": 120,
          "midi": 54,
          "name": "F#3",
          "ticks": 56520,
          "time": 50.46423525,
          "velocity": 0.8031496062992126
        },
        {
          "duration": 0.42857099999999804,
          "durationTicks": 480,
          "midi": 52,
          "name": "E3",
          "ticks": 56640,
          "time": 50.571378,
          "velocity": 0.8031496062992126
        },
        {
          "duration": 0.21428549999999547,
          "durationTicks": 240,
          "midi": 52,
          "name": "E3",
          "ticks": 57600,
          "time": 51.428520000000006,
          "velocity": 0.8031496062992126
        },
        {
          "duration": 0.10714275000000129,
          "durationTicks": 120,
          "midi": 52,
          "name": "E3",
          "ticks": 57960,
          "time": 51.74994825,
          "velocity": 0.8031496062992126
        },
        {
          "duration": 0.10714274999999418,
          "durationTicks": 120,
          "midi": 52,
          "name": "E3",
          "ticks": 58320,
          "time": 52.07137650000001,
          "velocity": 0.8031496062992126
        },
        {
          "duration": 0.10714275000000129,
          "durationTicks": 120,
          "midi": 52,
          "name": "E3",
          "ticks": 58440,
          "time": 52.17851925,
          "velocity": 0.8031496062992126
        },
        {
          "duration": 0.21428550000000257,
          "durationTicks": 240,
          "midi": 55,
          "name": "G3",
          "ticks": 58560,
          "time": 52.285662,
          "velocity": 0.8031496062992126
        },
        {
          "duration": 0.10714275000000129,
          "durationTicks": 120,
          "midi": 55,
          "name": "G3",
          "ticks": 58920,
          "time": 52.607090250000006,
          "velocity": 0.8031496062992126
        },
        {
          "duration": 0.10714275000000129,
          "durationTicks": 120,
          "midi": 55,
          "name": "G3",
          "ticks": 59280,
          "time": 52.9285185,
          "velocity": 0.8031496062992126
        },
        {
          "duration": 0.10714275000000129,
          "durationTicks": 120,
          "midi": 55,
          "name": "G3",
          "ticks": 59400,
          "time": 53.035661250000004,
          "velocity": 0.8031496062992126
        },
        {
          "duration": 0.21428550000000257,
          "durationTicks": 240,
          "midi": 57,
          "name": "A3",
          "ticks": 59520,
          "time": 53.142804000000005,
          "velocity": 0.8031496062992126
        },
        {
          "duration": 0.10714275000000129,
          "durationTicks": 120,
          "midi": 57,
          "name": "A3",
          "ticks": 59880,
          "time": 53.46423225,
          "velocity": 0.8031496062992126
        },
        {
          "duration": 0.10714275000000129,
          "durationTicks": 120,
          "midi": 57,
          "name": "A3",
          "ticks": 60240,
          "time": 53.785660500000006,
          "velocity": 0.8031496062992126
        },
        {
          "duration": 0.10714274999999418,
          "durationTicks": 120,
          "midi": 58,
          "name": "A#3",
          "ticks": 60360,
          "time": 53.89280325000001,
          "velocity": 0.8031496062992126
        },
        {
          "duration": 0.42857100000000514,
          "durationTicks": 480,
          "midi": 59,
          "name": "B3",
          "ticks": 60480,
          "time": 53.999946,
          "velocity": 0.8031496062992126
        },
        {
          "duration": 0.10714275000000129,
          "durationTicks": 120,
          "midi": 59,
          "name": "B3",
          "ticks": 61200,
          "time": 54.6428025,
          "velocity": 0.4015748031496063
        },
        {
          "duration": 0.10714275000000129,
          "durationTicks": 120,
          "midi": 62,
          "name": "D4",
          "ticks": 61320,
          "time": 54.74994525,
          "velocity": 0.4015748031496063
        },
        {
          "duration": 0.32142824999999675,
          "durationTicks": 360,
          "midi": 64,
          "name": "E4",
          "ticks": 61440,
          "time": 54.857088000000005,
          "velocity": 0.4015748031496063
        },
        {
          "duration": 0.32142825000000386,
          "durationTicks": 360,
          "midi": 64,
          "name": "E4",
          "ticks": 61800,
          "time": 55.17851625,
          "velocity": 0.4015748031496063
        },
        {
          "duration": 0.21428550000000257,
          "durationTicks": 240,
          "midi": 64,
          "name": "E4",
          "ticks": 62160,
          "time": 55.499944500000005,
          "velocity": 0.4015748031496063
        },
        {
          "duration": 0.32142824999999675,
          "durationTicks": 360,
          "midi": 62,
          "name": "D4",
          "ticks": 62400,
          "time": 55.71423000000001,
          "velocity": 0.4015748031496063
        },
        {
          "duration": 0.32142824999999675,
          "durationTicks": 360,
          "midi": 59,
          "name": "B3",
          "ticks": 62760,
          "time": 56.035658250000004,
          "velocity": 0.4015748031496063
        },
        {
          "duration": 0.21428550000000257,
          "durationTicks": 240,
          "midi": 62,
          "name": "D4",
          "ticks": 63120,
          "time": 56.3570865,
          "velocity": 0.4015748031496063
        },
        {
          "duration": 0.32142825000000386,
          "durationTicks": 360,
          "midi": 64,
          "name": "E4",
          "ticks": 63360,
          "time": 56.571372000000004,
          "velocity": 0.4015748031496063
        },
        {
          "duration": 0.32142824999999675,
          "durationTicks": 360,
          "midi": 67,
          "name": "G4",
          "ticks": 63720,
          "time": 56.89280025000001,
          "velocity": 0.4015748031496063
        },
        {
          "duration": 0.21428550000000257,
          "durationTicks": 240,
          "midi": 66,
          "name": "F#4",
          "ticks": 64080,
          "time": 57.214228500000004,
          "velocity": 0.4015748031496063
        },
        {
          "duration": 0.42857099999999804,
          "durationTicks": 480,
          "midi": 64,
          "name": "E4",
          "ticks": 64320,
          "time": 57.42851400000001,
          "velocity": 0.4015748031496063
        },
        {
          "duration": 0.10714274999999418,
          "durationTicks": 120,
          "midi": 59,
          "name": "B3",
          "ticks": 65040,
          "time": 58.07137050000001,
          "velocity": 0.4015748031496063
        },
        {
          "duration": 0.10714275000000129,
          "durationTicks": 120,
          "midi": 62,
          "name": "D4",
          "ticks": 65160,
          "time": 58.17851325,
          "velocity": 0.4015748031496063
        },
        {
          "duration": 0.32142825000000386,
          "durationTicks": 360,
          "midi": 64,
          "name": "E4",
          "ticks": 65280,
          "time": 58.285656,
          "velocity": 0.4015748031496063
        },
        {
          "duration": 0.32142824999999675,
          "durationTicks": 360,
          "midi": 64,
          "name": "E4",
          "ticks": 65640,
          "time": 58.60708425000001,
          "velocity": 0.4015748031496063
        },
        {
          "duration": 0.21428550000000257,
          "durationTicks": 240,
          "midi": 64,
          "name": "E4",
          "ticks": 66000,
          "time": 58.928512500000004,
          "velocity": 0.4015748031496063
        },
        {
          "duration": 0.32142824999999675,
          "durationTicks": 360,
          "midi": 62,
          "name": "D4",
          "ticks": 66240,
          "time": 59.142798000000006,
          "velocity": 0.4015748031496063
        },
        {
          "duration": 0.32142825000000386,
          "durationTicks": 360,
          "midi": 57,
          "name": "A3",
          "ticks": 66600,
          "time": 59.46422625,
          "velocity": 0.4015748031496063
        },
        {
          "duration": 0.21428549999999547,
          "durationTicks": 240,
          "midi": 62,
          "name": "D4",
          "ticks": 66960,
          "time": 59.78565450000001,
          "velocity": 0.4015748031496063
        },
        {
          "duration": 1.2857130000000012,
          "durationTicks": 1440,
          "midi": 59,
          "name": "B3",
          "ticks": 67200,
          "time": 59.99994,
          "velocity": 0.4015748031496063
        },
        {
          "duration": 0.10714275000000129,
          "durationTicks": 120,
          "midi": 59,
          "name": "B3",
          "ticks": 68880,
          "time": 61.499938500000006,
          "velocity": 0.4015748031496063
        },
        {
          "duration": 0.10714274999999418,
          "durationTicks": 120,
          "midi": 62,
          "name": "D4",
          "ticks": 69000,
          "time": 61.60708125000001,
          "velocity": 0.4015748031496063
        },
        {
          "duration": 0.32142825000000386,
          "durationTicks": 360,
          "midi": 64,
          "name": "E4",
          "ticks": 69120,
          "time": 61.714224,
          "velocity": 0.4015748031496063
        },
        {
          "duration": 0.32142824999999675,
          "durationTicks": 360,
          "midi": 64,
          "name": "E4",
          "ticks": 69480,
          "time": 62.035652250000005,
          "velocity": 0.4015748031496063
        },
        {
          "duration": 0.21428550000000257,
          "durationTicks": 240,
          "midi": 64,
          "name": "E4",
          "ticks": 69840,
          "time": 62.3570805,
          "velocity": 0.4015748031496063
        },
        {
          "duration": 0.32142825000000386,
          "durationTicks": 360,
          "midi": 62,
          "name": "D4",
          "ticks": 70080,
          "time": 62.571366000000005,
          "velocity": 0.4015748031496063
        },
        {
          "duration": 0.32142824999999675,
          "durationTicks": 360,
          "midi": 59,
          "name": "B3",
          "ticks": 70440,
          "time": 62.89279425000001,
          "velocity": 0.4015748031496063
        },
        {
          "duration": 0.21428550000000257,
          "durationTicks": 240,
          "midi": 62,
          "name": "D4",
          "ticks": 70800,
          "time": 63.214222500000005,
          "velocity": 0.4015748031496063
        },
        {
          "duration": 0.32142824999999675,
          "durationTicks": 360,
          "midi": 64,
          "name": "E4",
          "ticks": 71040,
          "time": 63.42850800000001,
          "velocity": 0.4015748031496063
        },
        {
          "duration": 0.32142824999999675,
          "durationTicks": 360,
          "midi": 67,
          "name": "G4",
          "ticks": 71400,
          "time": 63.749936250000005,
          "velocity": 0.4015748031496063
        },
        {
          "duration": 0.21428550000000257,
          "durationTicks": 240,
          "midi": 66,
          "name": "F#4",
          "ticks": 71760,
          "time": 64.0713645,
          "velocity": 0.4015748031496063
        },
        {
          "duration": 0.42857100000000514,
          "durationTicks": 480,
          "midi": 64,
          "name": "E4",
          "ticks": 72000,
          "time": 64.28565,
          "velocity": 0.4015748031496063
        },
        {
          "duration": 0.10714274999999418,
          "durationTicks": 120,
          "midi": 59,
          "name": "B3",
          "ticks": 72720,
          "time": 64.92850650000001,
          "velocity": 0.4015748031496063
        },
        {
          "duration": 0.10714274999999418,
          "durationTicks": 120,
          "midi": 62,
          "name": "D4",
          "ticks": 72840,
          "time": 65.03564925,
          "velocity": 0.4015748031496063
        },
        {
          "duration": 0.32142825000001096,
          "durationTicks": 360,
          "midi": 64,
          "name": "E4",
          "ticks": 72960,
          "time": 65.142792,
          "velocity": 0.4015748031496063
        },
        {
          "duration": 0.32142824999999675,
          "durationTicks": 360,
          "midi": 64,
          "name": "E4",
          "ticks": 73320,
          "time": 65.46422025000001,
          "velocity": 0.4015748031496063
        },
        {
          "duration": 0.21428550000000257,
          "durationTicks": 240,
          "midi": 64,
          "name": "E4",
          "ticks": 73680,
          "time": 65.78564850000001,
          "velocity": 0.4015748031496063
        },
        {
          "duration": 0.32142824999999675,
          "durationTicks": 360,
          "midi": 62,
          "name": "D4",
          "ticks": 73920,
          "time": 65.99993400000001,
          "velocity": 0.4015748031496063
        },
        {
          "duration": 0.32142824999999675,
          "durationTicks": 360,
          "midi": 59,
          "name": "B3",
          "ticks": 74280,
          "time": 66.32136225,
          "velocity": 0.4015748031496063
        },
        {
          "duration": 0.21428550000000257,
          "durationTicks": 240,
          "midi": 62,
          "name": "D4",
          "ticks": 74640,
          "time": 66.6427905,
          "velocity": 0.4015748031496063
        },
        {
          "duration": 1.2857130000000012,
          "durationTicks": 1440,
          "midi": 64,
          "name": "E4",
          "ticks": 74880,
          "time": 66.857076,
          "velocity": 0.4015748031496063
        },
        {
          "duration": 0.21428550000000257,
          "durationTicks": 240,
          "midi": 59,
          "name": "B3",
          "ticks": 76320,
          "time": 68.14278900000001,
          "velocity": 0.4015748031496063
        },
        {
          "duration": 0.21428549999998836,
          "durationTicks": 240,
          "midi": 62,
          "name": "D4",
          "ticks": 76560,
          "time": 68.35707450000001,
          "velocity": 0.4015748031496063
        },
        {
          "duration": 0.053571375000004195,
          "durationTicks": 60,
          "midi": 76,
          "name": "E5",
          "ticks": 80639,
          "time": 71.99903514375,
          "velocity": 0.8031496062992126
        },
        {
          "duration": 0.052678518749999625,
          "durationTicks": 59,
          "midi": 81,
          "name": "A5",
          "ticks": 80760,
          "time": 72.10707075,
          "velocity": 0.8031496062992126
        },
        {
          "duration": 0.053571375000004195,
          "durationTicks": 60,
          "midi": 84,
          "name": "C6",
          "ticks": 80879,
          "time": 72.21332064375001,
          "velocity": 0.8031496062992126
        },
        {
          "duration": 0.053571375000004195,
          "durationTicks": 60,
          "midi": 88,
          "name": "E6",
          "ticks": 80999,
          "time": 72.32046339375,
          "velocity": 0.8031496062992126
        },
        {
          "duration": 0.053571374999989985,
          "durationTicks": 60,
          "midi": 88,
          "name": "E6",
          "ticks": 81119,
          "time": 72.42760614375001,
          "velocity": 0.8031496062992126
        },
        {
          "duration": 0.054464231249994555,
          "durationTicks": 61,
          "midi": 91,
          "name": "G6",
          "ticks": 81239,
          "time": 72.53474889375,
          "velocity": 0.8031496062992126
        },
        {
          "duration": 0.054464231250008766,
          "durationTicks": 61,
          "midi": 95,
          "name": "B6",
          "ticks": 81359,
          "time": 72.64189164375,
          "velocity": 0.8031496062992126
        },
        {
          "duration": 0.054464231249994555,
          "durationTicks": 61,
          "midi": 98,
          "name": "D7",
          "ticks": 81479,
          "time": 72.74903439375001,
          "velocity": 0.8031496062992126
        },
        {
          "duration": 0.054464231250008766,
          "durationTicks": 61,
          "midi": 98,
          "name": "D7",
          "ticks": 81599,
          "time": 72.85617714375,
          "velocity": 0.8031496062992126
        },
        {
          "duration": 0.054464231249994555,
          "durationTicks": 61,
          "midi": 95,
          "name": "B6",
          "ticks": 81719,
          "time": 72.96331989375001,
          "velocity": 0.8031496062992126
        },
        {
          "duration": 0.054464231249994555,
          "durationTicks": 61,
          "midi": 91,
          "name": "G6",
          "ticks": 81839,
          "time": 73.07046264375,
          "velocity": 0.8031496062992126
        },
        {
          "duration": 0.054464231249994555,
          "durationTicks": 61,
          "midi": 88,
          "name": "E6",
          "ticks": 81959,
          "time": 73.17760539375001,
          "velocity": 0.8031496062992126
        },
        {
          "duration": 0.053571375000004195,
          "durationTicks": 60,
          "midi": 88,
          "name": "E6",
          "ticks": 82079,
          "time": 73.28474814375001,
          "velocity": 0.8031496062992126
        },
        {
          "duration": 0.054464231250008766,
          "durationTicks": 61,
          "midi": 84,
          "name": "C6",
          "ticks": 82199,
          "time": 73.39189089375,
          "velocity": 0.8031496062992126
        },
        {
          "duration": 0.054464231249994555,
          "durationTicks": 61,
          "midi": 81,
          "name": "A5",
          "ticks": 82319,
          "time": 73.49903364375001,
          "velocity": 0.8031496062992126
        },
        {
          "duration": 0.053571375000004195,
          "durationTicks": 60,
          "midi": 76,
          "name": "E5",
          "ticks": 82439,
          "time": 73.60617639375,
          "velocity": 0.8031496062992126
        },
        {
          "duration": 0.053571375000004195,
          "durationTicks": 60,
          "midi": 81,
          "name": "A5",
          "ticks": 82560,
          "time": 73.714212,
          "velocity": 0.8031496062992126
        },
        {
          "duration": 0.054464231249994555,
          "durationTicks": 61,
          "midi": 76,
          "name": "E5",
          "ticks": 82679,
          "time": 73.82046189375001,
          "velocity": 0.8031496062992126
        },
        {
          "duration": 0.053571375000004195,
          "durationTicks": 60,
          "midi": 81,
          "name": "A5",
          "ticks": 82800,
          "time": 73.9284975,
          "velocity": 0.8031496062992126
        },
        {
          "duration": 0.053571375000004195,
          "durationTicks": 60,
          "midi": 84,
          "name": "C6",
          "ticks": 82920,
          "time": 74.03564025,
          "velocity": 0.8031496062992126
        },
        {
          "duration": 0.054464231250008766,
          "durationTicks": 61,
          "midi": 88,
          "name": "E6",
          "ticks": 83039,
          "time": 74.14189014375,
          "velocity": 0.8031496062992126
        },
        {
          "duration": 0.053571375000004195,
          "durationTicks": 60,
          "midi": 91,
          "name": "G6",
          "ticks": 83160,
          "time": 74.24992575,
          "velocity": 0.8031496062992126
        },
        {
          "duration": 0.053571374999989985,
          "durationTicks": 60,
          "midi": 95,
          "name": "B6",
          "ticks": 83280,
          "time": 74.35706850000001,
          "velocity": 0.8031496062992126
        },
        {
          "duration": 0.053571375000004195,
          "durationTicks": 60,
          "midi": 91,
          "name": "G6",
          "ticks": 83400,
          "time": 74.46421125,
          "velocity": 0.8031496062992126
        },
        {
          "duration": 0.053571375000004195,
          "durationTicks": 60,
          "midi": 88,
          "name": "E6",
          "ticks": 83520,
          "time": 74.571354,
          "velocity": 0.8031496062992126
        },
        {
          "duration": 0.053571375000004195,
          "durationTicks": 60,
          "midi": 88,
          "name": "E6",
          "ticks": 83639,
          "time": 74.67760389375,
          "velocity": 0.8031496062992126
        },
        {
          "duration": 0.053571375000004195,
          "durationTicks": 60,
          "midi": 88,
          "name": "E6",
          "ticks": 83760,
          "time": 74.7856395,
          "velocity": 0.8031496062992126
        },
        {
          "duration": 0.053571374999989985,
          "durationTicks": 60,
          "midi": 88,
          "name": "E6",
          "ticks": 83880,
          "time": 74.89278225000001,
          "velocity": 0.8031496062992126
        },
        {
          "duration": 0.053571375000004195,
          "durationTicks": 60,
          "midi": 88,
          "name": "E6",
          "ticks": 84000,
          "time": 74.999925,
          "velocity": 0.8031496062992126
        },
        {
          "duration": 0.053571375000004195,
          "durationTicks": 60,
          "midi": 88,
          "name": "E6",
          "ticks": 84119,
          "time": 75.10617489375001,
          "velocity": 0.8031496062992126
        },
        {
          "duration": 0.053571375000004195,
          "durationTicks": 60,
          "midi": 88,
          "name": "E6",
          "ticks": 84240,
          "time": 75.21421050000001,
          "velocity": 0.8031496062992126
        },
        {
          "duration": 0.053571375000004195,
          "durationTicks": 60,
          "midi": 88,
          "name": "E6",
          "ticks": 84360,
          "time": 75.32135325,
          "velocity": 0.8031496062992126
        },
        {
          "duration": 0.053571374999989985,
          "durationTicks": 60,
          "midi": 88,
          "name": "E6",
          "ticks": 84480,
          "time": 75.42849600000001,
          "velocity": 0.8031496062992126
        },
        {
          "duration": 0.053571374999989985,
          "durationTicks": 60,
          "midi": 88,
          "name": "E6",
          "ticks": 84599,
          "time": 75.53474589375001,
          "velocity": 0.8031496062992126
        },
        {
          "duration": 0.053571374999989985,
          "durationTicks": 60,
          "midi": 88,
          "name": "E6",
          "ticks": 84720,
          "time": 75.64278150000001,
          "velocity": 0.8031496062992126
        },
        {
          "duration": 0.053571375000004195,
          "durationTicks": 60,
          "midi": 88,
          "name": "E6",
          "ticks": 84840,
          "time": 75.74992425,
          "velocity": 0.8031496062992126
        },
        {
          "duration": 0.053571375000004195,
          "durationTicks": 60,
          "midi": 88,
          "name": "E6",
          "ticks": 84960,
          "time": 75.857067,
          "velocity": 0.8031496062992126
        },
        {
          "duration": 0.053571375000004195,
          "durationTicks": 60,
          "midi": 84,
          "name": "C6",
          "ticks": 85080,
          "time": 75.96420975000001,
          "velocity": 0.8031496062992126
        },
        {
          "duration": 0.053571375000004195,
          "durationTicks": 60,
          "midi": 81,
          "name": "A5",
          "ticks": 85200,
          "time": 76.0713525,
          "velocity": 0.8031496062992126
        },
        {
          "duration": 0.053571374999989985,
          "durationTicks": 60,
          "midi": 76,
          "name": "E5",
          "ticks": 85320,
          "time": 76.17849525000001,
          "velocity": 0.8031496062992126
        },
        {
          "duration": 0.053571375000004195,
          "durationTicks": 60,
          "midi": 76,
          "name": "E5",
          "ticks": 85440,
          "time": 76.285638,
          "velocity": 0.8031496062992126
        },
        {
          "duration": 0.053571375000004195,
          "durationTicks": 60,
          "midi": 76,
          "name": "E5",
          "ticks": 85559,
          "time": 76.39188789375001,
          "velocity": 0.8031496062992126
        },
        {
          "duration": 0.053571375000004195,
          "durationTicks": 60,
          "midi": 76,
          "name": "E5",
          "ticks": 85680,
          "time": 76.49992350000001,
          "velocity": 0.8031496062992126
        },
        {
          "duration": 0.053571375000004195,
          "durationTicks": 60,
          "midi": 76,
          "name": "E5",
          "ticks": 85800,
          "time": 76.60706625,
          "velocity": 0.8031496062992126
        },
        {
          "duration": 0.053571375000004195,
          "durationTicks": 60,
          "midi": 81,
          "name": "A5",
          "ticks": 85919,
          "time": 76.71331614375,
          "velocity": 0.8031496062992126
        },
        {
          "duration": 0.053571375000004195,
          "durationTicks": 60,
          "midi": 84,
          "name": "C6",
          "ticks": 86039,
          "time": 76.82045889375,
          "velocity": 0.8031496062992126
        },
        {
          "duration": 0.053571375000004195,
          "durationTicks": 60,
          "midi": 88,
          "name": "E6",
          "ticks": 86160,
          "time": 76.9284945,
          "velocity": 0.8031496062992126
        },
        {
          "duration": 0.053571375000004195,
          "durationTicks": 60,
          "midi": 91,
          "name": "G6",
          "ticks": 86279,
          "time": 77.03474439375,
          "velocity": 0.8031496062992126
        },
        {
          "duration": 0.053571375000004195,
          "durationTicks": 60,
          "midi": 95,
          "name": "B6",
          "ticks": 86400,
          "time": 77.14278,
          "velocity": 0.8031496062992126
        },
        {
          "duration": 0.053571375000004195,
          "durationTicks": 60,
          "midi": 95,
          "name": "B6",
          "ticks": 86519,
          "time": 77.24902989375,
          "velocity": 0.8031496062992126
        },
        {
          "duration": 0.053571375000004195,
          "durationTicks": 60,
          "midi": 95,
          "name": "B6",
          "ticks": 86640,
          "time": 77.3570655,
          "velocity": 0.8031496062992126
        },
        {
          "duration": 0.053571374999989985,
          "durationTicks": 60,
          "midi": 95,
          "name": "B6",
          "ticks": 86760,
          "time": 77.46420825000001,
          "velocity": 0.8031496062992126
        },
        {
          "duration": 0.053571375000004195,
          "durationTicks": 60,
          "midi": 95,
          "name": "B6",
          "ticks": 86880,
          "time": 77.571351,
          "velocity": 0.8031496062992126
        },
        {
          "duration": 0.053571375000004195,
          "durationTicks": 60,
          "midi": 91,
          "name": "G6",
          "ticks": 87000,
          "time": 77.67849375,
          "velocity": 0.8031496062992126
        },
        {
          "duration": 0.053571374999989985,
          "durationTicks": 60,
          "midi": 88,
          "name": "E6",
          "ticks": 87120,
          "time": 77.78563650000001,
          "velocity": 0.8031496062992126
        },
        {
          "duration": 0.053571374999989985,
          "durationTicks": 60,
          "midi": 84,
          "name": "C6",
          "ticks": 87239,
          "time": 77.89188639375001,
          "velocity": 0.8031496062992126
        },
        {
          "duration": 0.053571374999989985,
          "durationTicks": 60,
          "midi": 81,
          "name": "A5",
          "ticks": 87360,
          "time": 77.99992200000001,
          "velocity": 0.8031496062992126
        },
        {
          "duration": 0.053571375000004195,
          "durationTicks": 60,
          "midi": 81,
          "name": "A5",
          "ticks": 87479,
          "time": 78.10617189375,
          "velocity": 0.8031496062992126
        },
        {
          "duration": 0.053571375000004195,
          "durationTicks": 60,
          "midi": 81,
          "name": "A5",
          "ticks": 87600,
          "time": 78.2142075,
          "velocity": 0.8031496062992126
        },
        {
          "duration": 0.053571375000004195,
          "durationTicks": 60,
          "midi": 81,
          "name": "A5",
          "ticks": 87720,
          "time": 78.32135025000001,
          "velocity": 0.8031496062992126
        },
        {
          "duration": 0.053571375000004195,
          "durationTicks": 60,
          "midi": 81,
          "name": "A5",
          "ticks": 87840,
          "time": 78.428493,
          "velocity": 0.8031496062992126
        },
        {
          "duration": 0.053571375000004195,
          "durationTicks": 60,
          "midi": 81,
          "name": "A5",
          "ticks": 87959,
          "time": 78.53474289375,
          "velocity": 0.8031496062992126
        },
        {
          "duration": 0.053571375000004195,
          "durationTicks": 60,
          "midi": 81,
          "name": "A5",
          "ticks": 88080,
          "time": 78.6427785,
          "velocity": 0.8031496062992126
        },
        {
          "duration": 0.053571375000004195,
          "durationTicks": 60,
          "midi": 81,
          "name": "A5",
          "ticks": 88200,
          "time": 78.74992125,
          "velocity": 0.8031496062992126
        },
        {
          "duration": 0.053571375000004195,
          "durationTicks": 60,
          "midi": 81,
          "name": "A5",
          "ticks": 88320,
          "time": 78.85706400000001,
          "velocity": 0.8031496062992126
        },
        {
          "duration": 0.053571374999989985,
          "durationTicks": 60,
          "midi": 84,
          "name": "C6",
          "ticks": 88439,
          "time": 78.96331389375001,
          "velocity": 0.8031496062992126
        },
        {
          "duration": 0.053571374999989985,
          "durationTicks": 60,
          "midi": 88,
          "name": "E6",
          "ticks": 88560,
          "time": 79.07134950000001,
          "velocity": 0.8031496062992126
        },
        {
          "duration": 0.053571375000004195,
          "durationTicks": 60,
          "midi": 91,
          "name": "G6",
          "ticks": 88680,
          "time": 79.17849225,
          "velocity": 0.8031496062992126
        },
        {
          "duration": 0.053571374999989985,
          "durationTicks": 60,
          "midi": 95,
          "name": "B6",
          "ticks": 88800,
          "time": 79.28563500000001,
          "velocity": 0.8031496062992126
        },
        {
          "duration": 0.053571375000004195,
          "durationTicks": 60,
          "midi": 98,
          "name": "D7",
          "ticks": 88920,
          "time": 79.39277775000001,
          "velocity": 0.8031496062992126
        },
        {
          "duration": 0.053571374999989985,
          "durationTicks": 60,
          "midi": 95,
          "name": "B6",
          "ticks": 89039,
          "time": 79.49902764375001,
          "velocity": 0.8031496062992126
        },
        {
          "duration": 0.053571374999989985,
          "durationTicks": 60,
          "midi": 91,
          "name": "G6",
          "ticks": 89160,
          "time": 79.60706325000001,
          "velocity": 0.8031496062992126
        },
        {
          "duration": 0.053571375000004195,
          "durationTicks": 60,
          "midi": 88,
          "name": "E6",
          "ticks": 89280,
          "time": 79.714206,
          "velocity": 0.8031496062992126
        },
        {
          "duration": 0.053571374999989985,
          "durationTicks": 60,
          "midi": 84,
          "name": "C6",
          "ticks": 89400,
          "time": 79.82134875000001,
          "velocity": 0.8031496062992126
        },
        {
          "duration": 0.053571375000004195,
          "durationTicks": 60,
          "midi": 81,
          "name": "A5",
          "ticks": 89520,
          "time": 79.9284915,
          "velocity": 0.8031496062992126
        },
        {
          "duration": 0.053571374999989985,
          "durationTicks": 60,
          "midi": 76,
          "name": "E5",
          "ticks": 89639,
          "time": 80.03474139375001,
          "velocity": 0.8031496062992126
        },
        {
          "duration": 0.053571375000004195,
          "durationTicks": 60,
          "midi": 81,
          "name": "A5",
          "ticks": 89760,
          "time": 80.14277700000001,
          "velocity": 0.8031496062992126
        },
        {
          "duration": 0.053571375000004195,
          "durationTicks": 60,
          "midi": 84,
          "name": "C6",
          "ticks": 89880,
          "time": 80.24991975,
          "velocity": 0.8031496062992126
        },
        {
          "duration": 0.053571374999989985,
          "durationTicks": 60,
          "midi": 88,
          "name": "E6",
          "ticks": 90000,
          "time": 80.35706250000001,
          "velocity": 0.8031496062992126
        },
        {
          "duration": 0.053571375000004195,
          "durationTicks": 60,
          "midi": 91,
          "name": "G6",
          "ticks": 90120,
          "time": 80.46420525,
          "velocity": 0.8031496062992126
        },
        {
          "duration": 0.053571375000004195,
          "durationTicks": 60,
          "midi": 95,
          "name": "B6",
          "ticks": 90240,
          "time": 80.571348,
          "velocity": 0.8031496062992126
        },
        {
          "duration": 0.053571375000004195,
          "durationTicks": 60,
          "midi": 98,
          "name": "D7",
          "ticks": 90360,
          "time": 80.67849075000001,
          "velocity": 0.8031496062992126
        },
        {
          "duration": 0.053571375000004195,
          "durationTicks": 60,
          "midi": 95,
          "name": "B6",
          "ticks": 90480,
          "time": 80.7856335,
          "velocity": 0.8031496062992126
        },
        {
          "duration": 0.053571374999989985,
          "durationTicks": 60,
          "midi": 91,
          "name": "G6",
          "ticks": 90600,
          "time": 80.89277625000001,
          "velocity": 0.8031496062992126
        },
        {
          "duration": 0.053571375000004195,
          "durationTicks": 60,
          "midi": 88,
          "name": "E6",
          "ticks": 90720,
          "time": 80.999919,
          "velocity": 0.8031496062992126
        },
        {
          "duration": 0.053571375000004195,
          "durationTicks": 60,
          "midi": 84,
          "name": "C6",
          "ticks": 90840,
          "time": 81.10706175,
          "velocity": 0.8031496062992126
        },
        {
          "duration": 0.053571375000004195,
          "durationTicks": 60,
          "midi": 81,
          "name": "A5",
          "ticks": 90960,
          "time": 81.21420450000001,
          "velocity": 0.8031496062992126
        },
        {
          "duration": 0.053571375000004195,
          "durationTicks": 60,
          "midi": 76,
          "name": "E5",
          "ticks": 91080,
          "time": 81.32134725,
          "velocity": 0.8031496062992126
        },
        {
          "duration": 0.053571374999989985,
          "durationTicks": 60,
          "midi": 76,
          "name": "E5",
          "ticks": 91200,
          "time": 81.42849000000001,
          "velocity": 0.8031496062992126
        },
        {
          "duration": 0.053571375000004195,
          "durationTicks": 60,
          "midi": 81,
          "name": "A5",
          "ticks": 91320,
          "time": 81.53563275,
          "velocity": 0.8031496062992126
        },
        {
          "duration": 0.053571374999989985,
          "durationTicks": 60,
          "midi": 84,
          "name": "C6",
          "ticks": 91440,
          "time": 81.64277550000001,
          "velocity": 0.8031496062992126
        },
        {
          "duration": 0.053571375000004195,
          "durationTicks": 60,
          "midi": 88,
          "name": "E6",
          "ticks": 91560,
          "time": 81.74991825000001,
          "velocity": 0.8031496062992126
        },
        {
          "duration": 0.053571375000004195,
          "durationTicks": 60,
          "midi": 91,
          "name": "G6",
          "ticks": 91680,
          "time": 81.857061,
          "velocity": 0.8031496062992126
        },
        {
          "duration": 0.053571374999989985,
          "durationTicks": 60,
          "midi": 95,
          "name": "B6",
          "ticks": 91800,
          "time": 81.96420375000001,
          "velocity": 0.8031496062992126
        },
        {
          "duration": 0.053571375000004195,
          "durationTicks": 60,
          "midi": 91,
          "name": "G6",
          "ticks": 91920,
          "time": 82.0713465,
          "velocity": 0.8031496062992126
        },
        {
          "duration": 0.053571374999989985,
          "durationTicks": 60,
          "midi": 84,
          "name": "C6",
          "ticks": 92040,
          "time": 82.17848925000001,
          "velocity": 0.8031496062992126
        },
        {
          "duration": 0.21428550000000257,
          "durationTicks": 240,
          "midi": 67,
          "name": "G4",
          "ticks": 93599,
          "time": 83.57045214375,
          "velocity": 0.4015748031496063
        },
        {
          "duration": 0.21428550000000257,
          "durationTicks": 240,
          "midi": 79,
          "name": "G5",
          "ticks": 93599,
          "time": 83.57045214375,
          "velocity": 0.8031496062992126
        },
        {
          "duration": 0.21428550000000257,
          "durationTicks": 240,
          "midi": 69,
          "name": "A4",
          "ticks": 93839,
          "time": 83.78473764375,
          "velocity": 0.4015748031496063
        },
        {
          "duration": 0.21428550000000257,
          "durationTicks": 240,
          "midi": 81,
          "name": "A5",
          "ticks": 93839,
          "time": 83.78473764375,
          "velocity": 0.8031496062992126
        },
        {
          "duration": 1.0714274999999986,
          "durationTicks": 1200,
          "midi": 71,
          "name": "B4",
          "ticks": 94079,
          "time": 83.99902314375001,
          "velocity": 0.4015748031496063
        },
        {
          "duration": 1.0714274999999986,
          "durationTicks": 1200,
          "midi": 83,
          "name": "B5",
          "ticks": 94079,
          "time": 83.99902314375001,
          "velocity": 0.8031496062992126
        },
        {
          "duration": 0.10803560624999875,
          "durationTicks": 121,
          "midi": 71,
          "name": "B4",
          "ticks": 95519,
          "time": 85.28473614375001,
          "velocity": 0.4015748031496063
        },
        {
          "duration": 0.10803560624999875,
          "durationTicks": 121,
          "midi": 83,
          "name": "B5",
          "ticks": 95519,
          "time": 85.28473614375001,
          "velocity": 0.8031496062992126
        },
        {
          "duration": 0.10803560624999875,
          "durationTicks": 121,
          "midi": 69,
          "name": "A4",
          "ticks": 95639,
          "time": 85.39187889375,
          "velocity": 0.4015748031496063
        },
        {
          "duration": 0.10803560624999875,
          "durationTicks": 121,
          "midi": 81,
          "name": "A5",
          "ticks": 95639,
          "time": 85.39187889375,
          "velocity": 0.8031496062992126
        },
        {
          "duration": 0.2133926437500122,
          "durationTicks": 239,
          "midi": 67,
          "name": "G4",
          "ticks": 95760,
          "time": 85.4999145,
          "velocity": 0.4015748031496063
        },
        {
          "duration": 0.2133926437500122,
          "durationTicks": 239,
          "midi": 79,
          "name": "G5",
          "ticks": 95760,
          "time": 85.4999145,
          "velocity": 0.8031496062992126
        },
        {
          "duration": 0.6428564999999935,
          "durationTicks": 720,
          "midi": 69,
          "name": "A4",
          "ticks": 95999,
          "time": 85.71330714375001,
          "velocity": 0.4015748031496063
        },
        {
          "duration": 0.6428564999999935,
          "durationTicks": 720,
          "midi": 81,
          "name": "A5",
          "ticks": 95999,
          "time": 85.71330714375001,
          "velocity": 0.8031496062992126
        },
        {
          "duration": 0.6428564999999935,
          "durationTicks": 720,
          "midi": 71,
          "name": "B4",
          "ticks": 96719,
          "time": 86.35616364375001,
          "velocity": 0.4015748031496063
        },
        {
          "duration": 0.6428564999999935,
          "durationTicks": 720,
          "midi": 83,
          "name": "B5",
          "ticks": 96719,
          "time": 86.35616364375001,
          "velocity": 0.8031496062992126
        },
        {
          "duration": 0.42857100000000514,
          "durationTicks": 480,
          "midi": 69,
          "name": "A4",
          "ticks": 97439,
          "time": 86.99902014375,
          "velocity": 0.4015748031496063
        },
        {
          "duration": 0.42857100000000514,
          "durationTicks": 480,
          "midi": 81,
          "name": "A5",
          "ticks": 97439,
          "time": 86.99902014375,
          "velocity": 0.8031496062992126
        },
        {
          "duration": 0.8571419999999961,
          "durationTicks": 960,
          "midi": 67,
          "name": "G4",
          "ticks": 97919,
          "time": 87.42759114375,
          "velocity": 0.4015748031496063
        },
        {
          "duration": 0.8571419999999961,
          "durationTicks": 960,
          "midi": 79,
          "name": "G5",
          "ticks": 97919,
          "time": 87.42759114375,
          "velocity": 0.8031496062992126
        },
        {
          "duration": 0.10714274999999418,
          "durationTicks": 120,
          "midi": 67,
          "name": "G4",
          "ticks": 99360,
          "time": 88.71419700000001,
          "velocity": 0.4015748031496063
        },
        {
          "duration": 0.10714274999999418,
          "durationTicks": 120,
          "midi": 79,
          "name": "G5",
          "ticks": 99360,
          "time": 88.71419700000001,
          "velocity": 0.8031496062992126
        },
        {
          "duration": 0.10714274999999418,
          "durationTicks": 120,
          "midi": 66,
          "name": "F#4",
          "ticks": 99480,
          "time": 88.82133975,
          "velocity": 0.4015748031496063
        },
        {
          "duration": 0.10714274999999418,
          "durationTicks": 120,
          "midi": 78,
          "name": "F#5",
          "ticks": 99480,
          "time": 88.82133975,
          "velocity": 0.8031496062992126
        },
        {
          "duration": 0.21428550000000257,
          "durationTicks": 240,
          "midi": 67,
          "name": "G4",
          "ticks": 99600,
          "time": 88.9284825,
          "velocity": 0.4015748031496063
        },
        {
          "duration": 0.21428550000000257,
          "durationTicks": 240,
          "midi": 79,
          "name": "G5",
          "ticks": 99600,
          "time": 88.9284825,
          "velocity": 0.8031496062992126
        },
        {
          "duration": 0.6428564999999935,
          "durationTicks": 720,
          "midi": 69,
          "name": "A4",
          "ticks": 99839,
          "time": 89.14187514375001,
          "velocity": 0.4015748031496063
        },
        {
          "duration": 0.6428564999999935,
          "durationTicks": 720,
          "midi": 81,
          "name": "A5",
          "ticks": 99839,
          "time": 89.14187514375001,
          "velocity": 0.8031496062992126
        },
        {
          "duration": 0.6428565000000077,
          "durationTicks": 720,
          "midi": 71,
          "name": "B4",
          "ticks": 100559,
          "time": 89.78473164375,
          "velocity": 0.4015748031496063
        },
        {
          "duration": 0.6428565000000077,
          "durationTicks": 720,
          "midi": 83,
          "name": "B5",
          "ticks": 100559,
          "time": 89.78473164375,
          "velocity": 0.8031496062992126
        },
        {
          "duration": 0.21428549999998836,
          "durationTicks": 240,
          "midi": 67,
          "name": "G4",
          "ticks": 101279,
          "time": 90.42758814375001,
          "velocity": 0.4015748031496063
        },
        {
          "duration": 0.21428549999998836,
          "durationTicks": 240,
          "midi": 79,
          "name": "G5",
          "ticks": 101279,
          "time": 90.42758814375001,
          "velocity": 0.8031496062992126
        },
        {
          "duration": 0.21428550000000257,
          "durationTicks": 240,
          "midi": 69,
          "name": "A4",
          "ticks": 101519,
          "time": 90.64187364375,
          "velocity": 0.4015748031496063
        },
        {
          "duration": 0.21428550000000257,
          "durationTicks": 240,
          "midi": 81,
          "name": "A5",
          "ticks": 101519,
          "time": 90.64187364375,
          "velocity": 0.8031496062992126
        },
        {
          "duration": 1.0714274999999986,
          "durationTicks": 1200,
          "midi": 71,
          "name": "B4",
          "ticks": 101760,
          "time": 90.85705200000001,
          "velocity": 0.4015748031496063
        },
        {
          "duration": 1.0714274999999986,
          "durationTicks": 1200,
          "midi": 83,
          "name": "B5",
          "ticks": 101760,
          "time": 90.85705200000001,
          "velocity": 0.8031496062992126
        },
        {
          "duration": 0.10714274999999418,
          "durationTicks": 120,
          "midi": 71,
          "name": "B4",
          "ticks": 103200,
          "time": 92.14276500000001,
          "velocity": 0.4015748031496063
        },
        {
          "duration": 0.10714274999999418,
          "durationTicks": 120,
          "midi": 83,
          "name": "B5",
          "ticks": 103200,
          "time": 92.14276500000001,
          "velocity": 0.8031496062992126
        },
        {
          "duration": 0.10714275000000839,
          "durationTicks": 120,
          "midi": 69,
          "name": "A4",
          "ticks": 103320,
          "time": 92.24990775,
          "velocity": 0.4015748031496063
        },
        {
          "duration": 0.10714275000000839,
          "durationTicks": 120,
          "midi": 81,
          "name": "A5",
          "ticks": 103320,
          "time": 92.24990775,
          "velocity": 0.8031496062992126
        },
        {
          "duration": 0.21428549999998836,
          "durationTicks": 240,
          "midi": 67,
          "name": "G4",
          "ticks": 103440,
          "time": 92.35705050000001,
          "velocity": 0.4015748031496063
        },
        {
          "duration": 0.21428549999998836,
          "durationTicks": 240,
          "midi": 79,
          "name": "G5",
          "ticks": 103440,
          "time": 92.35705050000001,
          "velocity": 0.8031496062992126
        },
        {
          "duration": 0.6428565000000077,
          "durationTicks": 720,
          "midi": 69,
          "name": "A4",
          "ticks": 103680,
          "time": 92.571336,
          "velocity": 0.4015748031496063
        },
        {
          "duration": 0.6428565000000077,
          "durationTicks": 720,
          "midi": 81,
          "name": "A5",
          "ticks": 103680,
          "time": 92.571336,
          "velocity": 0.8031496062992126
        },
        {
          "duration": 0.6428564999999935,
          "durationTicks": 720,
          "midi": 71,
          "name": "B4",
          "ticks": 104400,
          "time": 93.21419250000001,
          "velocity": 0.4015748031496063
        },
        {
          "duration": 0.6428564999999935,
          "durationTicks": 720,
          "midi": 83,
          "name": "B5",
          "ticks": 104400,
          "time": 93.21419250000001,
          "velocity": 0.8031496062992126
        },
        {
          "duration": 0.42857100000000514,
          "durationTicks": 480,
          "midi": 69,
          "name": "A4",
          "ticks": 105120,
          "time": 93.857049,
          "velocity": 0.4015748031496063
        },
        {
          "duration": 0.42857100000000514,
          "durationTicks": 480,
          "midi": 81,
          "name": "A5",
          "ticks": 105120,
          "time": 93.857049,
          "velocity": 0.8031496062992126
        },
        {
          "duration": 0.8571419999999961,
          "durationTicks": 960,
          "midi": 67,
          "name": "G4",
          "ticks": 105600,
          "time": 94.28562000000001,
          "velocity": 0.4015748031496063
        },
        {
          "duration": 0.8571419999999961,
          "durationTicks": 960,
          "midi": 79,
          "name": "G5",
          "ticks": 105600,
          "time": 94.28562000000001,
          "velocity": 0.8031496062992126
        },
        {
          "duration": 0.10714274999999418,
          "durationTicks": 120,
          "midi": 67,
          "name": "G4",
          "ticks": 107040,
          "time": 95.57133300000001,
          "velocity": 0.4015748031496063
        },
        {
          "duration": 0.10714274999999418,
          "durationTicks": 120,
          "midi": 79,
          "name": "G5",
          "ticks": 107040,
          "time": 95.57133300000001,
          "velocity": 0.8031496062992126
        },
        {
          "duration": 0.10714275000000839,
          "durationTicks": 120,
          "midi": 66,
          "name": "F#4",
          "ticks": 107160,
          "time": 95.67847575,
          "velocity": 0.4015748031496063
        },
        {
          "duration": 0.10714275000000839,
          "durationTicks": 120,
          "midi": 78,
          "name": "F#5",
          "ticks": 107160,
          "time": 95.67847575,
          "velocity": 0.8031496062992126
        },
        {
          "duration": 0.21428550000000257,
          "durationTicks": 240,
          "midi": 67,
          "name": "G4",
          "ticks": 107280,
          "time": 95.78561850000001,
          "velocity": 0.4015748031496063
        },
        {
          "duration": 0.21428550000000257,
          "durationTicks": 240,
          "midi": 79,
          "name": "G5",
          "ticks": 107280,
          "time": 95.78561850000001,
          "velocity": 0.8031496062992126
        },
        {
          "duration": 0.6428564999999935,
          "durationTicks": 720,
          "midi": 69,
          "name": "A4",
          "ticks": 107520,
          "time": 95.99990400000002,
          "velocity": 0.4015748031496063
        },
        {
          "duration": 0.6428564999999935,
          "durationTicks": 720,
          "midi": 81,
          "name": "A5",
          "ticks": 107520,
          "time": 95.99990400000002,
          "velocity": 0.8031496062992126
        },
        {
          "duration": 0.6428564999999935,
          "durationTicks": 720,
          "midi": 71,
          "name": "B4",
          "ticks": 108240,
          "time": 96.64276050000001,
          "velocity": 0.4015748031496063
        },
        {
          "duration": 0.6428564999999935,
          "durationTicks": 720,
          "midi": 83,
          "name": "B5",
          "ticks": 108240,
          "time": 96.64276050000001,
          "velocity": 0.8031496062992126
        },
        {
          "duration": 0.42857100000000514,
          "durationTicks": 480,
          "midi": 69,
          "name": "A4",
          "ticks": 108960,
          "time": 97.285617,
          "velocity": 0.4015748031496063
        },
        {
          "duration": 0.42857100000000514,
          "durationTicks": 480,
          "midi": 81,
          "name": "A5",
          "ticks": 108960,
          "time": 97.285617,
          "velocity": 0.8031496062992126
        },
        {
          "duration": 3.4285679999999985,
          "durationTicks": 3840,
          "midi": 64,
          "name": "E4",
          "ticks": 109440,
          "time": 97.71418800000001,
          "velocity": 0.4015748031496063
        },
        {
          "duration": 3.4285679999999985,
          "durationTicks": 3840,
          "midi": 76,
          "name": "E5",
          "ticks": 109440,
          "time": 97.71418800000001,
          "velocity": 0.8031496062992126
        }
      ],
      "endOfTrackTicks": 113280
    }
  ]
}